Exo2-BlackItalic.ufo
<glyph name="quotedbl" format="2">
  <advance width="394"/>
  <unicode hex="0022"/>
  <outline>
    <contour>
      <point x="414" y="690" type="line"/>
      <point x="270" y="690" type="line"/>
      <point x="250" y="462" type="line"/>
      <point x="370" y="462" type="line"/>
    </contour>
    <contour>
      <point x="235" y="690" type="line"/>
      <point x="91" y="690" type="line"/>
      <point x="71" y="462" type="line"/>
      <point x="191" y="462" type="line"/>
    </contour>
  </outline>
</glyph>
<glyph name="numbersign" format="2">
  <advance width="743"/>
  <unicode hex="0023"/>
  <outline>
    <contour>
      <point x="692" y="690" type="line"/>
      <point x="535" y="690" type="line"/>
      <point x="318" y="0" type="line"/>
      <point x="475" y="0" type="line"/>
    </contour>
    <contour>
      <point x="681" y="304" type="line"/>
      <point x="48" y="304" type="line"/>
      <point x="6" y="182" type="line"/>
      <point x="639" y="182" type="line"/>
    </contour>
    <contour>
      <point x="441" y="690" type="line"/>
      <point x="284" y="690" type="line"/>
      <point x="67" y="0" type="line"/>
      <point x="224" y="0" type="line"/>
    </contour>
    <contour>
      <point x="754" y="526" type="line"/>
      <point x="121" y="526" type="line"/>
      <point x="80" y="404" type="line"/>
      <point x="713" y="404" type="line"/>
    </contour>
  </outline>
</glyph>
<glyph name="ampersand" format="2">
  <advance width="759"/>
  <unicode hex="0026"/>
  <outline>
    <contour>
      <point x="373" y="704" type="curve" smooth="yes"/>
      <point x="224" y="704"/>
      <point x="113" y="683"/>
      <point x="85" y="528" type="curve" smooth="yes"/>
      <point x="70" y="445"/>
      <point x="108" y="367"/>
      <point x="175" y="361" type="curve"/>
      <point x="174" y="355" type="line"/>
      <point x="74" y="350"/>
      <point x="27" y="275"/>
      <point x="16" y="184" type="curve" smooth="yes"/>
      <point x="0" y="52"/>
      <point x="74" y="-14"/>
      <point x="265" y="-14" type="curve" smooth="yes"/>
      <point x="475" y="-14"/>
      <point x="581" y="66"/>
      <point x="635" y="187" type="curve" smooth="yes"/>
      <point x="675" y="276"/>
      <point x="686" y="386"/>
      <point x="688" y="502" type="curve"/>
      <point x="516" y="502" type="line"/>
      <point x="512" y="380"/>
      <point x="497" y="300"/>
      <point x="472" y="247" type="curve" smooth="yes"/>
      <point x="434" y="166"/>
      <point x="378" y="150"/>
      <point x="316" y="150" type="curve" smooth="yes"/>
      <point x="267" y="150"/>
      <point x="242" y="164"/>
      <point x="248" y="213" type="curve" smooth="yes"/>
      <point x="255" y="274"/>
      <point x="283" y="288"/>
      <point x="326" y="288" type="curve" smooth="yes"/>
      <point x="743" y="288" type="line"/>
      <point x="762" y="419" type="line"/>
      <point x="345" y="419" type="line" smooth="yes"/>
      <point x="305" y="419"/>
      <point x="290" y="433"/>
      <point x="297" y="488" type="curve" smooth="yes"/>
      <point x="304" y="544"/>
      <point x="323" y="553"/>
      <point x="380" y="553" type="curve" smooth="yes"/>
      <point x="424" y="553"/>
      <point x="472" y="547"/>
      <point x="511" y="541" type="curve"/>
      <point x="544" y="680" type="line"/>
      <point x="486" y="700"/>
      <point x="422" y="704"/>
    </contour>
  </outline>
</glyph>
<glyph name="quotesingle" format="2">
  <advance width="215"/>
  <unicode hex="0027"/>
  <outline>
    <contour>
      <point x="235" y="690" type="line"/>
      <point x="91" y="690" type="line"/>
      <point x="71" y="462" type="line"/>
      <point x="191" y="462" type="line"/>
    </contour>
  </outline>
</glyph>
<glyph name="parenleft" format="2">
  <advance width="373"/>
  <unicode hex="0028"/>
  <outline>
    <contour>
      <point x="404" y="791" type="line"/>
      <point x="179" y="735"/>
      <point x="67" y="588"/>
      <point x="29" y="320" type="curve" smooth="yes"/>
      <point x="-10" y="50"/>
      <point x="73" y="-103"/>
      <point x="284" y="-160" type="curve"/>
      <point x="310" y="-75" type="line"/>
      <point x="211" y="-29"/>
      <point x="202" y="113"/>
      <point x="230" y="305" type="curve" smooth="yes"/>
      <point x="259" y="513"/>
      <point x="319" y="658"/>
      <point x="429" y="700" type="curve"/>
    </contour>
  </outline>
</glyph>
<glyph name="parenright" format="2">
  <advance width="373"/>
  <unicode hex="0029"/>
  <outline>
    <contour>
      <point x="95" y="786" type="curve"/>
      <point x="70" y="700" type="line"/>
      <point x="169" y="658"/>
      <point x="177" y="518"/>
      <point x="149" y="321" type="curve" smooth="yes"/>
      <point x="120" y="117"/>
      <point x="61" y="-29"/>
      <point x="-50" y="-75" type="curve"/>
      <point x="-25" y="-166" type="line"/>
      <point x="200" y="-109"/>
      <point x="312" y="38"/>
      <point x="350" y="304" type="curve" smooth="yes"/>
      <point x="388" y="577"/>
      <point x="306" y="730"/>
    </contour>
  </outline>
</glyph>
<glyph name="asterisk" format="2">
  <advance width="457"/>
  <unicode hex="002A"/>
  <outline>
    <contour>
      <point x="343" y="692" type="line"/>
      <point x="229" y="692" type="line"/>
      <point x="222" y="516" type="line"/>
      <point x="90" y="388" type="line"/>
      <point x="175" y="322" type="line"/>
      <point x="255" y="441" type="line"/>
      <point x="302" y="322" type="line"/>
      <point x="396" y="388" type="line"/>
      <point x="301" y="517" type="line"/>
    </contour>
    <contour>
      <point x="100" y="624" type="line"/>
      <point x="56" y="517" type="line"/>
      <point x="174" y="494" type="line"/>
      <point x="205" y="523" type="line"/>
      <point x="208" y="572" type="line"/>
    </contour>
    <contour>
      <point x="444" y="623" type="line"/>
      <point x="330" y="571" type="line"/>
      <point x="319" y="522" type="line"/>
      <point x="344" y="490" type="line"/>
      <point x="466" y="516" type="line"/>
    </contour>
  </outline>
</glyph>
<glyph name="plus" format="2">
  <advance width="520"/>
  <unicode hex="002B"/>
  <outline>
    <contour>
      <point x="372" y="539" type="line"/>
      <point x="219" y="539" type="line"/>
      <point x="152" y="68" type="line"/>
      <point x="305" y="68" type="line"/>
    </contour>
    <contour>
      <point x="508" y="381" type="line"/>
      <point x="39" y="381" type="line"/>
      <point x="16" y="226" type="line"/>
      <point x="485" y="226" type="line"/>
    </contour>
  </outline>
</glyph>
<glyph name="comma" format="2">
  <advance width="257"/>
  <unicode hex="002C"/>
  <outline>
    <contour>
      <point x="129" y="185" type="curve" smooth="yes"/>
      <point x="93" y="185" type="line" smooth="yes"/>
      <point x="43" y="185"/>
      <point x="18" y="169"/>
      <point x="10" y="114" type="curve" smooth="yes"/>
      <point x="3" y="68" type="line" smooth="yes"/>
      <point x="-2" y="24"/>
      <point x="11" y="3"/>
      <point x="55" y="4" type="curve"/>
      <point x="43" y="-41"/>
      <point x="32" y="-88"/>
      <point x="12" y="-133" type="curve"/>
      <point x="97" y="-165" type="line"/>
      <point x="140" y="-114"/>
      <point x="177" y="-25"/>
      <point x="187" y="45" type="curve" smooth="yes"/>
      <point x="196" y="109" type="line" smooth="yes"/>
      <point x="203" y="164"/>
      <point x="182" y="185"/>
    </contour>
  </outline>
</glyph>
<glyph name="hyphen" format="2">
  <advance width="382"/>
  <unicode hex="002D"/>
  <outline>
    <contour>
      <point x="341" y="318" type="line"/>
      <point x="50" y="318" type="line"/>
      <point x="32" y="196" type="line"/>
      <point x="323" y="196" type="line"/>
    </contour>
  </outline>
</glyph>
<glyph name="period" format="2">
  <advance width="255"/>
  <unicode hex="002E"/>
  <outline>
    <contour>
      <point x="129" y="185" type="curve" smooth="yes"/>
      <point x="89" y="185" type="line" smooth="yes"/>
      <point x="41" y="185"/>
      <point x="15" y="164"/>
      <point x="8" y="117" type="curve" smooth="yes"/>
      <point x="3" y="76" type="line" smooth="yes"/>
      <point x="-3" y="27"/>
      <point x="20" y="0"/>
      <point x="72" y="0" type="curve" smooth="yes"/>
      <point x="112" y="0" type="line" smooth="yes"/>
      <point x="163" y="0"/>
      <point x="186" y="21"/>
      <point x="192" y="68" type="curve" smooth="yes"/>
      <point x="198" y="109" type="line" smooth="yes"/>
      <point x="205" y="159"/>
      <point x="176" y="185"/>
    </contour>
  </outline>
</glyph>
<glyph name="slash" format="2">
  <advance width="597"/>
  <unicode hex="002F"/>
  <outline>
    <contour>
      <point x="635" y="690" type="line"/>
      <point x="466" y="690" type="line"/>
      <point x="-35" y="-79" type="line"/>
      <point x="134" y="-79" type="line"/>
    </contour>
  </outline>
</glyph>
<glyph name="zero" format="2">
  <advance width="656"/>
  <unicode hex="0030"/>
  <outline>
    <contour>
      <point x="301" y="-13" type="curve" smooth="yes"/>
      <point x="594" y="-13"/>
      <point x="636" y="204"/>
      <point x="636" y="481" type="curve" smooth="yes"/>
      <point x="636" y="654"/>
      <point x="532" y="703"/>
      <point x="369" y="703" type="curve" smooth="yes"/>
      <point x="77" y="703"/>
      <point x="37" y="497"/>
      <point x="34" y="211" type="curve" smooth="yes"/>
      <point x="32" y="35"/>
      <point x="140" y="-13"/>
    </contour>
    <contour>
      <point x="321" y="147" type="curve" smooth="yes"/>
      <point x="266" y="147"/>
      <point x="244" y="172"/>
      <point x="246" y="231" type="curve" smooth="yes"/>
      <point x="251" y="411"/>
      <point x="264" y="543"/>
      <point x="347" y="543" type="curve" smooth="yes"/>
      <point x="403" y="543"/>
      <point x="426" y="519"/>
      <point x="424" y="456" type="curve" smooth="yes"/>
      <point x="419" y="279"/>
      <point x="406" y="147"/>
    </contour>
  </outline>
</glyph>
<glyph name="two" format="2">
  <advance width="590"/>
  <unicode hex="0032"/>
  <outline>
    <contour>
      <point x="330" y="702" type="curve" smooth="yes"/>
      <point x="280" y="702"/>
      <point x="194" y="700"/>
      <point x="86" y="681" type="curve"/>
      <point x="82" y="521" type="line"/>
      <point x="179" y="523"/>
      <point x="231" y="523"/>
      <point x="310" y="523" type="curve" smooth="yes"/>
      <point x="342" y="523"/>
      <point x="356" y="519"/>
      <point x="356" y="505" type="curve" smooth="yes"/>
      <point x="356" y="466"/>
      <point x="281" y="408"/>
      <point x="205" y="339" type="curve" smooth="yes"/>
      <point x="40" y="198" type="line" smooth="yes"/>
      <point x="16" y="172"/>
      <point x="10" y="147"/>
      <point x="5" y="112" type="curve" smooth="yes"/>
      <point x="-11" y="0" type="line"/>
      <point x="521" y="0" type="line"/>
      <point x="545" y="182" type="line"/>
      <point x="363" y="182" type="line" smooth="yes"/>
      <point x="331" y="182"/>
      <point x="301" y="179"/>
      <point x="267" y="167" type="curve"/>
      <point x="452" y="326" type="line" smooth="yes"/>
      <point x="532" y="394"/>
      <point x="574" y="455"/>
      <point x="574" y="554" type="curve" smooth="yes"/>
      <point x="574" y="673"/>
      <point x="490" y="702"/>
    </contour>
  </outline>
</glyph>
<glyph name="four" format="2">
  <advance width="653"/>
  <unicode hex="0034"/>
  <outline>
    <contour>
      <point x="443" y="690" type="line"/>
      <point x="238" y="690" type="line"/>
      <point x="8" y="247" type="line" smooth="yes"/>
      <point x="-18" y="194"/>
      <point x="11" y="140"/>
      <point x="80" y="140" type="curve" smooth="yes"/>
      <point x="548" y="140" type="line"/>
      <point x="617" y="160" type="line"/>
      <point x="633" y="278" type="line"/>
      <point x="253" y="278" type="line" smooth="yes"/>
      <point x="238" y="278"/>
      <point x="239" y="284"/>
      <point x="247" y="299" type="curve" smooth="yes"/>
    </contour>
    <contour>
      <point x="603" y="554" type="line"/>
      <point x="438" y="554" type="line"/>
      <point x="389" y="448" type="line"/>
      <point x="328" y="0" type="line"/>
      <point x="525" y="0" type="line"/>
    </contour>
  </outline>
</glyph>
<glyph name="six" format="2">
  <advance width="604"/>
  <unicode hex="0036"/>
  <outline>
    <contour>
      <point x="401" y="702" type="curve" smooth="yes"/>
      <point x="198" y="702"/>
      <point x="85" y="648"/>
      <point x="41" y="339" type="curve" smooth="yes"/>
      <point x="1" y="60"/>
      <point x="76" y="-12"/>
      <point x="284" y="-12" type="curve" smooth="yes"/>
      <point x="506" y="-12"/>
      <point x="569" y="99"/>
      <point x="577" y="312" type="curve" smooth="yes"/>
      <point x="580" y="396"/>
      <point x="523" y="455"/>
      <point x="401" y="455" type="curve" smooth="yes"/>
      <point x="291" y="455"/>
      <point x="218" y="409"/>
      <point x="158" y="305" type="curve"/>
      <point x="162" y="232" type="line"/>
      <point x="224" y="277"/>
      <point x="263" y="313"/>
      <point x="310" y="313" type="curve" smooth="yes"/>
      <point x="351" y="313"/>
      <point x="373" y="291"/>
      <point x="371" y="267" type="curve" smooth="yes"/>
      <point x="367" y="214"/>
      <point x="362" y="138"/>
      <point x="287" y="139" type="curve" smooth="yes"/>
      <point x="210" y="140"/>
      <point x="224" y="164"/>
      <point x="246" y="327" type="curve" smooth="yes"/>
      <point x="271" y="515"/>
      <point x="286" y="551"/>
      <point x="380" y="551" type="curve" smooth="yes"/>
      <point x="466" y="551"/>
      <point x="488" y="551"/>
      <point x="548" y="551" type="curve"/>
      <point x="574" y="680" type="line"/>
      <point x="502" y="702"/>
      <point x="439" y="702"/>
    </contour>
  </outline>
</glyph>
<glyph name="seven" format="2">
  <advance width="548"/>
  <unicode hex="0037"/>
  <outline>
    <contour>
      <point x="505" y="690" type="curve" smooth="yes"/>
      <point x="67" y="690" type="line"/>
      <point x="54" y="519" type="line"/>
      <point x="346" y="519" type="line"/>
      <point x="323" y="493"/>
      <point x="306" y="468"/>
      <point x="294" y="442" type="curve" smooth="yes"/>
      <point x="72" y="0" type="line"/>
      <point x="285" y="0" type="line"/>
      <point x="578" y="585" type="line" smooth="yes"/>
      <point x="606" y="646"/>
      <point x="581" y="690"/>
    </contour>
  </outline>
</glyph>
<glyph name="eight" format="2">
  <advance width="634"/>
  <unicode hex="0038"/>
  <outline>
    <contour>
      <point x="356" y="704" type="curve" smooth="yes"/>
      <point x="162" y="704"/>
      <point x="99" y="650"/>
      <point x="83" y="526" type="curve" smooth="yes"/>
      <point x="72" y="440"/>
      <point x="94" y="373"/>
      <point x="172" y="360" type="curve"/>
      <point x="171" y="356" type="line"/>
      <point x="64" y="349"/>
      <point x="25" y="266"/>
      <point x="16" y="180" type="curve" smooth="yes"/>
      <point x="2" y="52"/>
      <point x="61" y="-15"/>
      <point x="294" y="-15" type="curve" smooth="yes"/>
      <point x="502" y="-15"/>
      <point x="559" y="36"/>
      <point x="577" y="164" type="curve" smooth="yes"/>
      <point x="590" y="256"/>
      <point x="578" y="345"/>
      <point x="473" y="356" type="curve"/>
      <point x="474" y="360" type="line"/>
      <point x="563" y="371"/>
      <point x="596" y="438"/>
      <point x="607" y="510" type="curve" smooth="yes"/>
      <point x="626" y="638"/>
      <point x="569" y="704"/>
    </contour>
    <contour>
      <point x="313" y="292" type="curve" smooth="yes"/>
      <point x="376" y="292"/>
      <point x="389" y="281"/>
      <point x="381" y="220" type="curve" smooth="yes"/>
      <point x="371" y="147"/>
      <point x="350" y="137"/>
      <point x="294" y="137" type="curve" smooth="yes"/>
      <point x="229" y="137"/>
      <point x="218" y="151"/>
      <point x="224" y="204" type="curve" smooth="yes"/>
      <point x="233" y="284"/>
      <point x="259" y="292"/>
    </contour>
    <contour>
      <point x="356" y="564" type="curve" smooth="yes"/>
      <point x="410" y="564"/>
      <point x="421" y="554"/>
      <point x="413" y="497" type="curve" smooth="yes"/>
      <point x="404" y="435"/>
      <point x="389" y="424"/>
      <point x="333" y="424" type="curve" smooth="yes"/>
      <point x="273" y="424"/>
      <point x="268" y="436"/>
      <point x="273" y="481" type="curve" smooth="yes"/>
      <point x="282" y="553"/>
      <point x="301" y="564"/>
    </contour>
  </outline>
</glyph>
<glyph name="nine" format="2">
  <advance width="605"/>
  <unicode hex="0039"/>
  <outline>
    <contour>
      <point x="345" y="700" type="curve" smooth="yes"/>
      <point x="121" y="700"/>
      <point x="76" y="634"/>
      <point x="51" y="460" type="curve" smooth="yes"/>
      <point x="37" y="364"/>
      <point x="55" y="232"/>
      <point x="225" y="232" type="curve" smooth="yes"/>
      <point x="309" y="232"/>
      <point x="386" y="261"/>
      <point x="459" y="380" type="curve"/>
      <point x="457" y="457" type="line"/>
      <point x="378" y="388"/>
      <point x="349" y="374"/>
      <point x="291" y="374" type="curve" smooth="yes"/>
      <point x="248" y="374"/>
      <point x="241" y="391"/>
      <point x="249" y="469" type="curve" smooth="yes"/>
      <point x="256" y="536"/>
      <point x="271" y="549"/>
      <point x="325" y="549" type="curve" smooth="yes"/>
      <point x="400" y="549"/>
      <point x="392" y="531"/>
      <point x="374" y="369" type="curve" smooth="yes"/>
      <point x="355" y="196"/>
      <point x="333" y="140"/>
      <point x="226" y="140" type="curve" smooth="yes"/>
      <point x="139" y="140"/>
      <point x="96" y="140"/>
      <point x="32" y="140" type="curve"/>
      <point x="18" y="9" type="line"/>
      <point x="102" y="-10"/>
      <point x="190" y="-14"/>
      <point x="237" y="-14" type="curve" smooth="yes"/>
      <point x="455" y="-14"/>
      <point x="539" y="62"/>
      <point x="577" y="341" type="curve" smooth="yes"/>
      <point x="616" y="622"/>
      <point x="563" y="700"/>
    </contour>
  </outline>
</glyph>
<glyph name="less" format="2">
  <advance width="503"/>
  <unicode hex="003C"/>
  <outline>
    <contour>
      <point x="494" y="542" type="line"/>
      <point x="38" y="384" type="line"/>
      <point x="16" y="223" type="line"/>
      <point x="429" y="66" type="line"/>
      <point x="450" y="228" type="line"/>
      <point x="204" y="305" type="line"/>
      <point x="472" y="374" type="line"/>
    </contour>
  </outline>
</glyph>
<glyph name="equal" format="2">
  <advance width="571"/>
  <unicode hex="003D"/>
  <outline>
    <contour>
      <point x="552" y="483" type="line"/>
      <point x="74" y="483" type="line"/>
      <point x="52" y="329" type="line"/>
      <point x="530" y="329" type="line"/>
    </contour>
    <contour>
      <point x="523" y="271" type="line"/>
      <point x="45" y="271" type="line"/>
      <point x="21" y="117" type="line"/>
      <point x="499" y="117" type="line"/>
    </contour>
  </outline>
</glyph>
<glyph name="greater" format="2">
  <advance width="500"/>
  <unicode hex="003E"/>
  <outline>
    <contour>
      <point x="77" y="541" type="line"/>
      <point x="58" y="389" type="line"/>
      <point x="300" y="310" type="line"/>
      <point x="35" y="231" type="line"/>
      <point x="12" y="64" type="line"/>
      <point x="465" y="223" type="line"/>
      <point x="487" y="384" type="line"/>
    </contour>
  </outline>
</glyph>
<glyph name="question" format="2">
  <advance width="540"/>
  <unicode hex="003F"/>
  <outline>
    <contour>
      <point x="337" y="712" type="curve" smooth="yes"/>
      <point x="201" y="712"/>
      <point x="160" y="701"/>
      <point x="75" y="685" type="curve"/>
      <point x="74" y="546" type="line"/>
      <point x="144" y="546"/>
      <point x="179" y="546"/>
      <point x="287" y="546" type="curve" smooth="yes"/>
      <point x="321" y="546"/>
      <point x="334" y="542"/>
      <point x="319" y="511" type="curve" smooth="yes"/>
      <point x="296" y="463"/>
      <point x="175" y="382"/>
      <point x="162" y="228" type="curve"/>
      <point x="326" y="228" type="line"/>
      <point x="373" y="389"/>
      <point x="533" y="408"/>
      <point x="553" y="549" type="curve" smooth="yes"/>
      <point x="568" y="659"/>
      <point x="497" y="712"/>
    </contour>
    <contour>
      <point x="257" y="185" type="curve" smooth="yes"/>
      <point x="217" y="185" type="line" smooth="yes"/>
      <point x="169" y="185"/>
      <point x="143" y="164"/>
      <point x="137" y="117" type="curve" smooth="yes"/>
      <point x="131" y="76" type="line" smooth="yes"/>
      <point x="126" y="27"/>
      <point x="149" y="0"/>
      <point x="201" y="0" type="curve" smooth="yes"/>
      <point x="242" y="0" type="line" smooth="yes"/>
      <point x="292" y="0"/>
      <point x="315" y="21"/>
      <point x="321" y="68" type="curve" smooth="yes"/>
      <point x="327" y="109" type="line" smooth="yes"/>
      <point x="334" y="159"/>
      <point x="305" y="185"/>
    </contour>
  </outline>
</glyph>
<glyph name="D" format="2">
  <advance width="700"/>
  <unicode hex="0044"/>
  <anchor x="279" y="-24" name="bottom"/>
  <anchor x="221" y="345" name="center"/>
  <anchor x="398" y="735" name="top"/>
  <outline>
    <contour>
      <point x="389" y="700" type="curve" smooth="yes"/>
      <point x="285" y="700"/>
      <point x="185" y="696"/>
      <point x="108" y="690" type="curve"/>
      <point x="192" y="544" type="line"/>
      <point x="246" y="543"/>
      <point x="306" y="543"/>
      <point x="382" y="543" type="curve" smooth="yes"/>
      <point x="459" y="543"/>
      <point x="466" y="508"/>
      <point x="446" y="353" type="curve" smooth="yes"/>
      <point x="424" y="180"/>
      <point x="386" y="147"/>
      <point x="318" y="147" type="curve" smooth="yes"/>
      <point x="241" y="147"/>
      <point x="159" y="149"/>
      <point x="114" y="154" type="curve"/>
      <point x="11" y="0" type="line"/>
      <point x="103" y="-6"/>
      <point x="200" y="-10"/>
      <point x="321" y="-10" type="curve" smooth="yes"/>
      <point x="555" y="-10"/>
      <point x="635" y="61"/>
      <point x="674" y="337" type="curve" smooth="yes"/>
      <point x="714" y="621"/>
      <point x="613" y="700"/>
    </contour>
    <contour>
      <point x="325" y="690" type="line"/>
      <point x="108" y="690" type="line"/>
      <point x="11" y="0" type="line"/>
      <point x="228" y="0" type="line"/>
    </contour>
  </outline>
</glyph>
<glyph name="E" format="2">
  <advance width="587"/>
  <unicode hex="0045"/>
  <guideline x="138" y="538" angle="0"/>
  <anchor x="271" y="0" name="bottom"/>
  <anchor x="525" y="8" name="ogonek"/>
  <anchor x="380" y="735" name="top"/>
  <outline>
    <contour>
      <point x="259" y="694" type="curve" smooth="yes"/>
      <point x="157" y="694"/>
      <point x="95" y="634"/>
      <point x="82" y="541" type="curve" smooth="yes"/>
      <point x="32" y="184" type="line" smooth="yes"/>
      <point x="18" y="75"/>
      <point x="73" y="-4"/>
      <point x="187" y="-4" type="curve" smooth="yes"/>
      <point x="295" y="-4"/>
      <point x="429" y="-5"/>
      <point x="525" y="8" type="curve"/>
      <point x="529" y="162" type="line"/>
      <point x="289" y="162" type="line" smooth="yes"/>
      <point x="260" y="162"/>
      <point x="248" y="175"/>
      <point x="252" y="201" type="curve" smooth="yes"/>
      <point x="292" y="488" type="line" smooth="yes"/>
      <point x="296" y="518"/>
      <point x="309" y="528"/>
      <point x="343" y="528" type="curve" smooth="yes"/>
      <point x="583" y="528" type="line"/>
      <point x="607" y="680" type="line"/>
      <point x="514" y="693"/>
      <point x="380" y="694"/>
    </contour>
    <contour>
      <point x="85" y="425" type="line"/>
      <point x="62" y="281" type="line"/>
      <point x="514" y="281" type="line"/>
      <point x="532" y="425" type="line"/>
    </contour>
  </outline>
</glyph>
<glyph name="F" format="2">
  <advance width="567"/>
  <unicode hex="0046"/>
  <outline>
    <contour>
      <point x="261" y="694" type="curve" smooth="yes"/>
      <point x="167" y="694"/>
      <point x="98" y="636"/>
      <point x="85" y="541" type="curve" smooth="yes"/>
      <point x="9" y="0" type="line"/>
      <point x="227" y="0" type="line"/>
      <point x="295" y="488" type="line" smooth="yes"/>
      <point x="299" y="518"/>
      <point x="313" y="528"/>
      <point x="349" y="528" type="curve" smooth="yes"/>
      <point x="579" y="528" type="line"/>
      <point x="603" y="679" type="line"/>
      <point x="511" y="693"/>
      <point x="380" y="694"/>
    </contour>
    <contour>
      <point x="85" y="411" type="line"/>
      <point x="64" y="267" type="line"/>
      <point x="507" y="267" type="line"/>
      <point x="525" y="411" type="line"/>
    </contour>
  </outline>
</glyph>
<glyph name="G" format="2">
  <advance width="670"/>
  <unicode hex="0047"/>
  <anchor x="272" y="-12" name="bottom"/>
  <anchor x="413" y="735" name="top"/>
  <outline>
    <contour>
      <point x="420" y="704" type="curve" smooth="yes"/>
      <point x="185" y="704"/>
      <point x="82" y="638"/>
      <point x="42" y="353" type="curve" smooth="yes"/>
      <point x="3" y="76"/>
      <point x="87" y="-14"/>
      <point x="223" y="-14" type="curve" smooth="yes"/>
      <point x="355" y="-14"/>
      <point x="434" y="89"/>
      <point x="465" y="126" type="curve"/>
      <point x="429" y="212" type="line"/>
      <point x="408" y="201"/>
      <point x="385" y="171"/>
      <point x="324" y="171" type="curve" smooth="yes"/>
      <point x="258" y="171"/>
      <point x="247" y="201"/>
      <point x="268" y="337" type="curve" smooth="yes"/>
      <point x="290" y="478"/>
      <point x="317" y="521"/>
      <point x="405" y="521" type="curve" smooth="yes"/>
      <point x="492" y="521"/>
      <point x="552" y="520"/>
      <point x="627" y="519" type="curve"/>
      <point x="651" y="674" type="line"/>
      <point x="580" y="696"/>
      <point x="502" y="704"/>
    </contour>
    <contour>
      <point x="648" y="397" type="line"/>
      <point x="441" y="397" type="line"/>
      <point x="406" y="144" type="line"/>
      <point x="422" y="107" type="line"/>
      <point x="433" y="0" type="line"/>
      <point x="592" y="0" type="line"/>
    </contour>
  </outline>
</glyph>
<glyph name="H" format="2">
  <advance width="705"/>
  <unicode hex="0048"/>
  <anchor x="311" y="0" name="bottom"/>
  <anchor x="359" y="345" name="center"/>
  <anchor x="409" y="735" name="top"/>
  <outline>
    <contour>
      <point x="326" y="690" type="line"/>
      <point x="109" y="690" type="line"/>
      <point x="12" y="0" type="line"/>
      <point x="229" y="0" type="line"/>
    </contour>
    <contour>
      <point x="467" y="443" type="line"/>
      <point x="283" y="443" type="line"/>
      <point x="262" y="289" type="line"/>
      <point x="445" y="289" type="line"/>
    </contour>
    <contour>
      <point x="708" y="690" type="line"/>
      <point x="491" y="690" type="line"/>
      <point x="394" y="0" type="line"/>
      <point x="611" y="0" type="line"/>
    </contour>
  </outline>
</glyph>
<glyph name="K" format="2">
  <advance width="668"/>
  <unicode hex="004B"/>
  <anchor x="312" y="0" name="bottom"/>
  <anchor x="398" y="735" name="top"/>
  <outline>
    <contour>
      <point x="725" y="690" type="line"/>
      <point x="485" y="690" type="line"/>
      <point x="269" y="353" type="line"/>
      <point x="400" y="0" type="line"/>
      <point x="634" y="0" type="line"/>
      <point x="514" y="269" type="line" smooth="yes"/>
      <point x="502" y="298"/>
      <point x="478" y="331"/>
      <point x="459" y="339" type="curve"/>
      <point x="460" y="343" type="line"/>
      <point x="481" y="351"/>
      <point x="511" y="369"/>
      <point x="532" y="402" type="curve" smooth="yes"/>
    </contour>
    <contour>
      <point x="327" y="690" type="line"/>
      <point x="109" y="690" type="line"/>
      <point x="12" y="0" type="line"/>
      <point x="230" y="0" type="line"/>
      <point x="261" y="221" type="line" smooth="yes"/>
      <point x="267" y="261"/>
      <point x="263" y="313"/>
      <point x="249" y="354" type="curve"/>
      <point x="278" y="400"/>
      <point x="294" y="452"/>
      <point x="300" y="499" type="curve" smooth="yes"/>
    </contour>
    <contour>
      <point x="340" y="428" type="line"/>
      <point x="227" y="428" type="line"/>
      <point x="208" y="288" type="line"/>
      <point x="321" y="288" type="line"/>
    </contour>
  </outline>
</glyph>
<glyph name="L" format="2">
  <advance width="552"/>
  <unicode hex="004C"/>
  <anchor x="279" y="0" name="bottom"/>
  <anchor x="225" y="735" name="top"/>
  <outline>
    <contour>
      <point x="323" y="690" type="line"/>
      <point x="105" y="690" type="line"/>
      <point x="31" y="157" type="line" smooth="yes"/>
      <point x="17" y="64"/>
      <point x="81" y="-4"/>
      <point x="181" y="-4" type="curve" smooth="yes"/>
      <point x="295" y="-4"/>
      <point x="420" y="-3"/>
      <point x="512" y="9" type="curve"/>
      <point x="516" y="172" type="line"/>
      <point x="288" y="172" type="line" smooth="yes"/>
      <point x="257" y="172"/>
      <point x="249" y="182"/>
      <point x="252" y="212" type="curve" smooth="yes"/>
    </contour>
  </outline>
</glyph>
<glyph name="N" format="2">
  <advance width="730"/>
  <unicode hex="004E"/>
  <anchor x="335" y="0" name="bottom"/>
  <anchor x="423" y="735" name="top"/>
  <outline>
    <contour>
      <point x="734" y="690" type="line"/>
      <point x="535" y="690" type="line"/>
      <point x="493" y="396" type="line" smooth="yes"/>
      <point x="488" y="357"/>
      <point x="487" y="324"/>
      <point x="491" y="279" type="curve"/>
      <point x="483" y="279" type="line"/>
      <point x="471" y="328"/>
      <point x="457" y="365"/>
      <point x="441" y="398" type="curve" smooth="yes"/>
      <point x="325" y="623" type="line" smooth="yes"/>
      <point x="306" y="663"/>
      <point x="294" y="690"/>
      <point x="249" y="690" type="curve" smooth="yes"/>
      <point x="177" y="690" type="line" smooth="yes"/>
      <point x="128" y="690"/>
      <point x="105" y="668"/>
      <point x="98" y="619" type="curve" smooth="yes"/>
      <point x="11" y="0" type="line"/>
      <point x="210" y="0" type="line"/>
      <point x="253" y="290" type="line" smooth="yes"/>
      <point x="259" y="334"/>
      <point x="260" y="375"/>
      <point x="259" y="418" type="curve"/>
      <point x="266" y="418" type="line"/>
      <point x="275" y="376"/>
      <point x="285" y="336"/>
      <point x="301" y="304" type="curve" smooth="yes"/>
      <point x="419" y="67" type="line" smooth="yes"/>
      <point x="438" y="26"/>
      <point x="451" y="0"/>
      <point x="496" y="0" type="curve" smooth="yes"/>
      <point x="568" y="0" type="line" smooth="yes"/>
      <point x="617" y="0"/>
      <point x="640" y="22"/>
      <point x="647" y="71" type="curve" smooth="yes"/>
    </contour>
  </outline>
</glyph>
<glyph name="Q" format="2">
  <advance width="700"/>
  <unicode hex="0051"/>
  <outline>
    <contour>
      <point x="389" y="704" type="curve" smooth="yes"/>
      <point x="174" y="704"/>
      <point x="80" y="634"/>
      <point x="41" y="353" type="curve" smooth="yes"/>
      <point x="2" y="69"/>
      <point x="83" y="-14"/>
      <point x="322" y="-14" type="curve" smooth="yes"/>
      <point x="539" y="-14"/>
      <point x="637" y="53"/>
      <point x="675" y="337" type="curve" smooth="yes"/>
      <point x="713" y="624"/>
      <point x="617" y="704"/>
    </contour>
    <contour>
      <point x="241" y="-27" type="curve"/>
      <point x="181" y="-130" type="line"/>
      <point x="251" y="-186"/>
      <point x="351" y="-237"/>
      <point x="482" y="-276" type="curve"/>
      <point x="560" y="-101" type="line"/>
      <point x="435" y="-82"/>
      <point x="336" y="-64"/>
    </contour>
    <contour>
      <point x="387" y="543" type="curve" smooth="yes"/>
      <point x="458" y="543"/>
      <point x="471" y="510"/>
      <point x="447" y="353" type="curve" smooth="yes"/>
      <point x="421" y="182"/>
      <point x="402" y="147"/>
      <point x="327" y="147" type="curve" smooth="yes"/>
      <point x="256" y="147"/>
      <point x="243" y="179"/>
      <point x="268" y="337" type="curve" smooth="yes"/>
      <point x="295" y="508"/>
      <point x="314" y="543"/>
    </contour>
  </outline>
</glyph>
<glyph name="R" format="2">
  <advance width="669"/>
  <unicode hex="0052"/>
  <anchor x="307" y="0" name="bottom"/>
  <anchor x="393" y="735" name="top"/>
  <outline>
    <contour>
      <point x="387" y="700" type="curve" smooth="yes"/>
      <point x="260" y="700"/>
      <point x="198" y="699"/>
      <point x="108" y="690" type="curve"/>
      <point x="110" y="541" type="line"/>
      <point x="143" y="545"/>
      <point x="242" y="547"/>
      <point x="385" y="547" type="curve" smooth="yes"/>
      <point x="434" y="547"/>
      <point x="447" y="532"/>
      <point x="440" y="484" type="curve" smooth="yes"/>
      <point x="430" y="419"/>
      <point x="414" y="405"/>
      <point x="355" y="405" type="curve" smooth="yes"/>
      <point x="81" y="405" type="line"/>
      <point x="65" y="257" type="line"/>
      <point x="127" y="253"/>
      <point x="180" y="253"/>
      <point x="334" y="252" type="curve" smooth="yes"/>
      <point x="364" y="252"/>
      <point x="373" y="247"/>
      <point x="374" y="209" type="curve" smooth="yes"/>
      <point x="392" y="0" type="line"/>
      <point x="616" y="0" type="line"/>
      <point x="590" y="208" type="line" smooth="yes"/>
      <point x="582" y="292"/>
      <point x="533" y="314"/>
      <point x="499" y="319" type="curve"/>
      <point x="500" y="326" type="line"/>
      <point x="612" y="337"/>
      <point x="645" y="403"/>
      <point x="656" y="482" type="curve" smooth="yes"/>
      <point x="678" y="647"/>
      <point x="579" y="700"/>
    </contour>
    <contour>
      <point x="320" y="690" type="line"/>
      <point x="108" y="690" type="line"/>
      <point x="11" y="0" type="line"/>
      <point x="223" y="0" type="line"/>
    </contour>
  </outline>
</glyph>
<glyph name="T" format="2">
  <advance width="618"/>
  <unicode hex="0054"/>
  <anchor x="263" y="-10" name="bottom"/>
  <anchor x="317" y="345" name="center"/>
  <anchor x="368" y="735" name="top"/>
  <outline>
    <contour>
      <point x="473" y="690" type="line"/>
      <point x="256" y="690" type="line"/>
      <point x="159" y="0" type="line"/>
      <point x="376" y="0" type="line"/>
    </contour>
    <contour>
      <point x="664" y="690" type="line"/>
      <point x="66" y="690" type="line"/>
      <point x="43" y="528" type="line"/>
      <point x="641" y="528" type="line"/>
    </contour>
  </outline>
</glyph>
<glyph name="V" format="2">
  <advance width="665"/>
  <unicode hex="0056"/>
  <outline>
    <contour>
      <point x="723" y="690" type="line"/>
      <point x="495" y="690" type="line"/>
      <point x="345" y="245" type="line" smooth="yes"/>
      <point x="335" y="217"/>
      <point x="327" y="189"/>
      <point x="322" y="159" type="curve"/>
      <point x="296" y="159" type="line"/>
      <point x="297" y="188"/>
      <point x="298" y="219"/>
      <point x="296" y="249" type="curve" smooth="yes"/>
      <point x="272" y="690" type="line"/>
      <point x="54" y="690" type="line"/>
      <point x="132" y="62" type="line" smooth="yes"/>
      <point x="136" y="27"/>
      <point x="164" y="0"/>
      <point x="201" y="0" type="curve" smooth="yes"/>
      <point x="390" y="0" type="line" smooth="yes"/>
      <point x="427" y="0"/>
      <point x="453" y="20"/>
      <point x="466" y="54" type="curve" smooth="yes"/>
    </contour>
  </outline>
</glyph>
<glyph name="Z" format="2">
  <advance width="598"/>
  <unicode hex="005A"/>
  <anchor x="268" y="-11" name="bottom"/>
  <anchor x="355" y="735" name="top"/>
  <outline>
    <contour>
      <point x="344" y="539" type="line"/>
      <point x="9" y="152" type="line"/>
      <point x="260" y="151" type="line"/>
      <point x="594" y="538" type="line"/>
    </contour>
    <contour>
      <point x="549" y="152" type="line"/>
      <point x="9" y="152" type="line"/>
      <point x="-11" y="0" type="line"/>
      <point x="528" y="0" type="line"/>
    </contour>
    <contour>
      <point x="615" y="690" type="line"/>
      <point x="96" y="690" type="line"/>
      <point x="75" y="538" type="line"/>
      <point x="594" y="538" type="line"/>
    </contour>
  </outline>
</glyph>
<glyph name="backslash" format="2">
  <advance width="581"/>
  <unicode hex="005C"/>
  <outline>
    <contour>
      <point x="226" y="690" type="line"/>
      <point x="70" y="690" type="line"/>
      <point x="360" y="-79" type="line"/>
      <point x="516" y="-79" type="line"/>
    </contour>
  </outline>
</glyph>
<glyph name="bracketright" format="2">
  <advance width="364"/>
  <unicode hex="005D"/>
  <outline>
    <contour>
      <point x="263" y="768" type="curve" smooth="yes"/>
      <point x="92" y="768" type="line"/>
      <point x="74" y="640" type="line"/>
      <point x="135" y="640" type="line" smooth="yes"/>
      <point x="149" y="640"/>
      <point x="155" y="633"/>
      <point x="153" y="617" type="curve" smooth="yes"/>
      <point x="64" y="-11" type="line" smooth="yes"/>
      <point x="61" y="-31"/>
      <point x="53" y="-37"/>
      <point x="33" y="-37" type="curve" smooth="yes"/>
      <point x="-21" y="-37" type="line"/>
      <point x="-39" y="-165" type="line"/>
      <point x="144" y="-165" type="line" smooth="yes"/>
      <point x="204" y="-165"/>
      <point x="244" y="-128"/>
      <point x="252" y="-68" type="curve" smooth="yes"/>
      <point x="355" y="663" type="line" smooth="yes"/>
      <point x="363" y="723"/>
      <point x="323" y="768"/>
    </contour>
  </outline>
</glyph>
<glyph name="asciicircum" format="2">
  <advance width="497"/>
  <unicode hex="005E"/>
  <outline>
    <contour>
      <point x="376" y="653" type="line"/>
      <point x="224" y="653" type="line"/>
      <point x="52" y="414" type="line"/>
      <point x="130" y="372" type="line"/>
      <point x="287" y="529" type="line"/>
      <point x="295" y="529" type="line"/>
      <point x="406" y="372" type="line"/>
      <point x="489" y="414" type="line"/>
    </contour>
  </outline>
</glyph>
<glyph name="b" format="2">
  <advance width="616"/>
  <unicode hex="0062"/>
  <outline>
    <contour>
      <point x="439" y="514" type="curve" smooth="yes"/>
      <point x="333" y="514"/>
      <point x="252" y="449"/>
      <point x="202" y="367" type="curve"/>
      <point x="229" y="300" type="line"/>
      <point x="268" y="327"/>
      <point x="300" y="351"/>
      <point x="345" y="351" type="curve" smooth="yes"/>
      <point x="377" y="351"/>
      <point x="381" y="334"/>
      <point x="370" y="263" type="curve" smooth="yes"/>
      <point x="354" y="158"/>
      <point x="332" y="132"/>
      <point x="280" y="129" type="curve" smooth="yes"/>
      <point x="251" y="127"/>
      <point x="198" y="133"/>
      <point x="180" y="141" type="curve"/>
      <point x="6" y="30" type="line"/>
      <point x="63" y="1"/>
      <point x="214" y="-12"/>
      <point x="290" y="-12" type="curve" smooth="yes"/>
      <point x="509" y="-12"/>
      <point x="563" y="117"/>
      <point x="583" y="248" type="curve" smooth="yes"/>
      <point x="610" y="427"/>
      <point x="562" y="514"/>
    </contour>
    <contour>
      <point x="311" y="700" type="line"/>
      <point x="100" y="700" type="line"/>
      <point x="6" y="30" type="line"/>
      <point x="216" y="20" type="line"/>
      <point x="275" y="422" type="line"/>
      <point x="257" y="430" type="line"/>
      <point x="280" y="482"/>
      <point x="290" y="528"/>
      <point x="295" y="577" type="curve" smooth="yes"/>
    </contour>
  </outline>
</glyph>
<glyph name="g" format="2">
  <advance width="618"/>
  <unicode hex="0067"/>
  <anchor x="365" y="553" name="top"/>
  <outline>
    <contour>
      <point x="397" y="500" type="line"/>
      <point x="343" y="125" type="line"/>
      <point x="376" y="113" type="line"/>
      <point x="358" y="79"/>
      <point x="359" y="43"/>
      <point x="336" y="8" type="curve" smooth="yes"/>
      <point x="304" y="-42"/>
      <point x="236" y="-56"/>
      <point x="141" y="-56" type="curve" smooth="yes"/>
      <point x="66" y="-56"/>
      <point x="45" y="-56"/>
      <point x="15" y="-56" type="curve"/>
      <point x="5" y="-169" type="line"/>
      <point x="74" y="-201"/>
      <point x="188" y="-204"/>
      <point x="228" y="-204" type="curve" smooth="yes"/>
      <point x="369" y="-204"/>
      <point x="513" y="-172"/>
      <point x="547" y="90" type="curve" smooth="yes"/>
      <point x="602" y="482" type="line"/>
    </contour>
    <contour>
      <point x="299" y="514" type="curve" smooth="yes"/>
      <point x="154" y="514"/>
      <point x="63" y="501"/>
      <point x="26" y="264" type="curve" smooth="yes"/>
      <point x="0" y="99"/>
      <point x="28" y="-9"/>
      <point x="173" y="-2" type="curve" smooth="yes"/>
      <point x="296" y="4"/>
      <point x="388" y="80"/>
      <point x="419" y="221" type="curve"/>
      <point x="385" y="277" type="line"/>
      <point x="356" y="210"/>
      <point x="305" y="157"/>
      <point x="263" y="149" type="curve" smooth="yes"/>
      <point x="228" y="142"/>
      <point x="222" y="168"/>
      <point x="240" y="270" type="curve" smooth="yes"/>
      <point x="254" y="352"/>
      <point x="265" y="377"/>
      <point x="331" y="377" type="curve" smooth="yes"/>
      <point x="378" y="377"/>
      <point x="405" y="377"/>
      <point x="440" y="376" type="curve"/>
      <point x="602" y="482" type="line"/>
      <point x="555" y="496"/>
      <point x="433" y="514"/>
    </contour>
  </outline>
</glyph>
<glyph name="i" format="2">
  <advance width="304"/>
  <unicode hex="0069"/>
  <anchor x="110" y="-5" name="bottom"/>
  <anchor x="198" y="0" name="ogonek"/>
  <anchor x="183" y="547" name="top"/>
  <outline>
    <contour>
      <point x="285" y="500" type="line"/>
      <point x="76" y="500" type="line"/>
      <point x="7" y="0" type="line"/>
      <point x="216" y="0" type="line"/>
    </contour>
    <contour>
      <point x="250" y="729" type="curve" smooth="yes"/>
      <point x="169" y="729" type="line" smooth="yes"/>
      <point x="126" y="729"/>
      <point x="104" y="711"/>
      <point x="100" y="671" type="curve" smooth="yes"/>
      <point x="93" y="620" type="line" smooth="yes"/>
      <point x="88" y="575"/>
      <point x="107" y="554"/>
      <point x="152" y="554" type="curve" smooth="yes"/>
      <point x="234" y="554" type="line" smooth="yes"/>
      <point x="277" y="554"/>
      <point x="298" y="572"/>
      <point x="303" y="612" type="curve" smooth="yes"/>
      <point x="310" y="663" type="line" smooth="yes"/>
      <point x="315" y="708"/>
      <point x="295" y="729"/>
    </contour>
  </outline>
</glyph>
<glyph name="j" format="2">
  <advance width="306"/>
  <unicode hex="006A"/>
  <outline>
    <contour>
      <point x="289" y="500" type="line"/>
      <point x="79" y="500" type="line"/>
      <point x="16" y="62" type="line" smooth="yes"/>
      <point x="8" y="5"/>
      <point x="-16" y="-42"/>
      <point x="-73" y="-95" type="curve"/>
      <point x="42" y="-192" type="line"/>
      <point x="144" y="-151"/>
      <point x="211" y="-50"/>
      <point x="224" y="54" type="curve" smooth="yes"/>
    </contour>
    <contour>
      <point x="250" y="729" type="curve" smooth="yes"/>
      <point x="171" y="729" type="line" smooth="yes"/>
      <point x="127" y="729"/>
      <point x="104" y="711"/>
      <point x="99" y="671" type="curve" smooth="yes"/>
      <point x="92" y="620" type="line" smooth="yes"/>
      <point x="87" y="575"/>
      <point x="106" y="554"/>
      <point x="152" y="554" type="curve" smooth="yes"/>
      <point x="231" y="554" type="line" smooth="yes"/>
      <point x="274" y="554"/>
      <point x="297" y="572"/>
      <point x="302" y="612" type="curve" smooth="yes"/>
      <point x="309" y="663" type="line" smooth="yes"/>
      <point x="315" y="708"/>
      <point x="296" y="729"/>
    </contour>
  </outline>
</glyph>
<glyph name="k" format="2">
  <advance width="609"/>
  <unicode hex="006B"/>
  <guideline x="463" y="273" angle="90"/>
  <anchor x="284" y="0" name="bottom"/>
  <outline>
    <contour>
      <point x="311" y="700" type="line"/>
      <point x="101" y="700" type="line"/>
      <point x="3" y="0" type="line"/>
      <point x="213" y="0" type="line"/>
      <point x="233" y="139" type="line" smooth="yes"/>
      <point x="238" y="187"/>
      <point x="233" y="258"/>
      <point x="230" y="306" type="curve"/>
      <point x="252" y="347"/>
      <point x="266" y="386"/>
      <point x="273" y="428" type="curve" smooth="yes"/>
    </contour>
    <contour>
      <point x="604" y="500" type="curve"/>
      <point x="388" y="500" type="line"/>
      <point x="368" y="406"/>
      <point x="279" y="319"/>
      <point x="183" y="284" type="curve"/>
      <point x="203" y="160" type="line"/>
      <point x="360" y="206"/>
      <point x="554" y="281"/>
    </contour>
    <contour>
      <point x="393" y="279" type="curve"/>
      <point x="259" y="230" type="line"/>
      <point x="365" y="0" type="line"/>
      <point x="580" y="0" type="line"/>
      <point x="489" y="189" type="line" smooth="yes"/>
      <point x="473" y="225"/>
      <point x="445" y="259"/>
    </contour>
  </outline>
</glyph>
<glyph name="m" format="2">
  <advance width="884"/>
  <unicode hex="006D"/>
  <guideline x="594" y="168" angle="82"/>
  <anchor x="404" y="-5" name="bottom"/>
  <outline>
    <contour>
      <point x="236" y="500" type="line"/>
      <point x="73" y="500" type="line"/>
      <point x="3" y="0" type="line"/>
      <point x="212" y="0" type="line"/>
      <point x="265" y="386" type="line"/>
      <point x="245" y="398" type="line"/>
    </contour>
    <contour>
      <point x="424" y="514" type="curve" smooth="yes"/>
      <point x="338" y="514"/>
      <point x="275" y="472"/>
      <point x="191" y="374" type="curve"/>
      <point x="227" y="289" type="line"/>
      <point x="276" y="327"/>
      <point x="306" y="337"/>
      <point x="327" y="337" type="curve" smooth="yes"/>
      <point x="341" y="337"/>
      <point x="350" y="333"/>
      <point x="346" y="311" type="curve" smooth="yes"/>
      <point x="303" y="0" type="line"/>
      <point x="504" y="0" type="line"/>
      <point x="556" y="370" type="line" smooth="yes"/>
      <point x="569" y="462"/>
      <point x="521" y="514"/>
    </contour>
    <contour>
      <point x="721" y="514" type="curve" smooth="yes"/>
      <point x="635" y="514"/>
      <point x="571" y="473"/>
      <point x="487" y="374" type="curve"/>
      <point x="524" y="289" type="line"/>
      <point x="570" y="327"/>
      <point x="600" y="337"/>
      <point x="619" y="337" type="curve" smooth="yes"/>
      <point x="631" y="337"/>
      <point x="641" y="333"/>
      <point x="638" y="311" type="curve" smooth="yes"/>
      <point x="595" y="0" type="line"/>
      <point x="803" y="0" type="line"/>
      <point x="855" y="370" type="line" smooth="yes"/>
      <point x="868" y="460"/>
      <point x="821" y="514"/>
    </contour>
  </outline>
</glyph>
<glyph name="p" format="2">
  <advance width="615"/>
  <unicode hex="0070"/>
  <outline>
    <contour>
      <point x="440" y="512" type="curve" smooth="yes"/>
      <point x="322" y="512"/>
      <point x="228" y="407"/>
      <point x="202" y="367" type="curve"/>
      <point x="240" y="287" type="line"/>
      <point x="264" y="321"/>
      <point x="311" y="351"/>
      <point x="343" y="351" type="curve" smooth="yes"/>
      <point x="374" y="351"/>
      <point x="379" y="327"/>
      <point x="365" y="230" type="curve" smooth="yes"/>
      <point x="351" y="134"/>
      <point x="343" y="113"/>
      <point x="277" y="113" type="curve" smooth="yes"/>
      <point x="211" y="113"/>
      <point x="178" y="113"/>
      <point x="132" y="113" type="curve"/>
      <point x="112" y="35" type="line"/>
      <point x="159" y="-2"/>
      <point x="284" y="-14"/>
      <point x="347" y="-14" type="curve" smooth="yes"/>
      <point x="466" y="-14"/>
      <point x="553" y="29"/>
      <point x="580" y="236" type="curve" smooth="yes"/>
      <point x="603" y="417"/>
      <point x="554" y="512"/>
    </contour>
    <contour>
      <point x="239" y="500" type="line"/>
      <point x="72" y="500" type="line"/>
      <point x="-22" y="-180" type="line"/>
      <point x="188" y="-180" type="line"/>
      <point x="202" y="-94" type="line" smooth="yes"/>
      <point x="208" y="-56"/>
      <point x="210" y="-22"/>
      <point x="209" y="11" type="curve"/>
      <point x="220" y="27" type="line"/>
      <point x="261" y="358" type="line"/>
      <point x="239" y="374" type="line"/>
    </contour>
  </outline>
</glyph>
<glyph name="u" format="2">
  <advance width="613"/>
  <unicode hex="0075"/>
  <guideline x="323" y="189" angle="82"/>
  <anchor x="267" y="-19" name="bottom"/>
  <anchor x="529" y="0" name="ogonek"/>
  <anchor x="343" y="558" name="top"/>
  <outline>
    <contour>
      <point x="280" y="500" type="line"/>
      <point x="69" y="500" type="line"/>
      <point x="18" y="130" type="line" smooth="yes"/>
      <point x="5" y="38"/>
      <point x="53" y="-14"/>
      <point x="157" y="-14" type="curve" smooth="yes"/>
      <point x="237" y="-14"/>
      <point x="313" y="28"/>
      <point x="401" y="126" type="curve"/>
      <point x="365" y="212" type="line"/>
      <point x="316" y="174"/>
      <point x="290" y="162"/>
      <point x="258" y="162" type="curve" smooth="yes"/>
      <point x="243" y="162"/>
      <point x="232" y="167"/>
      <point x="235" y="189" type="curve" smooth="yes"/>
    </contour>
    <contour>
      <point x="598" y="500" type="line"/>
      <point x="390" y="500" type="line"/>
      <point x="340" y="146" type="line"/>
      <point x="359" y="134" type="line"/>
      <point x="365" y="0" type="line"/>
      <point x="529" y="0" type="line"/>
    </contour>
  </outline>
</glyph>
<glyph name="w" format="2">
  <advance width="925"/>
  <unicode hex="0077"/>
  <anchor x="491" y="546" name="top"/>
  <outline>
    <contour>
      <point x="254" y="501" type="line"/>
      <point x="41" y="501" type="line"/>
      <point x="57" y="56" type="line" smooth="yes"/>
      <point x="59" y="25"/>
      <point x="83" y="0"/>
      <point x="116" y="0" type="curve" smooth="yes"/>
      <point x="226" y="0" type="line" smooth="yes"/>
      <point x="327" y="0"/>
      <point x="394" y="5"/>
      <point x="431" y="142" type="curve" smooth="yes"/>
      <point x="439" y="173"/>
      <point x="447" y="214"/>
      <point x="454" y="253" type="curve" smooth="yes"/>
      <point x="464" y="308"/>
      <point x="471" y="359"/>
      <point x="473" y="376" type="curve"/>
      <point x="485" y="376" type="line"/>
      <point x="483" y="56" type="line" smooth="yes"/>
      <point x="483" y="25"/>
      <point x="508" y="0"/>
      <point x="542" y="0" type="curve" smooth="yes"/>
      <point x="619" y="0" type="line" smooth="yes"/>
      <point x="760" y="0"/>
      <point x="802" y="37"/>
      <point x="839" y="128" type="curve" smooth="yes"/>
      <point x="858" y="174"/>
      <point x="874" y="232"/>
      <point x="888" y="294" type="curve" smooth="yes"/>
      <point x="903" y="359"/>
      <point x="914" y="430"/>
      <point x="922" y="500" type="curve"/>
      <point x="714" y="500" type="line"/>
      <point x="709" y="428"/>
      <point x="703" y="374"/>
      <point x="695" y="322" type="curve" smooth="yes"/>
      <point x="689" y="285"/>
      <point x="684" y="249"/>
      <point x="675" y="208" type="curve" smooth="yes"/>
      <point x="665" y="162"/>
      <point x="662" y="130"/>
      <point x="637" y="130" type="curve" smooth="yes"/>
      <point x="630" y="130" type="line"/>
      <point x="627" y="447" type="line" smooth="yes"/>
      <point x="626" y="477"/>
      <point x="602" y="500"/>
      <point x="570" y="500" type="curve" smooth="yes"/>
      <point x="398" y="500" type="line" smooth="yes"/>
      <point x="356" y="500"/>
      <point x="339" y="470"/>
      <point x="336" y="448" type="curve" smooth="yes"/>
      <point x="326" y="384"/>
      <point x="320" y="331"/>
      <point x="312" y="287" type="curve" smooth="yes"/>
      <point x="306" y="250"/>
      <point x="300" y="220"/>
      <point x="294" y="196" type="curve" smooth="yes"/>
      <point x="283" y="151"/>
      <point x="272" y="130"/>
      <point x="252" y="130" type="curve" smooth="yes"/>
      <point x="246" y="130" type="line"/>
    </contour>
  </outline>
</glyph>
<glyph name="x" format="2">
  <advance width="604"/>
  <unicode hex="0078"/>
  <outline>
    <contour>
      <point x="233" y="500" type="line"/>
      <point x="39" y="500" type="line"/>
      <point x="136" y="255" type="line"/>
      <point x="-45" y="0" type="line"/>
      <point x="171" y="0" type="line"/>
      <point x="331" y="238" type="line"/>
    </contour>
    <contour>
      <point x="409" y="316" type="line"/>
      <point x="203" y="316" type="line"/>
      <point x="188" y="198" type="line"/>
      <point x="393" y="198" type="line"/>
    </contour>
    <contour>
      <point x="627" y="500" type="line"/>
      <point x="417" y="500" type="line"/>
      <point x="263" y="273" type="line"/>
      <point x="367" y="0" type="line"/>
      <point x="564" y="0" type="line"/>
      <point x="458" y="255" type="line"/>
    </contour>
  </outline>
</glyph>
<glyph name="y" format="2">
  <advance width="622"/>
  <unicode hex="0079"/>
  <anchor x="530" y="-19" name="bottom"/>
  <anchor x="338" y="547" name="top"/>
  <outline>
    <contour>
      <point x="629" y="500" type="curve"/>
      <point x="404" y="500" type="line"/>
      <point x="378" y="319"/>
      <point x="347" y="202"/>
      <point x="290" y="88" type="curve" smooth="yes"/>
      <point x="218" y="-56"/>
      <point x="150" y="-59"/>
      <point x="53" y="-93" type="curve"/>
      <point x="66" y="-206" type="line"/>
      <point x="235" y="-215"/>
      <point x="360" y="-141"/>
      <point x="455" y="8" type="curve" smooth="yes"/>
      <point x="494" y="69"/>
      <point x="604" y="316"/>
    </contour>
    <contour>
      <point x="260" y="500" type="line"/>
      <point x="30" y="500" type="line"/>
      <point x="92" y="53" type="line" smooth="yes"/>
      <point x="96" y="23"/>
      <point x="121" y="0"/>
      <point x="154" y="0" type="curve" smooth="yes"/>
      <point x="299" y="0" type="line"/>
      <point x="340" y="126" type="line"/>
      <point x="284" y="126" type="line" smooth="yes"/>
      <point x="275" y="126"/>
      <point x="268" y="133"/>
      <point x="268" y="142" type="curve" smooth="yes"/>
    </contour>
  </outline>
</glyph>
<glyph name="braceleft" format="2">
  <advance width="366"/>
  <unicode hex="007B"/>
  <outline>
    <contour>
      <point x="396" y="767" type="line"/>
      <point x="214" y="797"/>
      <point x="133" y="729"/>
      <point x="119" y="626" type="curve" smooth="yes"/>
      <point x="96" y="461" type="line" smooth="yes"/>
      <point x="88" y="409"/>
      <point x="74" y="406"/>
      <point x="35" y="394" type="curve"/>
      <point x="19" y="264" type="line"/>
      <point x="52" y="250"/>
      <point x="70" y="250"/>
      <point x="64" y="207" type="curve" smooth="yes"/>
      <point x="33" y="-15" type="line" smooth="yes"/>
      <point x="18" y="-118"/>
      <point x="90" y="-196"/>
      <point x="284" y="-166" type="curve"/>
      <point x="290" y="-37" type="line"/>
      <point x="244" y="-37"/>
      <point x="232" y="-22"/>
      <point x="236" y="5" type="curve" smooth="yes"/>
      <point x="260" y="179" type="line" smooth="yes"/>
      <point x="270" y="249"/>
      <point x="245" y="302"/>
      <point x="161" y="326" type="curve"/>
      <point x="263" y="340"/>
      <point x="287" y="388"/>
      <point x="297" y="473" type="curve" smooth="yes"/>
      <point x="315" y="598" type="line" smooth="yes"/>
      <point x="319" y="637"/>
      <point x="338" y="640"/>
      <point x="380" y="640" type="curve"/>
    </contour>
  </outline>
</glyph>
<glyph name="bar" format="2">
  <advance width="276"/>
  <unicode hex="007C"/>
  <outline>
    <contour>
      <point x="280" y="781" type="line"/>
      <point x="134" y="781" type="line"/>
      <point x="0" y="-169" type="line"/>
      <point x="146" y="-169" type="line"/>
    </contour>
  </outline>
</glyph>
<glyph name="exclamdown" format="2">
  <advance width="312"/>
  <unicode hex="00A1"/>
  <outline>
    <contour>
      <point x="238" y="293" type="line"/>
      <point x="74" y="293" type="line"/>
      <point x="19" y="59" type="line"/>
      <point x="-13" y="-175" type="line"/>
      <point x="195" y="-175" type="line"/>
      <point x="227" y="59" type="line"/>
    </contour>
    <contour>
      <point x="202" y="520" type="curve" smooth="yes"/>
      <point x="162" y="520" type="line" smooth="yes"/>
      <point x="114" y="520"/>
      <point x="88" y="499"/>
      <point x="81" y="452" type="curve" smooth="yes"/>
      <point x="76" y="411" type="line" smooth="yes"/>
      <point x="70" y="362"/>
      <point x="93" y="335"/>
      <point x="145" y="335" type="curve" smooth="yes"/>
      <point x="185" y="335" type="line" smooth="yes"/>
      <point x="236" y="335"/>
      <point x="259" y="356"/>
      <point x="265" y="403" type="curve" smooth="yes"/>
      <point x="271" y="444" type="line" smooth="yes"/>
      <point x="278" y="494"/>
      <point x="249" y="520"/>
    </contour>
  </outline>
</glyph>
<glyph name="yen" format="2">
  <advance width="705"/>
  <unicode hex="00A5"/>
  <outline>
    <contour>
      <point x="741" y="690" type="line"/>
      <point x="510" y="690" type="line"/>
      <point x="394" y="467" type="line" smooth="yes"/>
      <point x="378" y="434"/>
      <point x="367" y="396"/>
      <point x="364" y="368" type="curve"/>
      <point x="349" y="368" type="line"/>
      <point x="350" y="399"/>
      <point x="351" y="429"/>
      <point x="343" y="469" type="curve" smooth="yes"/>
      <point x="290" y="690" type="line"/>
      <point x="74" y="690" type="line"/>
      <point x="236" y="206" type="line"/>
      <point x="444" y="205" type="line"/>
    </contour>
    <contour>
      <point x="463" y="328" type="line"/>
      <point x="246" y="328" type="line"/>
      <point x="200" y="0" type="line"/>
      <point x="418" y="0" type="line"/>
    </contour>
    <contour>
      <point x="594" y="228" type="line"/>
      <point x="87" y="228" type="line"/>
      <point x="75" y="128" type="line"/>
      <point x="580" y="128" type="line"/>
    </contour>
    <contour>
      <point x="612" y="358" type="line"/>
      <point x="105" y="358" type="line"/>
      <point x="93" y="258" type="line"/>
      <point x="598" y="258" type="line"/>
    </contour>
  </outline>
</glyph>
<glyph name="brokenbar" format="2">
  <advance width="279"/>
  <unicode hex="00A6"/>
  <outline>
    <contour>
      <point x="282" y="781" type="line"/>
      <point x="136" y="781" type="line"/>
      <point x="79" y="381" type="line"/>
      <point x="225" y="381" type="line"/>
    </contour>
    <contour>
      <point x="204" y="231" type="line"/>
      <point x="58" y="231" type="line"/>
      <point x="2" y="-169" type="line"/>
      <point x="148" y="-169" type="line"/>
    </contour>
  </outline>
</glyph>
<glyph name="section" format="2">
  <advance width="540"/>
  <unicode hex="00A7"/>
  <outline>
    <contour>
      <point x="61" y="334" type="line"/>
      <point x="-2" y="213"/>
      <point x="6" y="136"/>
      <point x="118" y="77" type="curve" smooth="yes"/>
      <point x="212" y="22" type="line" smooth="yes"/>
      <point x="231" y="11"/>
      <point x="239" y="1"/>
      <point x="236" y="-15" type="curve" smooth="yes"/>
      <point x="231" y="-42"/>
      <point x="201" y="-45"/>
      <point x="141" y="-45" type="curve" smooth="yes"/>
      <point x="92" y="-45"/>
      <point x="45" y="-43"/>
      <point x="7" y="-43" type="curve"/>
      <point x="-15" y="-184" type="line"/>
      <point x="51" y="-193"/>
      <point x="164" y="-197"/>
      <point x="217" y="-197" type="curve" smooth="yes"/>
      <point x="361" y="-197"/>
      <point x="442" y="-168"/>
      <point x="460" y="-39" type="curve" smooth="yes"/>
      <point x="478" y="84"/>
      <point x="412" y="115"/>
      <point x="384" y="134" type="curve" smooth="yes"/>
      <point x="262" y="210" type="line" smooth="yes"/>
      <point x="204" y="247"/>
      <point x="197" y="254"/>
      <point x="206" y="326" type="curve"/>
    </contour>
    <contour>
      <point x="314" y="704" type="curve" smooth="yes"/>
      <point x="196" y="704"/>
      <point x="85" y="682"/>
      <point x="68" y="545" type="curve" smooth="yes"/>
      <point x="56" y="451"/>
      <point x="103" y="410"/>
      <point x="145" y="379" type="curve" smooth="yes"/>
      <point x="267" y="297" type="line" smooth="yes"/>
      <point x="325" y="258"/>
      <point x="332" y="253"/>
      <point x="323" y="181" type="curve"/>
      <point x="468" y="173" type="line"/>
      <point x="531" y="294"/>
      <point x="523" y="371"/>
      <point x="411" y="430" type="curve" smooth="yes"/>
      <point x="328" y="478" type="line" smooth="yes"/>
      <point x="297" y="496"/>
      <point x="292" y="510"/>
      <point x="293" y="522" type="curve" smooth="yes"/>
      <point x="294" y="546"/>
      <point x="315" y="551"/>
      <point x="366" y="551" type="curve" smooth="yes"/>
      <point x="482" y="552"/>
      <point x="494" y="552"/>
      <point x="522" y="550" type="curve"/>
      <point x="544" y="692" type="line"/>
      <point x="475" y="700"/>
      <point x="364" y="704"/>
    </contour>
  </outline>
</glyph>
<glyph name="dieresis" format="2">
  <advance width="436"/>
  <unicode hex="00A8"/>
  <anchor x="262" y="551" name="_top"/>
  <outline>
    <contour>
      <point x="228" y="720" type="curve" smooth="yes"/>
      <point x="151" y="720" type="line" smooth="yes"/>
      <point x="126" y="720"/>
      <point x="116" y="710"/>
      <point x="112" y="685" type="curve" smooth="yes"/>
      <point x="101" y="612" type="line" smooth="yes"/>
      <point x="98" y="590"/>
      <point x="108" y="579"/>
      <point x="131" y="579" type="curve" smooth="yes"/>
      <point x="212" y="579" type="line" smooth="yes"/>
      <point x="235" y="579"/>
      <point x="244" y="588"/>
      <point x="247" y="611" type="curve" smooth="yes"/>
      <point x="258" y="687" type="line" smooth="yes"/>
      <point x="261" y="709"/>
      <point x="252" y="720"/>
    </contour>
    <contour>
      <point x="417" y="720" type="curve" smooth="yes"/>
      <point x="337" y="720" type="line" smooth="yes"/>
      <point x="315" y="720"/>
      <point x="305" y="711"/>
      <point x="301" y="686" type="curve" smooth="yes"/>
      <point x="290" y="612" type="line" smooth="yes"/>
      <point x="287" y="590"/>
      <point x="297" y="579"/>
      <point x="320" y="579" type="curve" smooth="yes"/>
      <point x="401" y="579" type="line" smooth="yes"/>
      <point x="424" y="579"/>
      <point x="432" y="588"/>
      <point x="436" y="612" type="curve" smooth="yes"/>
      <point x="447" y="687" type="line" smooth="yes"/>
      <point x="450" y="709"/>
      <point x="440" y="720"/>
    </contour>
  </outline>
</glyph>
<glyph name="copyright" format="2">
  <advance width="787"/>
  <unicode hex="00A9"/>
  <outline>
    <contour>
      <point x="430" y="704" type="curve" smooth="yes"/>
      <point x="215" y="704"/>
      <point x="62" y="572"/>
      <point x="38" y="353" type="curve" smooth="yes"/>
      <point x="13" y="119"/>
      <point x="156" y="-14"/>
      <point x="374" y="-14" type="curve" smooth="yes"/>
      <point x="596" y="-14"/>
      <point x="742" y="124"/>
      <point x="764" y="337" type="curve" smooth="yes"/>
      <point x="787" y="560"/>
      <point x="654" y="704"/>
    </contour>
    <contour>
      <point x="432" y="541" type="curve" smooth="yes"/>
      <point x="288" y="541"/>
      <point x="231" y="496"/>
      <point x="213" y="354" type="curve" smooth="yes"/>
      <point x="194" y="203"/>
      <point x="247" y="150"/>
      <point x="399" y="150" type="curve" smooth="yes"/>
      <point x="446" y="150"/>
      <point x="489" y="155"/>
      <point x="535" y="170" type="curve"/>
      <point x="526" y="279" type="line"/>
      <point x="492" y="276"/>
      <point x="432" y="274"/>
      <point x="400" y="276" type="curve" smooth="yes"/>
      <point x="369" y="278"/>
      <point x="362" y="287"/>
      <point x="369" y="348" type="curve" smooth="yes"/>
      <point x="375" y="405"/>
      <point x="385" y="416"/>
      <point x="417" y="416" type="curve" smooth="yes"/>
      <point x="472" y="416"/>
      <point x="502" y="415"/>
      <point x="549" y="416" type="curve"/>
      <point x="564" y="524" type="line"/>
      <point x="524" y="535"/>
      <point x="485" y="541"/>
    </contour>
    <contour>
      <point x="433" y="611" type="curve" smooth="yes"/>
      <point x="598" y="611"/>
      <point x="678" y="512"/>
      <point x="664" y="353" type="curve" smooth="yes"/>
      <point x="648" y="176"/>
      <point x="532" y="79"/>
      <point x="369" y="79" type="curve" smooth="yes"/>
      <point x="201" y="79"/>
      <point x="125" y="181"/>
      <point x="138" y="337" type="curve" smooth="yes"/>
      <point x="153" y="509"/>
      <point x="265" y="611"/>
    </contour>
  </outline>
</glyph>
<glyph name="ordfeminine" format="2">
  <advance width="449"/>
  <unicode hex="00AA"/>
  <outline>
    <contour>
      <point x="281" y="618" type="curve" smooth="yes"/>
      <point x="154" y="618"/>
      <point x="75" y="609"/>
      <point x="52" y="454" type="curve" smooth="yes"/>
      <point x="35" y="339"/>
      <point x="51" y="265"/>
      <point x="159" y="272" type="curve" smooth="yes"/>
      <point x="240" y="278"/>
      <point x="293" y="329"/>
      <point x="313" y="425" type="curve"/>
      <point x="291" y="462" type="line"/>
      <point x="278" y="422"/>
      <point x="241" y="384"/>
      <point x="220" y="382" type="curve" smooth="yes"/>
      <point x="197" y="380"/>
      <point x="199" y="394"/>
      <point x="208" y="457" type="curve" smooth="yes"/>
      <point x="218" y="518"/>
      <point x="239" y="525"/>
      <point x="261" y="525" type="curve" smooth="yes"/>
      <point x="292" y="525"/>
      <point x="306" y="525"/>
      <point x="326" y="524" type="curve"/>
      <point x="445" y="597" type="line"/>
      <point x="422" y="607"/>
      <point x="357" y="619"/>
    </contour>
    <contour>
      <point x="300" y="609" type="line"/>
      <point x="264" y="362" type="line"/>
      <point x="282" y="351" type="line"/>
      <point x="284" y="280" type="line"/>
      <point x="400" y="280" type="line"/>
      <point x="445" y="597" type="line"/>
    </contour>
  </outline>
</glyph>
<glyph name="logicalnot" format="2">
  <advance width="569"/>
  <unicode hex="00AC"/>
  <outline>
    <contour>
      <point x="534" y="387" type="line"/>
      <point x="54" y="387" type="line"/>
      <point x="31" y="233" type="line"/>
      <point x="511" y="233" type="line"/>
    </contour>
    <contour>
      <point x="534" y="387" type="line"/>
      <point x="368" y="379" type="line"/>
      <point x="332" y="138" type="line"/>
      <point x="498" y="138" type="line"/>
    </contour>
  </outline>
</glyph>
<glyph name="degree" format="2">
  <advance width="332"/>
  <unicode hex="00B0"/>
  <outline>
    <contour>
      <point x="210" y="698" type="curve" smooth="yes"/>
      <point x="123" y="698"/>
      <point x="70" y="645"/>
      <point x="60" y="570" type="curve" smooth="yes"/>
      <point x="48" y="482"/>
      <point x="113" y="425"/>
      <point x="194" y="425" type="curve" smooth="yes"/>
      <point x="279" y="425"/>
      <point x="337" y="475"/>
      <point x="347" y="554" type="curve" smooth="yes"/>
      <point x="358" y="641"/>
      <point x="288" y="698"/>
    </contour>
    <contour>
      <point x="206" y="610" type="curve" smooth="yes"/>
      <point x="238" y="610"/>
      <point x="254" y="589"/>
      <point x="251" y="560" type="curve" smooth="yes"/>
      <point x="248" y="530"/>
      <point x="228" y="513"/>
      <point x="200" y="513" type="curve" smooth="yes"/>
      <point x="170" y="513"/>
      <point x="152" y="532"/>
      <point x="156" y="564" type="curve" smooth="yes"/>
      <point x="159" y="590"/>
      <point x="175" y="610"/>
    </contour>
  </outline>
</glyph>
<glyph name="plusminus" format="2">
  <advance width="555"/>
  <unicode hex="00B1"/>
  <outline>
    <contour>
      <point x="395" y="573" type="line"/>
      <point x="242" y="573" type="line"/>
      <point x="190" y="204" type="line"/>
      <point x="342" y="204" type="line"/>
    </contour>
    <contour>
      <point x="496" y="174" type="line"/>
      <point x="28" y="174" type="line"/>
      <point x="5" y="19" type="line"/>
      <point x="474" y="19" type="line"/>
    </contour>
    <contour>
      <point x="538" y="465" type="line"/>
      <point x="69" y="465" type="line"/>
      <point x="47" y="311" type="line"/>
      <point x="515" y="311" type="line"/>
    </contour>
  </outline>
</glyph>
<glyph name="threesuperior" format="2">
  <advance width="411"/>
  <unicode hex="00B3"/>
  <outline>
    <contour>
      <point x="278" y="783" type="curve" smooth="yes"/>
      <point x="227" y="783"/>
      <point x="173" y="779"/>
      <point x="116" y="771" type="curve"/>
      <point x="104" y="662" type="line"/>
      <point x="139" y="661"/>
      <point x="187" y="660"/>
      <point x="236" y="660" type="curve" smooth="yes"/>
      <point x="266" y="660"/>
      <point x="273" y="658"/>
      <point x="273" y="648" type="curve" smooth="yes"/>
      <point x="273" y="625"/>
      <point x="266" y="623"/>
      <point x="232" y="622" type="curve" smooth="yes"/>
      <point x="144" y="618" type="line"/>
      <point x="131" y="525" type="line"/>
      <point x="218" y="522" type="line" smooth="yes"/>
      <point x="248" y="521"/>
      <point x="256" y="519"/>
      <point x="256" y="507" type="curve" smooth="yes"/>
      <point x="256" y="474"/>
      <point x="239" y="475"/>
      <point x="193" y="475" type="curve" smooth="yes"/>
      <point x="155" y="475"/>
      <point x="132" y="474"/>
      <point x="68" y="476" type="curve"/>
      <point x="48" y="363" type="line"/>
      <point x="102" y="356"/>
      <point x="167" y="351"/>
      <point x="226" y="351" type="curve" smooth="yes"/>
      <point x="353" y="351"/>
      <point x="418" y="384"/>
      <point x="418" y="509" type="curve" smooth="yes"/>
      <point x="418" y="552"/>
      <point x="393" y="572"/>
      <point x="339" y="579" type="curve"/>
      <point x="339" y="581" type="line"/>
      <point x="406" y="587"/>
      <point x="435" y="628"/>
      <point x="435" y="711" type="curve" smooth="yes"/>
      <point x="435" y="766"/>
      <point x="385" y="783"/>
    </contour>
  </outline>
</glyph>
<glyph name="micro" format="2">
  <advance width="644"/>
  <unicode hex="00B5"/>
  <outline>
    <contour>
      <point x="299" y="500" type="line"/>
      <point x="88" y="500" type="line"/>
      <point x="37" y="130" type="line" smooth="yes"/>
      <point x="24" y="38"/>
      <point x="74" y="-14"/>
      <point x="177" y="-14" type="curve" smooth="yes"/>
      <point x="246" y="-14"/>
      <point x="300" y="11"/>
      <point x="353" y="92" type="curve"/>
      <point x="376" y="322" type="line"/>
      <point x="357" y="192"/>
      <point x="308" y="162"/>
      <point x="277" y="162" type="curve" smooth="yes"/>
      <point x="258" y="162"/>
      <point x="252" y="173"/>
      <point x="255" y="196" type="curve" smooth="yes"/>
    </contour>
    <contour>
      <point x="611" y="500" type="line"/>
      <point x="400" y="500" type="line"/>
      <point x="346" y="100" type="line"/>
      <point x="346" y="84" type="line"/>
      <point x="346" y="81" type="line" smooth="yes"/>
      <point x="346" y="13"/>
      <point x="389" y="-13"/>
      <point x="454" y="-13" type="curve" smooth="yes"/>
      <point x="510" y="-13"/>
      <point x="575" y="1"/>
      <point x="615" y="15" type="curve"/>
      <point x="622" y="117" type="line"/>
      <point x="582" y="117" type="line" smooth="yes"/>
      <point x="561" y="117"/>
      <point x="558" y="130"/>
      <point x="563" y="162" type="curve" smooth="yes"/>
    </contour>
    <contour>
      <point x="237" y="61" type="line"/>
      <point x="49" y="217" type="line"/>
      <point x="-7" y="-180" type="line"/>
      <point x="176" y="-180" type="line"/>
      <point x="219" y="-65" type="line"/>
    </contour>
  </outline>
</glyph>
<glyph name="cedilla" format="2">
  <advance width="263"/>
  <unicode hex="00B8"/>
  <guideline x="50" y="-104" angle="74.6443"/>
  <anchor x="105" y="0" name="_bottom"/>
  <outline>
    <contour>
      <point x="26" y="-33" type="curve"/>
      <point x="8" y="-105" type="line"/>
      <point x="68" y="-105"/>
      <point x="73" y="-108"/>
      <point x="70" y="-121" type="curve" smooth="yes"/>
      <point x="61" y="-162"/>
      <point x="15" y="-167"/>
      <point x="-29" y="-167" type="curve"/>
      <point x="-50" y="-244" type="line"/>
      <point x="73" y="-261"/>
      <point x="179" y="-217"/>
      <point x="198" y="-106" type="curve" smooth="yes"/>
      <point x="212" y="-22"/>
      <point x="133" y="-19"/>
    </contour>
  </outline>
</glyph>
<glyph name="onesuperior" format="2">
  <advance width="321"/>
  <unicode hex="00B9"/>
  <outline>
    <contour>
      <point x="348" y="774" type="line"/>
      <point x="188" y="774" type="line"/>
      <point x="74" y="735" type="line"/>
      <point x="78" y="637" type="line"/>
      <point x="177" y="651" type="line"/>
      <point x="169" y="630"/>
      <point x="165" y="611"/>
      <point x="162" y="591" type="curve" smooth="yes"/>
      <point x="130" y="360" type="line"/>
      <point x="290" y="360" type="line"/>
    </contour>
  </outline>
</glyph>
<glyph name="ordmasculine" format="2">
  <advance width="434"/>
  <unicode hex="00BA"/>
  <outline>
    <contour>
      <point x="251" y="623" type="curve" smooth="yes"/>
      <point x="123" y="623"/>
      <point x="66" y="579"/>
      <point x="48" y="452" type="curve" smooth="yes"/>
      <point x="30" y="319"/>
      <point x="88" y="269"/>
      <point x="226" y="269" type="curve" smooth="yes"/>
      <point x="360" y="269"/>
      <point x="410" y="311"/>
      <point x="427" y="436" type="curve" smooth="yes"/>
      <point x="446" y="571"/>
      <point x="390" y="623"/>
    </contour>
    <contour>
      <point x="249" y="521" type="curve" smooth="yes"/>
      <point x="271" y="521"/>
      <point x="280" y="514"/>
      <point x="271" y="452" type="curve" smooth="yes"/>
      <point x="262" y="388"/>
      <point x="255" y="370"/>
      <point x="227" y="370" type="curve" smooth="yes"/>
      <point x="197" y="370"/>
      <point x="199" y="398"/>
      <point x="204" y="436" type="curve" smooth="yes"/>
      <point x="213" y="505"/>
      <point x="223" y="521"/>
    </contour>
  </outline>
</glyph>
<glyph name="onequarter" format="2">
  <advance width="957"/>
  <unicode hex="00BC"/>
  <outline>
    <contour>
      <point x="744" y="690" type="line"/>
      <point x="611" y="690" type="line"/>
      <point x="128" y="0" type="line"/>
      <point x="261" y="0" type="line"/>
    </contour>
    <contour>
      <point x="337" y="690" type="line"/>
      <point x="177" y="690" type="line"/>
      <point x="70" y="651" type="line"/>
      <point x="76" y="553" type="line"/>
      <point x="166" y="571" type="line"/>
      <point x="158" y="550"/>
      <point x="155" y="531"/>
      <point x="152" y="511" type="curve" smooth="yes"/>
      <point x="119" y="276" type="line"/>
      <point x="278" y="276" type="line"/>
    </contour>
    <contour>
      <point x="778" y="414" type="line"/>
      <point x="635" y="414" type="line"/>
      <point x="502" y="156" type="line" smooth="yes"/>
      <point x="484" y="123"/>
      <point x="498" y="77"/>
      <point x="546" y="77" type="curve" smooth="yes"/>
      <point x="857" y="77" type="line"/>
      <point x="904" y="90" type="line"/>
      <point x="915" y="176" type="line"/>
      <point x="677" y="176" type="line" smooth="yes"/>
      <point x="670" y="176"/>
      <point x="665" y="179"/>
      <point x="670" y="190" type="curve" smooth="yes"/>
    </contour>
    <contour>
      <point x="892" y="331" type="line"/>
      <point x="775" y="331" type="line"/>
      <point x="741" y="262" type="line"/>
      <point x="705" y="0" type="line"/>
      <point x="845" y="0" type="line"/>
    </contour>
  </outline>
</glyph>
<glyph name="onehalf" format="2">
  <advance width="945"/>
  <unicode hex="00BD"/>
  <outline>
    <contour>
      <point x="742" y="690" type="line"/>
      <point x="610" y="690" type="line"/>
      <point x="127" y="0" type="line"/>
      <point x="260" y="0" type="line"/>
    </contour>
    <contour>
      <point x="337" y="690" type="line"/>
      <point x="176" y="690" type="line"/>
      <point x="70" y="651" type="line"/>
      <point x="75" y="553" type="line"/>
      <point x="165" y="571" type="line"/>
      <point x="157" y="550"/>
      <point x="154" y="531"/>
      <point x="151" y="511" type="curve" smooth="yes"/>
      <point x="118" y="276" type="line"/>
      <point x="278" y="276" type="line"/>
    </contour>
    <contour>
      <point x="729" y="421" type="curve" smooth="yes"/>
      <point x="707" y="421"/>
      <point x="643" y="421"/>
      <point x="577" y="410" type="curve"/>
      <point x="577" y="298" type="line"/>
      <point x="640" y="296"/>
      <point x="666" y="296"/>
      <point x="721" y="296" type="curve" smooth="yes"/>
      <point x="735" y="296"/>
      <point x="742" y="286"/>
      <point x="729" y="275" type="curve" smooth="yes"/>
      <point x="715" y="262"/>
      <point x="685" y="241"/>
      <point x="640" y="209" type="curve" smooth="yes"/>
      <point x="557" y="146" type="line" smooth="yes"/>
      <point x="539" y="129"/>
      <point x="536" y="109"/>
      <point x="532" y="83" type="curve" smooth="yes"/>
      <point x="520" y="0" type="line"/>
      <point x="874" y="0" type="line"/>
      <point x="892" y="131" type="line"/>
      <point x="782" y="134" type="line" smooth="yes"/>
      <point x="762" y="135"/>
      <point x="747" y="133"/>
      <point x="726" y="127" type="curve"/>
      <point x="836" y="203" type="line" smooth="yes"/>
      <point x="885" y="237"/>
      <point x="901" y="266"/>
      <point x="906" y="295" type="curve" smooth="yes"/>
      <point x="925" y="405"/>
      <point x="838" y="421"/>
    </contour>
  </outline>
</glyph>
<glyph name="threequarters" format="2">
  <advance width="1006"/>
  <unicode hex="00BE"/>
  <outline>
    <contour>
      <point x="813" y="690" type="line"/>
      <point x="680" y="690" type="line"/>
      <point x="199" y="0" type="line"/>
      <point x="331" y="0" type="line"/>
    </contour>
    <contour>
      <point x="245" y="699" type="curve" smooth="yes"/>
      <point x="203" y="699"/>
      <point x="146" y="696"/>
      <point x="90" y="688" type="curve"/>
      <point x="92" y="578" type="line"/>
      <point x="155" y="576"/>
      <point x="199" y="576"/>
      <point x="226" y="576" type="curve" smooth="yes"/>
      <point x="245" y="576"/>
      <point x="247" y="570"/>
      <point x="247" y="562" type="curve" smooth="yes"/>
      <point x="247" y="541"/>
      <point x="240" y="535"/>
      <point x="222" y="535" type="curve" smooth="yes"/>
      <point x="124" y="536" type="line"/>
      <point x="111" y="443" type="line"/>
      <point x="211" y="441" type="line" smooth="yes"/>
      <point x="228" y="441"/>
      <point x="232" y="437"/>
      <point x="230" y="422" type="curve" smooth="yes"/>
      <point x="228" y="407"/>
      <point x="219" y="391"/>
      <point x="178" y="391" type="curve" smooth="yes"/>
      <point x="142" y="391"/>
      <point x="115" y="390"/>
      <point x="43" y="392" type="curve"/>
      <point x="35" y="280" type="line"/>
      <point x="87" y="273"/>
      <point x="152" y="267"/>
      <point x="201" y="267" type="curve" smooth="yes"/>
      <point x="339" y="267"/>
      <point x="379" y="316"/>
      <point x="388" y="383" type="curve" smooth="yes"/>
      <point x="395" y="441"/>
      <point x="377" y="486"/>
      <point x="308" y="494" type="curve"/>
      <point x="309" y="497" type="line"/>
      <point x="379" y="504"/>
      <point x="398" y="553"/>
      <point x="403" y="594" type="curve" smooth="yes"/>
      <point x="413" y="671"/>
      <point x="374" y="699"/>
    </contour>
    <contour>
      <point x="832" y="416" type="line"/>
      <point x="689" y="416" type="line"/>
      <point x="556" y="158" type="line" smooth="yes"/>
      <point x="539" y="125"/>
      <point x="553" y="79"/>
      <point x="601" y="79" type="curve" smooth="yes"/>
      <point x="911" y="79" type="line"/>
      <point x="957" y="92" type="line"/>
      <point x="968" y="178" type="line"/>
      <point x="730" y="178" type="line" smooth="yes"/>
      <point x="723" y="178"/>
      <point x="718" y="181"/>
      <point x="723" y="192" type="curve" smooth="yes"/>
    </contour>
    <contour>
      <point x="945" y="333" type="line"/>
      <point x="828" y="333" type="line"/>
      <point x="795" y="262" type="line"/>
      <point x="759" y="2" type="line"/>
      <point x="898" y="2" type="line"/>
    </contour>
  </outline>
</glyph>
<glyph name="AE" format="2">
  <advance width="956"/>
  <unicode hex="00C6"/>
  <anchor x="598" y="735" name="top"/>
  <outline>
    <contour>
      <point x="623" y="692" type="curve" smooth="yes"/>
      <point x="391" y="692"/>
      <point x="322" y="650"/>
      <point x="257" y="538" type="curve" smooth="yes"/>
      <point x="-58" y="0" type="line"/>
      <point x="167" y="0" type="line"/>
      <point x="454" y="512" type="line" smooth="yes"/>
      <point x="461" y="523"/>
      <point x="473" y="549"/>
      <point x="481" y="564" type="curve"/>
      <point x="492" y="564" type="line"/>
      <point x="483" y="546"/>
      <point x="474" y="521"/>
      <point x="471" y="502" type="curve" smooth="yes"/>
      <point x="423" y="157" type="line" smooth="yes"/>
      <point x="410" y="64"/>
      <point x="462" y="-4"/>
      <point x="559" y="-4" type="curve" smooth="yes"/>
      <point x="666" y="-4"/>
      <point x="789" y="-5"/>
      <point x="894" y="8" type="curve"/>
      <point x="897" y="159" type="line"/>
      <point x="665" y="159" type="line" smooth="yes"/>
      <point x="634" y="159"/>
      <point x="626" y="173"/>
      <point x="629" y="199" type="curve" smooth="yes"/>
      <point x="672" y="491" type="line" smooth="yes"/>
      <point x="676" y="521"/>
      <point x="688" y="531"/>
      <point x="721" y="531" type="curve" smooth="yes"/>
      <point x="951" y="531" type="line"/>
      <point x="977" y="681" type="line"/>
      <point x="857" y="692"/>
      <point x="756" y="692"/>
    </contour>
    <contour>
      <point x="493" y="314" type="line"/>
      <point x="136" y="314" type="line"/>
      <point x="116" y="156" type="line"/>
      <point x="473" y="156" type="line"/>
    </contour>
    <contour>
      <point x="468" y="420" type="line"/>
      <point x="448" y="286" type="line"/>
      <point x="884" y="286" type="line"/>
      <point x="900" y="420" type="line"/>
    </contour>
  </outline>
</glyph>
<glyph name="Eth" format="2">
  <advance width="700"/>
  <unicode hex="00D0"/>
  <outline>
    <contour>
      <point x="373" y="413" type="line"/>
      <point x="22" y="413" type="line"/>
      <point x="8" y="313" type="line"/>
      <point x="359" y="313" type="line"/>
    </contour>
    <component base="D"/>
  </outline>
</glyph>
<glyph name="multiply" format="2">
  <advance width="526"/>
  <unicode hex="00D7"/>
  <outline>
    <contour>
      <point x="436" y="524" type="line"/>
      <point x="10" y="190" type="line"/>
      <point x="87" y="65" type="line"/>
      <point x="513" y="400" type="line"/>
    </contour>
    <contour>
      <point x="152" y="514" type="line"/>
      <point x="42" y="399" type="line"/>
      <point x="377" y="63" type="line"/>
      <point x="488" y="188" type="line"/>
    </contour>
  </outline>
</glyph>
<glyph name="germandbls" format="2">
  <advance width="731"/>
  <unicode hex="00DF"/>
  <outline>
    <contour>
      <point x="413" y="742" type="curve" smooth="yes"/>
      <point x="223" y="742"/>
      <point x="149" y="701"/>
      <point x="131" y="570" type="curve" smooth="yes"/>
      <point x="52" y="5" type="line" smooth="yes"/>
      <point x="45" y="-37"/>
      <point x="31" y="-51"/>
      <point x="-9" y="-51" type="curve" smooth="yes"/>
      <point x="-58" y="-51" type="line"/>
      <point x="-89" y="-176" type="line"/>
      <point x="-20" y="-186"/>
      <point x="27" y="-191"/>
      <point x="63" y="-191" type="curve" smooth="yes"/>
      <point x="194" y="-191"/>
      <point x="240" y="-123"/>
      <point x="254" y="-32" type="curve" smooth="yes"/>
      <point x="333" y="537" type="line" smooth="yes"/>
      <point x="340" y="589"/>
      <point x="359" y="602"/>
      <point x="425" y="602" type="curve" smooth="yes"/>
      <point x="463" y="602"/>
      <point x="475" y="598"/>
      <point x="471" y="568" type="curve" smooth="yes"/>
      <point x="468" y="545"/>
      <point x="459" y="532"/>
      <point x="422" y="491" type="curve" smooth="yes"/>
      <point x="375" y="438"/>
      <point x="357" y="418"/>
      <point x="352" y="378" type="curve" smooth="yes"/>
      <point x="345" y="322"/>
      <point x="367" y="292"/>
      <point x="408" y="254" type="curve" smooth="yes"/>
      <point x="434" y="234" type="line" smooth="yes"/>
      <point x="487" y="184"/>
      <point x="495" y="171"/>
      <point x="495" y="157" type="curve" smooth="yes"/>
      <point x="495" y="131"/>
      <point x="470" y="128"/>
      <point x="437" y="128" type="curve" smooth="yes"/>
      <point x="393" y="128"/>
      <point x="362" y="128"/>
      <point x="327" y="128" type="curve"/>
      <point x="309" y="0" type="line"/>
      <point x="383" y="-7"/>
      <point x="434" y="-11"/>
      <point x="482" y="-11" type="curve" smooth="yes"/>
      <point x="640" y="-11"/>
      <point x="687" y="33"/>
      <point x="702" y="123" type="curve" smooth="yes"/>
      <point x="711" y="173"/>
      <point x="694" y="218"/>
      <point x="640" y="273" type="curve" smooth="yes"/>
      <point x="594" y="316" type="line" smooth="yes"/>
      <point x="564" y="345"/>
      <point x="549" y="359"/>
      <point x="551" y="378" type="curve" smooth="yes"/>
      <point x="554" y="402"/>
      <point x="579" y="421"/>
      <point x="608" y="454" type="curve" smooth="yes"/>
      <point x="648" y="499"/>
      <point x="657" y="538"/>
      <point x="662" y="566" type="curve" smooth="yes"/>
      <point x="683" y="688"/>
      <point x="634" y="742"/>
    </contour>
    <contour>
      <point x="221" y="500" type="line"/>
      <point x="121" y="500" type="line"/>
      <point x="36" y="495" type="line"/>
      <point x="21" y="374" type="line"/>
      <point x="203" y="374" type="line"/>
    </contour>
  </outline>
</glyph>
<glyph name="ae" format="2">
  <advance width="916"/>
  <unicode hex="00E6"/>
  <anchor x="525" y="547" name="top"/>
  <outline>
    <contour>
      <point x="305" y="514" type="curve" smooth="yes"/>
      <point x="151" y="513"/>
      <point x="59" y="500"/>
      <point x="25" y="264" type="curve" smooth="yes"/>
      <point x="0" y="90"/>
      <point x="26" y="-22"/>
      <point x="169" y="-12" type="curve" smooth="yes"/>
      <point x="296" y="-3"/>
      <point x="379" y="75"/>
      <point x="410" y="221" type="curve"/>
      <point x="376" y="277" type="line"/>
      <point x="353" y="213"/>
      <point x="295" y="152"/>
      <point x="260" y="149" type="curve" smooth="yes"/>
      <point x="222" y="146"/>
      <point x="224" y="168"/>
      <point x="239" y="270" type="curve" smooth="yes"/>
      <point x="253" y="366"/>
      <point x="277" y="377"/>
      <point x="326" y="377" type="curve" smooth="yes"/>
      <point x="373" y="377"/>
      <point x="397" y="377"/>
      <point x="430" y="376" type="curve"/>
      <point x="594" y="482" type="line"/>
      <point x="550" y="497"/>
      <point x="436" y="515"/>
    </contour>
    <contour>
      <point x="655" y="514" type="curve" smooth="yes"/>
      <point x="481" y="514"/>
      <point x="376" y="468"/>
      <point x="354" y="254" type="curve" smooth="yes"/>
      <point x="337" y="83"/>
      <point x="393" y="-12"/>
      <point x="618" y="-12" type="curve" smooth="yes"/>
      <point x="697" y="-12"/>
      <point x="781" y="-1"/>
      <point x="851" y="32" type="curve"/>
      <point x="838" y="160" type="line"/>
      <point x="778" y="153"/>
      <point x="675" y="149"/>
      <point x="637" y="149" type="curve" smooth="yes"/>
      <point x="562" y="149"/>
      <point x="552" y="162"/>
      <point x="568" y="261" type="curve" smooth="yes"/>
      <point x="584" y="357"/>
      <point x="595" y="378"/>
      <point x="657" y="379" type="curve" smooth="yes"/>
      <point x="695" y="380"/>
      <point x="702" y="371"/>
      <point x="700" y="349" type="curve" smooth="yes"/>
      <point x="697" y="311"/>
      <point x="674" y="307"/>
      <point x="634" y="303" type="curve" smooth="yes"/>
      <point x="442" y="283" type="line"/>
      <point x="429" y="184" type="line"/>
      <point x="690" y="204" type="line" smooth="yes"/>
      <point x="822" y="214"/>
      <point x="887" y="238"/>
      <point x="900" y="328" type="curve" smooth="yes"/>
      <point x="918" y="449"/>
      <point x="859" y="514"/>
    </contour>
  </outline>
</glyph>
<glyph name="divide" format="2">
  <advance width="528"/>
  <unicode hex="00F7"/>
  <outline>
    <contour>
      <point x="514" y="369" type="line"/>
      <point x="37" y="369" type="line"/>
      <point x="14" y="215" type="line"/>
      <point x="491" y="215" type="line"/>
    </contour>
    <contour>
      <point x="264" y="176" type="curve" smooth="yes"/>
      <point x="224" y="176" type="line" smooth="yes"/>
      <point x="160" y="176"/>
      <point x="134" y="160"/>
      <point x="126" y="96" type="curve" smooth="yes"/>
      <point x="124" y="82" type="line" smooth="yes"/>
      <point x="114" y="19"/>
      <point x="134" y="-2"/>
      <point x="200" y="-2" type="curve" smooth="yes"/>
      <point x="246" y="-2" type="line" smooth="yes"/>
      <point x="309" y="-2"/>
      <point x="330" y="15"/>
      <point x="338" y="79" type="curve" smooth="yes"/>
      <point x="340" y="93" type="line" smooth="yes"/>
      <point x="349" y="157"/>
      <point x="327" y="176"/>
    </contour>
    <contour>
      <point x="324" y="582" type="curve" smooth="yes"/>
      <point x="283" y="582" type="line" smooth="yes"/>
      <point x="220" y="582"/>
      <point x="194" y="566"/>
      <point x="185" y="502" type="curve" smooth="yes"/>
      <point x="183" y="488" type="line" smooth="yes"/>
      <point x="174" y="425"/>
      <point x="193" y="404"/>
      <point x="259" y="404" type="curve" smooth="yes"/>
      <point x="305" y="404" type="line" smooth="yes"/>
      <point x="368" y="404"/>
      <point x="389" y="422"/>
      <point x="398" y="486" type="curve" smooth="yes"/>
      <point x="399" y="500" type="line" smooth="yes"/>
      <point x="409" y="563"/>
      <point x="386" y="582"/>
    </contour>
  </outline>
</glyph>
<glyph name="oslash" format="2">
  <advance width="615"/>
  <unicode hex="00F8"/>
  <anchor x="268" y="-12" name="bottom"/>
  <anchor x="346" y="547" name="top"/>
  <outline>
    <contour>
      <point x="486" y="597" type="line"/>
      <point x="84" y="-71" type="line"/>
      <point x="131" y="-93" type="line"/>
      <point x="533" y="575" type="line"/>
    </contour>
    <component base="o"/>
  </outline>
</glyph>
<glyph name="thorn" format="2">
  <advance width="616"/>
  <unicode hex="00FE"/>
  <outline>
    <contour>
      <point x="429" y="512" type="curve" smooth="yes"/>
      <point x="309" y="512"/>
      <point x="220" y="410"/>
      <point x="204" y="323" type="curve"/>
      <point x="233" y="238" type="line"/>
      <point x="257" y="295"/>
      <point x="287" y="351"/>
      <point x="341" y="351" type="curve" smooth="yes"/>
      <point x="382" y="351"/>
      <point x="376" y="312"/>
      <point x="366" y="230" type="curve" smooth="yes"/>
      <point x="354" y="129"/>
      <point x="337" y="113"/>
      <point x="278" y="113" type="curve" smooth="yes"/>
      <point x="212" y="113"/>
      <point x="179" y="113"/>
      <point x="132" y="113" type="curve"/>
      <point x="113" y="35" type="line"/>
      <point x="161" y="0"/>
      <point x="261" y="-14"/>
      <point x="369" y="-14" type="curve" smooth="yes"/>
      <point x="473" y="-14"/>
      <point x="560" y="54"/>
      <point x="581" y="236" type="curve" smooth="yes"/>
      <point x="602" y="419"/>
      <point x="563" y="512"/>
    </contour>
    <contour>
      <point x="311" y="700" type="line"/>
      <point x="101" y="700" type="line"/>
      <point x="-22" y="-180" type="line"/>
      <point x="188" y="-180" type="line"/>
      <point x="202" y="-85" type="line" smooth="yes"/>
      <point x="210" y="-38"/>
      <point x="212" y="15"/>
      <point x="215" y="58" type="curve"/>
      <point x="225" y="74" type="line"/>
      <point x="273" y="445" type="line"/>
      <point x="270" y="453" type="line"/>
      <point x="281" y="496"/>
      <point x="291" y="549"/>
      <point x="297" y="596" type="curve"/>
    </contour>
  </outline>
</glyph>
<glyph name="dcroat" format="2">
  <advance width="622"/>
  <unicode hex="0111"/>
  <outline>
    <contour>
      <point x="685" y="631" type="line"/>
      <point x="314" y="631" type="line"/>
      <point x="302" y="547" type="line"/>
      <point x="673" y="547" type="line"/>
    </contour>
    <component base="d"/>
  </outline>
</glyph>
<glyph name="Hbar" format="2">
  <advance width="705"/>
  <unicode hex="0126"/>
  <outline>
    <contour>
      <point x="748" y="601" type="line"/>
      <point x="45" y="601" type="line"/>
      <point x="31" y="509" type="line"/>
      <point x="734" y="509" type="line"/>
    </contour>
    <component base="H"/>
  </outline>
</glyph>
<glyph name="hbar" format="2">
  <advance width="615"/>
  <unicode hex="0127"/>
  <outline>
    <contour>
      <point x="409" y="631" type="line"/>
      <point x="38" y="631" type="line"/>
      <point x="26" y="547" type="line"/>
      <point x="397" y="547" type="line"/>
    </contour>
    <component base="h" xOffset="-4"/>
  </outline>
</glyph>
<glyph name="idotless" format="2">
  <advance width="306"/>
  <unicode hex="0131"/>
  <anchor x="110" y="-5" name="bottom"/>
  <anchor x="198" y="0" name="ogonek"/>
  <anchor x="188" y="547" name="top"/>
  <outline>
    <contour>
      <point x="288" y="500" type="line"/>
      <point x="77" y="500" type="line"/>
      <point x="7" y="0" type="line"/>
      <point x="218" y="0" type="line"/>
    </contour>
  </outline>
</glyph>
<glyph name="Lslash" format="2">
  <advance width="556"/>
  <unicode hex="0141"/>
  <outline>
    <contour>
      <point x="399" y="513" type="line"/>
      <point x="18" y="373" type="line"/>
      <point x="4" y="269" type="line"/>
      <point x="384" y="409" type="line"/>
    </contour>
    <component base="L" xOffset="4"/>
  </outline>
</glyph>
<glyph name="lslash" format="2">
  <advance width="376"/>
  <unicode hex="0142"/>
  <outline>
    <contour>
      <point x="395" y="513" type="line"/>
      <point x="14" y="373" type="line"/>
      <point x="0" y="269" type="line"/>
      <point x="380" y="409" type="line"/>
    </contour>
    <component base="l" xOffset="12"/>
  </outline>
</glyph>
<glyph name="Eng" format="2">
  <advance width="735"/>
  <unicode hex="014A"/>
  <outline>
    <contour>
      <point x="739" y="690" type="line"/>
      <point x="539" y="690" type="line"/>
      <point x="498" y="408" type="line" smooth="yes"/>
      <point x="492" y="365"/>
      <point x="488" y="332"/>
      <point x="490" y="279" type="curve"/>
      <point x="484" y="279" type="line"/>
      <point x="472" y="337"/>
      <point x="456" y="370"/>
      <point x="444" y="397" type="curve" smooth="yes"/>
      <point x="334" y="623" type="line" smooth="yes"/>
      <point x="319" y="664"/>
      <point x="304" y="690"/>
      <point x="259" y="690" type="curve" smooth="yes"/>
      <point x="177" y="690" type="line" smooth="yes"/>
      <point x="128" y="690"/>
      <point x="105" y="668"/>
      <point x="98" y="619" type="curve" smooth="yes"/>
      <point x="11" y="0" type="line"/>
      <point x="211" y="0" type="line"/>
      <point x="254" y="293" type="line" smooth="yes"/>
      <point x="260" y="335"/>
      <point x="262" y="373"/>
      <point x="262" y="418" type="curve"/>
      <point x="268" y="418" type="line"/>
      <point x="277" y="375"/>
      <point x="284" y="341"/>
      <point x="301" y="303" type="curve" smooth="yes"/>
      <point x="420" y="67" type="line" smooth="yes"/>
      <point x="429" y="48"/>
      <point x="440" y="13"/>
      <point x="453" y="13" type="curve" smooth="yes"/>
      <point x="456" y="13" type="line"/>
      <point x="451" y="-11" type="line" smooth="yes"/>
      <point x="447" y="-30"/>
      <point x="426" y="-42"/>
      <point x="400" y="-42" type="curve" smooth="yes"/>
      <point x="370" y="-42" type="line"/>
      <point x="333" y="-176" type="line"/>
      <point x="372" y="-194"/>
      <point x="436" y="-204"/>
      <point x="481" y="-204" type="curve" smooth="yes"/>
      <point x="561" y="-204"/>
      <point x="621" y="-145"/>
      <point x="636" y="-37" type="curve" smooth="yes"/>
    </contour>
  </outline>
</glyph>
<glyph name="oe" format="2">
  <advance width="910"/>
  <unicode hex="0153"/>
  <outline>
    <contour>
      <point x="319" y="514" type="curve" smooth="yes"/>
      <point x="124" y="514"/>
      <point x="48" y="448"/>
      <point x="21" y="257" type="curve" smooth="yes"/>
      <point x="-7" y="61"/>
      <point x="77" y="-12"/>
      <point x="270" y="-12" type="curve" smooth="yes"/>
      <point x="406" y="-12"/>
      <point x="540" y="53"/>
      <point x="567" y="241" type="curve" smooth="yes"/>
      <point x="595" y="440"/>
      <point x="456" y="514"/>
    </contour>
    <contour>
      <point x="314" y="372" type="curve" smooth="yes"/>
      <point x="358" y="372"/>
      <point x="363" y="352"/>
      <point x="349" y="257" type="curve" smooth="yes"/>
      <point x="334" y="152"/>
      <point x="324" y="130"/>
      <point x="279" y="130" type="curve" smooth="yes"/>
      <point x="231" y="130"/>
      <point x="226" y="149"/>
      <point x="239" y="241" type="curve" smooth="yes"/>
      <point x="254" y="350"/>
      <point x="265" y="372"/>
    </contour>
    <contour>
      <point x="649" y="514" type="curve" smooth="yes"/>
      <point x="525" y="514"/>
      <point x="371" y="468"/>
      <point x="349" y="254" type="curve" smooth="yes"/>
      <point x="332" y="83"/>
      <point x="446" y="-12"/>
      <point x="612" y="-12" type="curve" smooth="yes"/>
      <point x="691" y="-12"/>
      <point x="775" y="-1"/>
      <point x="845" y="32" type="curve"/>
      <point x="832" y="160" type="line"/>
      <point x="772" y="153"/>
      <point x="670" y="149"/>
      <point x="631" y="149" type="curve" smooth="yes"/>
      <point x="564" y="149"/>
      <point x="554" y="162"/>
      <point x="570" y="261" type="curve" smooth="yes"/>
      <point x="586" y="357"/>
      <point x="597" y="378"/>
      <point x="651" y="379" type="curve" smooth="yes"/>
      <point x="689" y="380"/>
      <point x="696" y="371"/>
      <point x="694" y="349" type="curve" smooth="yes"/>
      <point x="691" y="311"/>
      <point x="668" y="307"/>
      <point x="628" y="303" type="curve" smooth="yes"/>
      <point x="436" y="283" type="line"/>
      <point x="423" y="184" type="line"/>
      <point x="685" y="204" type="line" smooth="yes"/>
      <point x="816" y="214"/>
      <point x="881" y="238"/>
      <point x="894" y="328" type="curve" smooth="yes"/>
      <point x="912" y="449"/>
      <point x="853" y="514"/>
    </contour>
  </outline>
</glyph>
<glyph name="tbar" format="2">
  <advance width="439"/>
  <unicode hex="0167"/>
  <outline>
    <contour>
      <point x="388" y="316" type="line"/>
      <point x="45" y="316" type="line"/>
      <point x="32" y="222" type="line"/>
      <point x="375" y="222" type="line"/>
    </contour>
    <component base="t"/>
  </outline>
</glyph>
<glyph name="Schwa" format="2">
  <advance width="689"/>
  <unicode hex="018F"/>
  <outline>
    <contour>
      <point x="305" y="-14" type="curve" smooth="yes"/>
      <point x="528" y="-14"/>
      <point x="626" y="53"/>
      <point x="664" y="337" type="curve" smooth="yes"/>
      <point x="702" y="624"/>
      <point x="606" y="704"/>
      <point x="378" y="704" type="curve" smooth="yes"/>
      <point x="281" y="704"/>
      <point x="188" y="689"/>
      <point x="93" y="644" type="curve"/>
      <point x="112" y="528" type="line"/>
      <point x="192" y="537"/>
      <point x="288" y="543"/>
      <point x="342" y="543" type="curve" smooth="yes"/>
      <point x="452" y="543"/>
      <point x="462" y="510"/>
      <point x="437" y="353" type="curve" smooth="yes"/>
      <point x="410" y="182"/>
      <point x="391" y="147"/>
      <point x="304" y="147" type="curve" smooth="yes"/>
      <point x="249" y="147"/>
      <point x="225" y="169"/>
      <point x="229" y="212" type="curve" smooth="yes"/>
      <point x="234" y="263"/>
      <point x="255" y="283"/>
      <point x="306" y="288" type="curve" smooth="yes"/>
      <point x="576" y="315" type="line"/>
      <point x="594" y="439" type="line"/>
      <point x="243" y="411" type="line" smooth="yes"/>
      <point x="129" y="402"/>
      <point x="50" y="364"/>
      <point x="31" y="242" type="curve" smooth="yes"/>
      <point x="7" y="90"/>
      <point x="72" y="-14"/>
    </contour>
  </outline>
</glyph>
<glyph name="florin" format="2">
  <advance width="501"/>
  <unicode hex="0192"/>
  <outline>
    <contour>
      <point x="386" y="704" type="curve" smooth="yes"/>
      <point x="260" y="704"/>
      <point x="205" y="639"/>
      <point x="182" y="545" type="curve" smooth="yes"/>
      <point x="63" y="16" type="line" smooth="yes"/>
      <point x="55" y="-23"/>
      <point x="35" y="-40"/>
      <point x="4" y="-40" type="curve" smooth="yes"/>
      <point x="-52" y="-40" type="line"/>
      <point x="-94" y="-165" type="line"/>
      <point x="-54" y="-175"/>
      <point x="25" y="-180"/>
      <point x="65" y="-180" type="curve" smooth="yes"/>
      <point x="191" y="-180"/>
      <point x="246" y="-115"/>
      <point x="268" y="-21" type="curve" smooth="yes"/>
      <point x="387" y="508" type="line" smooth="yes"/>
      <point x="396" y="547"/>
      <point x="415" y="564"/>
      <point x="446" y="564" type="curve" smooth="yes"/>
      <point x="502" y="564" type="line"/>
      <point x="545" y="689" type="line"/>
      <point x="504" y="699"/>
      <point x="426" y="704"/>
    </contour>
    <contour>
      <point x="458" y="410" type="line"/>
      <point x="159" y="410" type="line"/>
      <point x="58" y="395" type="line"/>
      <point x="34" y="284" type="line"/>
      <point x="431" y="284" type="line"/>
    </contour>
  </outline>
</glyph>
<glyph name="aringacute" format="2">
  <advance width="613"/>
  <unicode hex="01FB"/>
  <outline>
    <contour>
      <point x="484" y="1011" type="line"/>
      <point x="237" y="855" type="line"/>
      <point x="284" y="769" type="line"/>
      <point x="550" y="865" type="line"/>
    </contour>
    <component base="a"/>
    <component base="ring" xOffset="154" yOffset="-5"/>
  </outline>
</glyph>
<glyph name="jdotless" format="2">
  <advance width="306"/>
  <unicode hex="0237"/>
  <anchor x="194" y="547" name="top"/>
  <outline>
    <contour>
      <point x="289" y="500" type="line"/>
      <point x="79" y="500" type="line"/>
      <point x="16" y="62" type="line" smooth="yes"/>
      <point x="8" y="5"/>
      <point x="-16" y="-42"/>
      <point x="-73" y="-95" type="curve"/>
      <point x="42" y="-192" type="line"/>
      <point x="144" y="-151"/>
      <point x="211" y="-50"/>
      <point x="224" y="54" type="curve" smooth="yes"/>
    </contour>
  </outline>
</glyph>
<glyph name="schwa" format="2">
  <advance width="590"/>
  <unicode hex="0259"/>
  <outline>
    <contour>
      <point x="264" y="-12" type="curve" smooth="yes"/>
      <point x="442" y="-12"/>
      <point x="547" y="34"/>
      <point x="569" y="248" type="curve" smooth="yes"/>
      <point x="586" y="419"/>
      <point x="529" y="514"/>
      <point x="301" y="514" type="curve" smooth="yes"/>
      <point x="222" y="514"/>
      <point x="135" y="503"/>
      <point x="64" y="470" type="curve"/>
      <point x="78" y="342" type="line"/>
      <point x="139" y="349"/>
      <point x="242" y="353"/>
      <point x="283" y="353" type="curve" smooth="yes"/>
      <point x="352" y="353"/>
      <point x="364" y="340"/>
      <point x="348" y="241" type="curve" smooth="yes"/>
      <point x="332" y="145"/>
      <point x="319" y="124"/>
      <point x="262" y="123" type="curve" smooth="yes"/>
      <point x="221" y="122"/>
      <point x="214" y="131"/>
      <point x="216" y="153" type="curve" smooth="yes"/>
      <point x="220" y="191"/>
      <point x="243" y="195"/>
      <point x="284" y="199" type="curve" smooth="yes"/>
      <point x="482" y="219" type="line"/>
      <point x="495" y="318" type="line"/>
      <point x="229" y="298" type="line" smooth="yes"/>
      <point x="94" y="288"/>
      <point x="29" y="264"/>
      <point x="16" y="174" type="curve" smooth="yes"/>
      <point x="-2" y="53"/>
      <point x="57" y="-12"/>
    </contour>
  </outline>
</glyph>
<glyph name="primemod" format="2">
  <advance width="300"/>
  <unicode hex="02B9"/>
  <anchor x="230" y="523" name="_top"/>
  <outline>
    <contour>
      <point x="321" y="750" type="line"/>
      <point x="177" y="750" type="line"/>
      <point x="88" y="522" type="line"/>
      <point x="208" y="522" type="line"/>
    </contour>
  </outline>
</glyph>
<glyph name="doubleprimemod" format="2">
  <advance width="479"/>
  <unicode hex="02BA"/>
  <anchor x="240" y="523" name="_top"/>
  <outline>
    <contour>
      <point x="500" y="750" type="line"/>
      <point x="356" y="750" type="line"/>
      <point x="267" y="522" type="line"/>
      <point x="387" y="522" type="line"/>
    </contour>
    <contour>
      <point x="321" y="750" type="line"/>
      <point x="177" y="750" type="line"/>
      <point x="88" y="522" type="line"/>
      <point x="208" y="522" type="line"/>
    </contour>
  </outline>
</glyph>
<glyph name="circumflex" format="2">
  <advance width="477"/>
  <unicode hex="02C6"/>
  <anchor x="282" y="550" name="_top"/>
  <outline>
    <contour>
      <point x="363" y="742" type="line"/>
      <point x="222" y="742" type="line"/>
      <point x="72" y="606" type="line"/>
      <point x="120" y="534" type="line"/>
      <point x="284" y="628" type="line"/>
      <point x="292" y="628" type="line"/>
      <point x="439" y="534" type="line"/>
      <point x="494" y="602" type="line"/>
    </contour>
  </outline>
</glyph>
<glyph name="caron" format="2">
  <advance width="477"/>
  <unicode hex="02C7"/>
  <anchor x="281" y="545" name="_top"/>
  <outline>
    <contour>
      <point x="463" y="753" type="line"/>
      <point x="292" y="676" type="line"/>
      <point x="284" y="676" type="line"/>
      <point x="137" y="757" type="line"/>
      <point x="79" y="691" type="line"/>
      <point x="242" y="547" type="line"/>
      <point x="324" y="547" type="line"/>
      <point x="503" y="678" type="line"/>
    </contour>
  </outline>
</glyph>
<glyph name="verticallinemod" format="2">
  <advance width="199"/>
  <unicode hex="02C8"/>
  <anchor x="137" y="546" name="_top"/>
  <outline>
    <contour>
      <point x="201" y="559" type="line"/>
      <point x="233" y="743" type="line"/>
      <point x="111" y="743" type="line"/>
      <point x="79" y="560" type="line"/>
    </contour>
  </outline>
</glyph>
<glyph name="fourthtonechinese" format="2">
  <advance width="392"/>
  <unicode hex="02CB"/>
  <anchor x="291" y="526" name="_top"/>
  <outline>
    <contour>
      <point x="167" y="747" type="line"/>
      <point x="87" y="617" type="line"/>
      <point x="335" y="511" type="line"/>
      <point x="402" y="597" type="line"/>
    </contour>
  </outline>
</glyph>
<glyph name="dotaccent" format="2">
  <advance width="251"/>
  <unicode hex="02D9"/>
  <anchor x="167" y="546" name="_top"/>
  <outline>
    <contour>
      <point x="215" y="724" type="curve" smooth="yes"/>
      <point x="156" y="724" type="line" smooth="yes"/>
      <point x="122" y="724"/>
      <point x="99" y="706"/>
      <point x="94" y="671" type="curve" smooth="yes"/>
      <point x="88" y="624" type="line" smooth="yes"/>
      <point x="82" y="584"/>
      <point x="101" y="563"/>
      <point x="144" y="563" type="curve" smooth="yes"/>
      <point x="207" y="563" type="line" smooth="yes"/>
      <point x="242" y="563"/>
      <point x="263" y="581"/>
      <point x="267" y="616" type="curve" smooth="yes"/>
      <point x="272" y="665" type="line" smooth="yes"/>
      <point x="276" y="705"/>
      <point x="251" y="724"/>
    </contour>
  </outline>
</glyph>
<glyph name="ogonek" format="2">
  <advance width="250"/>
  <unicode hex="02DB"/>
  <anchor x="186" y="0" name="_ogonek"/>
  <outline>
    <contour>
      <point x="99" y="8" type="line"/>
      <point x="33" y="-28"/>
      <point x="-2" y="-62"/>
      <point x="-18" y="-93" type="curve" smooth="yes"/>
      <point x="-55" y="-166"/>
      <point x="5" y="-251"/>
      <point x="176" y="-189" type="curve"/>
      <point x="161" y="-115" type="line"/>
      <point x="130" y="-121"/>
      <point x="122" y="-113"/>
      <point x="129" y="-91" type="curve" smooth="yes"/>
      <point x="138" y="-64"/>
      <point x="162" y="-26"/>
      <point x="186" y="0" type="curve"/>
    </contour>
  </outline>
</glyph>
<glyph name="tilde" format="2">
  <advance width="460"/>
  <unicode hex="02DC"/>
  <anchor x="277" y="539" name="_top"/>
  <outline>
    <contour>
      <point x="187" y="724" type="curve" smooth="yes"/>
      <point x="127" y="724"/>
      <point x="86" y="673"/>
      <point x="89" y="559" type="curve"/>
      <point x="174" y="551" type="line"/>
      <point x="179" y="583"/>
      <point x="186" y="601"/>
      <point x="220" y="594" type="curve" smooth="yes"/>
      <point x="256" y="587"/>
      <point x="332" y="550"/>
      <point x="384" y="550" type="curve" smooth="yes"/>
      <point x="443" y="550"/>
      <point x="484" y="599"/>
      <point x="479" y="715" type="curve"/>
      <point x="394" y="723" type="line"/>
      <point x="390" y="691"/>
      <point x="382" y="672"/>
      <point x="347" y="680" type="curve" smooth="yes"/>
      <point x="313" y="688"/>
      <point x="237" y="724"/>
    </contour>
  </outline>
</glyph>
<glyph name="hungarumlaut" format="2">
  <advance width="547"/>
  <unicode hex="02DD"/>
  <anchor x="281" y="523" name="_top"/>
  <outline>
    <contour>
      <point x="231" y="756" type="line"/>
      <point x="84" y="563" type="line"/>
      <point x="169" y="511" type="line"/>
      <point x="352" y="672" type="line"/>
    </contour>
    <contour>
      <point x="446" y="756" type="line"/>
      <point x="299" y="562" type="line"/>
      <point x="383" y="511" type="line"/>
      <point x="567" y="672" type="line"/>
    </contour>
  </outline>
</glyph>
<glyph name="acutecomb" format="2">
  <unicode hex="0301"/>
  <anchor x="-220" y="526" name="_top"/>
  <outline>
    <contour>
      <point x="-64" y="753" type="line"/>
      <point x="-311" y="597" type="line"/>
      <point x="-264" y="511" type="line"/>
      <point x="2" y="607" type="line"/>
    </contour>
  </outline>
</glyph>
<glyph name="tildecomb" format="2">
  <unicode hex="0303"/>
  <anchor x="-183" y="539" name="_top"/>
  <outline>
    <contour>
      <point x="-273" y="724" type="curve" smooth="yes"/>
      <point x="-333" y="724"/>
      <point x="-374" y="673"/>
      <point x="-371" y="559" type="curve"/>
      <point x="-286" y="551" type="line"/>
      <point x="-281" y="583"/>
      <point x="-274" y="601"/>
      <point x="-240" y="594" type="curve" smooth="yes"/>
      <point x="-204" y="587"/>
      <point x="-128" y="550"/>
      <point x="-76" y="550" type="curve" smooth="yes"/>
      <point x="-17" y="550"/>
      <point x="24" y="599"/>
      <point x="19" y="715" type="curve"/>
      <point x="-66" y="723" type="line"/>
      <point x="-70" y="691"/>
      <point x="-78" y="672"/>
      <point x="-113" y="680" type="curve" smooth="yes"/>
      <point x="-147" y="688"/>
      <point x="-223" y="724"/>
    </contour>
  </outline>
</glyph>
<glyph name="macroncomb" format="2">
  <unicode hex="0304"/>
  <anchor x="-154" y="553" name="_top"/>
  <outline>
    <contour>
      <point x="25" y="713" type="line"/>
      <point x="-295" y="713" type="line"/>
      <point x="-312" y="590" type="line"/>
      <point x="8" y="590" type="line"/>
    </contour>
  </outline>
</glyph>
<glyph name="brevecomb" format="2">
  <unicode hex="0306"/>
  <anchor x="-208" y="532" name="_top"/>
  <outline>
    <contour>
      <point x="-101" y="717" type="line"/>
      <point x="-105" y="681"/>
      <point x="-132" y="660"/>
      <point x="-192" y="660" type="curve" smooth="yes"/>
      <point x="-249" y="660"/>
      <point x="-272" y="673"/>
      <point x="-265" y="715" type="curve"/>
      <point x="-363" y="710" type="line"/>
      <point x="-392" y="621"/>
      <point x="-325" y="534"/>
      <point x="-201" y="534" type="curve" smooth="yes"/>
      <point x="-76" y="534"/>
      <point x="-4" y="613"/>
      <point x="-7" y="702" type="curve"/>
    </contour>
  </outline>
</glyph>
<glyph name="dotaccentcomb" format="2">
  <unicode hex="0307"/>
  <anchor x="-108" y="546" name="_top"/>
  <outline>
    <contour>
      <point x="-60" y="724" type="curve" smooth="yes"/>
      <point x="-119" y="724" type="line" smooth="yes"/>
      <point x="-153" y="724"/>
      <point x="-176" y="706"/>
      <point x="-181" y="671" type="curve" smooth="yes"/>
      <point x="-187" y="624" type="line" smooth="yes"/>
      <point x="-193" y="584"/>
      <point x="-174" y="563"/>
      <point x="-131" y="563" type="curve" smooth="yes"/>
      <point x="-68" y="563" type="line" smooth="yes"/>
      <point x="-33" y="563"/>
      <point x="-12" y="581"/>
      <point x="-8" y="616" type="curve" smooth="yes"/>
      <point x="-3" y="665" type="line" smooth="yes"/>
      <point x="1" y="705"/>
      <point x="-24" y="724"/>
    </contour>
  </outline>
</glyph>
<glyph name="hookabovecomb" format="2">
  <unicode hex="0309"/>
  <anchor x="-136" y="526" name="_top"/>
  <outline>
    <contour>
      <point x="-174" y="604" type="curve"/>
      <point x="-168" y="517" type="line"/>
      <point x="-62" y="523"/>
      <point x="6" y="591"/>
      <point x="6" y="690" type="curve" smooth="yes"/>
      <point x="6" y="768"/>
      <point x="-58" y="804"/>
      <point x="-167" y="767" type="curve"/>
      <point x="-162" y="674" type="line"/>
      <point x="-134" y="686"/>
      <point x="-110" y="684"/>
      <point x="-110" y="660" type="curve" smooth="yes"/>
      <point x="-110" y="630"/>
      <point x="-128" y="611"/>
    </contour>
  </outline>
</glyph>
<glyph name="ringcomb" format="2">
  <unicode hex="030A"/>
  <anchor x="-159" y="552" name="_top"/>
  <outline>
    <contour>
      <point x="-139" y="776" type="curve" smooth="yes"/>
      <point x="-216" y="776"/>
      <point x="-273" y="722"/>
      <point x="-273" y="645" type="curve" smooth="yes"/>
      <point x="-273" y="579"/>
      <point x="-217" y="534"/>
      <point x="-149" y="534" type="curve" smooth="yes"/>
      <point x="-71" y="534"/>
      <point x="-15" y="588"/>
      <point x="-15" y="665" type="curve" smooth="yes"/>
      <point x="-15" y="731"/>
      <point x="-70" y="776"/>
    </contour>
    <contour>
      <point x="-143" y="701" type="curve" smooth="yes"/>
      <point x="-117" y="701"/>
      <point x="-99" y="684"/>
      <point x="-99" y="658" type="curve" smooth="yes"/>
      <point x="-99" y="628"/>
      <point x="-117" y="609"/>
      <point x="-146" y="609" type="curve" smooth="yes"/>
      <point x="-170" y="609"/>
      <point x="-189" y="627"/>
      <point x="-189" y="653" type="curve" smooth="yes"/>
      <point x="-189" y="683"/>
      <point x="-170" y="701"/>
    </contour>
  </outline>
</glyph>
<glyph name="hungarumlautcomb" format="2">
  <unicode hex="030B"/>
  <anchor x="-279" y="523" name="_top"/>
  <outline>
    <contour>
      <point x="-329" y="756" type="line"/>
      <point x="-476" y="563" type="line"/>
      <point x="-391" y="511" type="line"/>
      <point x="-208" y="672" type="line"/>
    </contour>
    <contour>
      <point x="-114" y="756" type="line"/>
      <point x="-261" y="562" type="line"/>
      <point x="-177" y="511" type="line"/>
      <point x="7" y="672" type="line"/>
    </contour>
  </outline>
</glyph>
<glyph name="horncomb" format="2">
  <unicode hex="031B"/>
  <anchor x="-181" y="561" name="_top"/>
  <outline>
    <contour>
      <point x="-251" y="379" type="line"/>
      <point x="-135" y="366"/>
      <point x="-40" y="427"/>
      <point x="-18" y="540" type="curve"/>
      <point x="-140" y="556" type="line"/>
      <point x="-151" y="511"/>
      <point x="-188" y="464"/>
      <point x="-240" y="462" type="curve"/>
    </contour>
  </outline>
</glyph>
<glyph name="dieresisbelowcomb" format="2">
  <unicode hex="0324"/>
  <anchor x="-259" y="0" name="_bottom"/>
  <outline>
    <contour>
      <point x="-319" y="-37" type="curve" smooth="yes"/>
      <point x="-396" y="-37" type="line" smooth="yes"/>
      <point x="-421" y="-37"/>
      <point x="-431" y="-47"/>
      <point x="-435" y="-72" type="curve" smooth="yes"/>
      <point x="-446" y="-145" type="line" smooth="yes"/>
      <point x="-449" y="-167"/>
      <point x="-439" y="-178"/>
      <point x="-416" y="-178" type="curve" smooth="yes"/>
      <point x="-335" y="-178" type="line" smooth="yes"/>
      <point x="-312" y="-178"/>
      <point x="-303" y="-169"/>
      <point x="-300" y="-146" type="curve" smooth="yes"/>
      <point x="-289" y="-70" type="line" smooth="yes"/>
      <point x="-286" y="-48"/>
      <point x="-295" y="-37"/>
    </contour>
    <contour>
      <point x="-130" y="-37" type="curve" smooth="yes"/>
      <point x="-210" y="-37" type="line" smooth="yes"/>
      <point x="-232" y="-37"/>
      <point x="-242" y="-46"/>
      <point x="-246" y="-71" type="curve" smooth="yes"/>
      <point x="-257" y="-145" type="line" smooth="yes"/>
      <point x="-260" y="-167"/>
      <point x="-250" y="-178"/>
      <point x="-227" y="-178" type="curve" smooth="yes"/>
      <point x="-146" y="-178" type="line" smooth="yes"/>
      <point x="-123" y="-178"/>
      <point x="-115" y="-169"/>
      <point x="-111" y="-145" type="curve" smooth="yes"/>
      <point x="-100" y="-70" type="line" smooth="yes"/>
      <point x="-97" y="-48"/>
      <point x="-107" y="-37"/>
    </contour>
  </outline>
</glyph>
<glyph name="cedillacomb" format="2">
  <unicode hex="0327"/>
  <anchor x="-164" y="0" name="_bottom"/>
  <outline>
    <contour>
      <point x="-243" y="-33" type="curve"/>
      <point x="-261" y="-105" type="line"/>
      <point x="-201" y="-105"/>
      <point x="-196" y="-108"/>
      <point x="-199" y="-121" type="curve" smooth="yes"/>
      <point x="-208" y="-162"/>
      <point x="-254" y="-167"/>
      <point x="-298" y="-167" type="curve"/>
      <point x="-319" y="-244" type="line"/>
      <point x="-196" y="-261"/>
      <point x="-90" y="-217"/>
      <point x="-71" y="-106" type="curve" smooth="yes"/>
      <point x="-57" y="-22"/>
      <point x="-136" y="-19"/>
    </contour>
  </outline>
</glyph>
<glyph name="ogonekcomb" format="2">
  <unicode hex="0328"/>
  <anchor x="-69" y="0" name="_ogonek"/>
  <outline>
    <contour>
      <point x="-156" y="8" type="line"/>
      <point x="-222" y="-28"/>
      <point x="-257" y="-62"/>
      <point x="-273" y="-93" type="curve" smooth="yes"/>
      <point x="-310" y="-166"/>
      <point x="-250" y="-251"/>
      <point x="-79" y="-189" type="curve"/>
      <point x="-94" y="-115" type="line"/>
      <point x="-125" y="-121"/>
      <point x="-133" y="-113"/>
      <point x="-126" y="-91" type="curve" smooth="yes"/>
      <point x="-117" y="-64"/>
      <point x="-93" y="-26"/>
      <point x="-69" y="0" type="curve"/>
    </contour>
  </outline>
</glyph>
<glyph name="brevebelowcomb" format="2">
  <unicode hex="032E"/>
  <anchor x="-245" y="0" name="_bottom"/>
  <outline>
    <contour>
      <point x="-168" y="-41" type="line"/>
      <point x="-172" y="-77"/>
      <point x="-199" y="-98"/>
      <point x="-259" y="-98" type="curve" smooth="yes"/>
      <point x="-316" y="-98"/>
      <point x="-339" y="-85"/>
      <point x="-332" y="-43" type="curve"/>
      <point x="-430" y="-48" type="line"/>
      <point x="-459" y="-137"/>
      <point x="-392" y="-224"/>
      <point x="-268" y="-224" type="curve" smooth="yes"/>
      <point x="-143" y="-224"/>
      <point x="-71" y="-145"/>
      <point x="-74" y="-56" type="curve"/>
    </contour>
  </outline>
</glyph>
<glyph name="macronbelowcomb" format="2">
  <unicode hex="0331"/>
  <anchor x="-237" y="0" name="_bottom"/>
  <outline>
    <contour>
      <point x="-82" y="-49" type="line"/>
      <point x="-402" y="-49" type="line"/>
      <point x="-419" y="-172" type="line"/>
      <point x="-99" y="-172" type="line"/>
    </contour>
  </outline>
</glyph>
<glyph name="Delta" format="2">
  <advance width="708"/>
  <unicode hex="0394"/>
  <outline>
    <contour>
      <point x="518" y="690" type="line"/>
      <point x="304" y="690" type="line"/>
      <point x="-12" y="68" type="line"/>
      <point x="-19" y="0" type="line"/>
      <point x="651" y="0" type="line"/>
      <point x="658" y="68" type="line"/>
    </contour>
    <contour>
      <point x="388" y="485" type="curve"/>
      <point x="388" y="448"/>
      <point x="390" y="418"/>
      <point x="394" y="387" type="curve" smooth="yes"/>
      <point x="434" y="152" type="line"/>
      <point x="243" y="152" type="line"/>
      <point x="357" y="388" type="line" smooth="yes"/>
      <point x="371" y="418"/>
      <point x="378" y="448"/>
    </contour>
  </outline>
</glyph>
<glyph name="mu" format="2">
  <advance width="649"/>
  <unicode hex="03BC"/>
  <outline>
    <contour>
      <point x="299" y="500" type="line"/>
      <point x="88" y="500" type="line"/>
      <point x="37" y="130" type="line" smooth="yes"/>
      <point x="24" y="38"/>
      <point x="74" y="-14"/>
      <point x="177" y="-14" type="curve" smooth="yes"/>
      <point x="246" y="-14"/>
      <point x="305" y="11"/>
      <point x="358" y="92" type="curve"/>
      <point x="381" y="322" type="line"/>
      <point x="362" y="192"/>
      <point x="308" y="162"/>
      <point x="277" y="162" type="curve" smooth="yes"/>
      <point x="258" y="162"/>
      <point x="252" y="173"/>
      <point x="255" y="196" type="curve" smooth="yes"/>
    </contour>
    <contour>
      <point x="616" y="500" type="line"/>
      <point x="405" y="500" type="line"/>
      <point x="351" y="100" type="line"/>
      <point x="351" y="84" type="line"/>
      <point x="351" y="81" type="line" smooth="yes"/>
      <point x="351" y="13"/>
      <point x="394" y="-13"/>
      <point x="459" y="-13" type="curve" smooth="yes"/>
      <point x="515" y="-13"/>
      <point x="580" y="1"/>
      <point x="620" y="15" type="curve"/>
      <point x="627" y="117" type="line"/>
      <point x="587" y="117" type="line" smooth="yes"/>
      <point x="566" y="117"/>
      <point x="563" y="130"/>
      <point x="568" y="162" type="curve" smooth="yes"/>
    </contour>
    <contour>
      <point x="237" y="61" type="line"/>
      <point x="49" y="217" type="line"/>
      <point x="-7" y="-180" type="line"/>
      <point x="176" y="-180" type="line"/>
      <point x="219" y="-65" type="line"/>
    </contour>
  </outline>
</glyph>
<glyph name="Dje-cy" format="2">
  <advance width="775"/>
  <unicode hex="0402"/>
  <outline>
    <contour>
      <point x="663" y="690" type="line"/>
      <point x="65" y="690" type="line"/>
      <point x="43" y="528" type="line"/>
      <point x="641" y="528" type="line"/>
    </contour>
    <contour>
      <point x="473" y="690" type="line"/>
      <point x="255" y="690" type="line"/>
      <point x="158" y="0" type="line"/>
      <point x="376" y="0" type="line"/>
    </contour>
    <contour>
      <point x="607" y="454" type="curve" smooth="yes"/>
      <point x="531" y="454"/>
      <point x="445" y="428"/>
      <point x="377" y="370" type="curve"/>
      <point x="372" y="235" type="line"/>
      <point x="416" y="273"/>
      <point x="447" y="287"/>
      <point x="493" y="287" type="curve" smooth="yes"/>
      <point x="525" y="287"/>
      <point x="545" y="281"/>
      <point x="537" y="239" type="curve" smooth="yes"/>
      <point x="526" y="181"/>
      <point x="498" y="149"/>
      <point x="436" y="135" type="curve"/>
      <point x="448" y="-16" type="line"/>
      <point x="609" y="-16"/>
      <point x="722" y="40"/>
      <point x="753" y="232" type="curve" smooth="yes"/>
      <point x="779" y="396"/>
      <point x="721" y="454"/>
    </contour>
  </outline>
</glyph>
<glyph name="E-cy" format="2">
  <advance width="604"/>
  <unicode hex="0404"/>
  <outline>
    <contour>
      <point x="394" y="702" type="curve" smooth="yes"/>
      <point x="169" y="702"/>
      <point x="76" y="612"/>
      <point x="40" y="353" type="curve" smooth="yes"/>
      <point x="3" y="86"/>
      <point x="79" y="-12"/>
      <point x="315" y="-12" type="curve" smooth="yes"/>
      <point x="414" y="-12"/>
      <point x="478" y="-4"/>
      <point x="548" y="20" type="curve"/>
      <point x="540" y="179" type="line"/>
      <point x="483" y="172"/>
      <point x="426" y="171"/>
      <point x="335" y="171" type="curve" smooth="yes"/>
      <point x="252" y="171"/>
      <point x="243" y="201"/>
      <point x="261" y="337" type="curve" smooth="yes"/>
      <point x="280" y="480"/>
      <point x="291" y="519"/>
      <point x="385" y="519" type="curve" smooth="yes"/>
      <point x="473" y="519"/>
      <point x="525" y="518"/>
      <point x="599" y="517" type="curve"/>
      <point x="624" y="674" type="line"/>
      <point x="558" y="693"/>
      <point x="466" y="702"/>
    </contour>
    <contour>
      <point x="92" y="425" type="line"/>
      <point x="72" y="281" type="line"/>
      <point x="525" y="281" type="line"/>
      <point x="541" y="425" type="line"/>
    </contour>
  </outline>
</glyph>
<glyph name="I-cy" format="2">
  <advance width="329"/>
  <unicode hex="0406"/>
  <anchor x="223" y="735" name="top"/>
  <outline>
    <contour>
      <point x="328" y="690" type="line"/>
      <point x="113" y="690" type="line"/>
      <point x="16" y="0" type="line"/>
      <point x="231" y="0" type="line"/>
    </contour>
  </outline>
</glyph>
<glyph name="Tshe-cy" format="2">
  <advance width="798"/>
  <unicode hex="040B"/>
  <outline>
    <contour>
      <point x="663" y="690" type="line"/>
      <point x="65" y="690" type="line"/>
      <point x="43" y="528" type="line"/>
      <point x="641" y="528" type="line"/>
    </contour>
    <contour>
      <point x="473" y="690" type="line"/>
      <point x="255" y="690" type="line"/>
      <point x="158" y="0" type="line"/>
      <point x="376" y="0" type="line"/>
    </contour>
    <contour>
      <point x="619" y="464" type="curve" smooth="yes"/>
      <point x="530" y="464"/>
      <point x="467" y="444"/>
      <point x="390" y="400" type="curve"/>
      <point x="407" y="267" type="line"/>
      <point x="448" y="287"/>
      <point x="475" y="287"/>
      <point x="500" y="287" type="curve" smooth="yes"/>
      <point x="541" y="287"/>
      <point x="554" y="281"/>
      <point x="548" y="241" type="curve" smooth="yes"/>
      <point x="514" y="0" type="line"/>
      <point x="731" y="0" type="line"/>
      <point x="770" y="280" type="line" smooth="yes"/>
      <point x="785" y="404"/>
      <point x="745" y="464"/>
    </contour>
  </outline>
</glyph>
<glyph name="A-cy" format="2">
  <advance width="678"/>
  <unicode hex="0410"/>
  <anchor x="393" y="732" name="top"/>
  <outline>
    <contour>
      <point x="489" y="690" type="curve" smooth="yes"/>
      <point x="293" y="690" type="line" smooth="yes"/>
      <point x="258" y="690"/>
      <point x="230" y="672"/>
      <point x="217" y="638" type="curve" smooth="yes"/>
      <point x="-49" y="0" type="line"/>
      <point x="176" y="0" type="line"/>
      <point x="345" y="455" type="line" smooth="yes"/>
      <point x="355" y="482"/>
      <point x="361" y="508"/>
      <point x="365" y="530" type="curve"/>
      <point x="393" y="530" type="line"/>
      <point x="392" y="505"/>
      <point x="391" y="479"/>
      <point x="394" y="453" type="curve" smooth="yes"/>
      <point x="430" y="0" type="line"/>
      <point x="647" y="0" type="line"/>
      <point x="558" y="630" type="line" smooth="yes"/>
      <point x="554" y="664"/>
      <point x="524" y="690"/>
    </contour>
    <contour>
      <point x="522" y="304" type="line"/>
      <point x="160" y="304" type="line"/>
      <point x="141" y="146" type="line"/>
      <point x="504" y="146" type="line"/>
    </contour>
  </outline>
</glyph>
<glyph name="Ve-cy" format="2">
  <advance width="661"/>
  <unicode hex="0412"/>
  <outline>
    <contour>
      <point x="395" y="698" type="curve" smooth="yes"/>
      <point x="274" y="698"/>
      <point x="198" y="697"/>
      <point x="112" y="690" type="curve"/>
      <point x="114" y="545" type="line"/>
      <point x="189" y="549"/>
      <point x="258" y="548"/>
      <point x="388" y="548" type="curve" smooth="yes"/>
      <point x="423" y="548"/>
      <point x="432" y="535"/>
      <point x="426" y="495" type="curve" smooth="yes"/>
      <point x="417" y="435"/>
      <point x="404" y="423"/>
      <point x="353" y="423" type="curve" smooth="yes"/>
      <point x="88" y="423" type="line"/>
      <point x="71" y="292" type="line"/>
      <point x="349" y="292" type="line" smooth="yes"/>
      <point x="399" y="292"/>
      <point x="409" y="280"/>
      <point x="401" y="224" type="curve" smooth="yes"/>
      <point x="391" y="156"/>
      <point x="374" y="142"/>
      <point x="310" y="142" type="curve" smooth="yes"/>
      <point x="184" y="142"/>
      <point x="78" y="143"/>
      <point x="44" y="145" type="curve"/>
      <point x="15" y="0" type="line"/>
      <point x="113" y="-7"/>
      <point x="196" y="-8"/>
      <point x="352" y="-8" type="curve" smooth="yes"/>
      <point x="524" y="-8"/>
      <point x="599" y="26"/>
      <point x="618" y="164" type="curve" smooth="yes"/>
      <point x="634" y="278"/>
      <point x="599" y="346"/>
      <point x="490" y="355" type="curve"/>
      <point x="491" y="361" type="line"/>
      <point x="587" y="369"/>
      <point x="620" y="415"/>
      <point x="633" y="510" type="curve" smooth="yes"/>
      <point x="652" y="656"/>
      <point x="578" y="698"/>
    </contour>
    <contour>
      <point x="324" y="690" type="line"/>
      <point x="112" y="690" type="line"/>
      <point x="15" y="0" type="line"/>
      <point x="227" y="0" type="line"/>
    </contour>
  </outline>
</glyph>
<glyph name="Ge-cy" format="2">
  <advance width="543"/>
  <unicode hex="0413"/>
  <anchor x="357" y="735" name="top"/>
  <outline>
    <contour>
      <point x="255" y="694" type="curve" smooth="yes"/>
      <point x="169" y="694"/>
      <point x="102" y="634"/>
      <point x="89" y="541" type="curve" smooth="yes"/>
      <point x="13" y="0" type="line"/>
      <point x="230" y="0" type="line"/>
      <point x="299" y="488" type="line" smooth="yes"/>
      <point x="303" y="519"/>
      <point x="318" y="528"/>
      <point x="350" y="528" type="curve" smooth="yes"/>
      <point x="565" y="528" type="line"/>
      <point x="589" y="679" type="line"/>
      <point x="503" y="693"/>
      <point x="368" y="694"/>
    </contour>
  </outline>
</glyph>
<glyph name="De-cy" format="2">
  <advance width="790"/>
  <unicode hex="0414"/>
  <guideline x="146" y="538" angle="0"/>
  <outline>
    <contour>
      <point x="739" y="690" type="line"/>
      <point x="397" y="690" type="line" smooth="yes"/>
      <point x="294" y="690"/>
      <point x="231" y="642"/>
      <point x="204" y="545" type="curve" smooth="yes"/>
      <point x="152" y="358"/>
      <point x="106" y="205"/>
      <point x="-14" y="4" type="curve"/>
      <point x="225" y="19" type="line"/>
      <point x="326" y="166"/>
      <point x="366" y="322"/>
      <point x="408" y="492" type="curve" smooth="yes"/>
      <point x="419" y="536"/>
      <point x="439" y="548"/>
      <point x="473" y="548" type="curve" smooth="yes"/>
      <point x="504" y="548" type="line"/>
      <point x="426" y="0" type="line"/>
      <point x="642" y="0" type="line"/>
    </contour>
    <contour>
      <point x="146" y="7" type="line"/>
      <point x="-28" y="7" type="line"/>
      <point x="-50" y="-151" type="line"/>
      <point x="109" y="-151" type="line"/>
    </contour>
    <contour>
      <point x="757" y="142" type="line"/>
      <point x="-11" y="142" type="line"/>
      <point x="-29" y="0" type="line"/>
      <point x="739" y="0" type="line"/>
    </contour>
    <contour>
      <point x="740" y="7" type="line"/>
      <point x="567" y="7" type="line"/>
      <point x="561" y="-151" type="line"/>
      <point x="718" y="-151" type="line"/>
    </contour>
  </outline>
</glyph>
<glyph name="Ze-cy" format="2">
  <advance width="583"/>
  <unicode hex="0417"/>
  <anchor x="257" y="0" name="bottom"/>
  <anchor x="325" y="732" name="top"/>
  <outline>
    <contour>
      <point x="327" y="698" type="curve" smooth="yes"/>
      <point x="224" y="698"/>
      <point x="154" y="691"/>
      <point x="79" y="676" type="curve"/>
      <point x="88" y="527" type="line"/>
      <point x="171" y="537"/>
      <point x="221" y="542"/>
      <point x="296" y="542" type="curve" smooth="yes"/>
      <point x="336" y="542"/>
      <point x="351" y="535"/>
      <point x="346" y="495" type="curve" smooth="yes"/>
      <point x="339" y="443"/>
      <point x="330" y="426"/>
      <point x="276" y="426" type="curve" smooth="yes"/>
      <point x="136" y="426" type="line"/>
      <point x="119" y="289" type="line"/>
      <point x="269" y="289" type="line" smooth="yes"/>
      <point x="315" y="289"/>
      <point x="328" y="279"/>
      <point x="320" y="224" type="curve" smooth="yes"/>
      <point x="312" y="166"/>
      <point x="292" y="148"/>
      <point x="237" y="148" type="curve" smooth="yes"/>
      <point x="183" y="148"/>
      <point x="110" y="154"/>
      <point x="12" y="170" type="curve"/>
      <point x="-11" y="31" type="line"/>
      <point x="71" y="5"/>
      <point x="148" y="-8"/>
      <point x="284" y="-8" type="curve" smooth="yes"/>
      <point x="444" y="-8"/>
      <point x="516" y="26"/>
      <point x="535" y="164" type="curve" smooth="yes"/>
      <point x="551" y="278"/>
      <point x="517" y="346"/>
      <point x="421" y="355" type="curve"/>
      <point x="422" y="361" type="line"/>
      <point x="515" y="369"/>
      <point x="549" y="415"/>
      <point x="562" y="510" type="curve" smooth="yes"/>
      <point x="583" y="656"/>
      <point x="515" y="698"/>
    </contour>
  </outline>
</glyph>
<glyph name="Ka-cy" format="2">
  <advance width="676"/>
  <unicode hex="041A"/>
  <anchor x="407" y="735" name="top"/>
  <outline>
    <contour>
      <point x="708" y="690" type="curve"/>
      <point x="483" y="690" type="line"/>
      <point x="407" y="471"/>
      <point x="391" y="428"/>
      <point x="306" y="428" type="curve"/>
      <point x="293" y="288" type="line"/>
      <point x="380" y="288"/>
      <point x="372" y="264"/>
      <point x="405" y="0" type="curve"/>
      <point x="627" y="0" type="line"/>
      <point x="584" y="301"/>
      <point x="584" y="333"/>
      <point x="448" y="355" type="curve"/>
      <point x="449" y="361" type="line"/>
      <point x="599" y="381"/>
      <point x="601" y="423"/>
    </contour>
    <contour>
      <point x="330" y="690" type="line"/>
      <point x="113" y="690" type="line"/>
      <point x="16" y="0" type="line"/>
      <point x="233" y="0" type="line"/>
      <point x="264" y="221" type="line" smooth="yes"/>
      <point x="270" y="261"/>
      <point x="263" y="315"/>
      <point x="252" y="354" type="curve"/>
      <point x="279" y="393"/>
      <point x="297" y="459"/>
      <point x="304" y="512" type="curve" smooth="yes"/>
    </contour>
    <contour>
      <point x="355" y="428" type="line"/>
      <point x="240" y="428" type="line"/>
      <point x="221" y="288" type="line"/>
      <point x="336" y="288" type="line"/>
    </contour>
  </outline>
</glyph>
<glyph name="El-cy" format="2">
  <advance width="711"/>
  <unicode hex="041B"/>
  <guideline x="133" y="538" angle="0"/>
  <outline>
    <contour>
      <point x="696" y="690" type="line"/>
      <point x="361" y="690" type="line" smooth="yes"/>
      <point x="255" y="690"/>
      <point x="196" y="641"/>
      <point x="175" y="545" type="curve" smooth="yes"/>
      <point x="144" y="400"/>
      <point x="114" y="288"/>
      <point x="86" y="230" type="curve" smooth="yes"/>
      <point x="55" y="165"/>
      <point x="14" y="169"/>
      <point x="-26" y="164" type="curve"/>
      <point x="-18" y="-4" type="line"/>
      <point x="109" y="-28"/>
      <point x="207" y="0"/>
      <point x="281" y="156" type="curve" smooth="yes"/>
      <point x="320" y="238"/>
      <point x="353" y="381"/>
      <point x="378" y="494" type="curve" smooth="yes"/>
      <point x="387" y="535"/>
      <point x="402" y="548"/>
      <point x="444" y="548" type="curve" smooth="yes"/>
      <point x="677" y="548" type="line"/>
    </contour>
    <contour>
      <point x="710" y="690" type="line"/>
      <point x="493" y="690" type="line"/>
      <point x="396" y="0" type="line"/>
      <point x="613" y="0" type="line"/>
    </contour>
  </outline>
</glyph>
<glyph name="Em-cy" format="2">
  <advance width="954"/>
  <unicode hex="041C"/>
  <outline>
    <contour>
      <point x="860" y="690" type="curve" smooth="yes"/>
      <point x="667" y="690" type="line" smooth="yes"/>
      <point x="621" y="690"/>
      <point x="593" y="672"/>
      <point x="581" y="627" type="curve" smooth="yes"/>
      <point x="497" y="343" type="line" smooth="yes"/>
      <point x="488" y="310"/>
      <point x="480" y="281"/>
      <point x="472" y="242" type="curve"/>
      <point x="462" y="242" type="line"/>
      <point x="465" y="278"/>
      <point x="466" y="311"/>
      <point x="464" y="345" type="curve" smooth="yes"/>
      <point x="452" y="619" type="line" smooth="yes"/>
      <point x="451" y="664"/>
      <point x="422" y="690"/>
      <point x="377" y="690" type="curve" smooth="yes"/>
      <point x="193" y="690" type="line" smooth="yes"/>
      <point x="144" y="690"/>
      <point x="123" y="668"/>
      <point x="114" y="619" type="curve" smooth="yes"/>
      <point x="3" y="0" type="line"/>
      <point x="198" y="0" type="line"/>
      <point x="289" y="528" type="line"/>
      <point x="305" y="528" type="line"/>
      <point x="324" y="180" type="line" smooth="yes"/>
      <point x="326" y="136"/>
      <point x="355" y="110"/>
      <point x="401" y="110" type="curve" smooth="yes"/>
      <point x="511" y="110" type="line" smooth="yes"/>
      <point x="558" y="110"/>
      <point x="585" y="128"/>
      <point x="598" y="172" type="curve" smooth="yes"/>
      <point x="714" y="528" type="line"/>
      <point x="728" y="528" type="line"/>
      <point x="674" y="0" type="line"/>
      <point x="869" y="0" type="line"/>
      <point x="931" y="611" type="line" smooth="yes"/>
      <point x="936" y="660"/>
      <point x="909" y="690"/>
    </contour>
  </outline>
</glyph>
<glyph name="En-cy" format="2">
  <advance width="713"/>
  <unicode hex="041D"/>
  <outline>
    <contour>
      <point x="330" y="690" type="line"/>
      <point x="113" y="690" type="line"/>
      <point x="16" y="0" type="line"/>
      <point x="233" y="0" type="line"/>
    </contour>
    <contour>
      <point x="471" y="443" type="line"/>
      <point x="287" y="443" type="line"/>
      <point x="266" y="289" type="line"/>
      <point x="449" y="289" type="line"/>
    </contour>
    <contour>
      <point x="712" y="690" type="line"/>
      <point x="495" y="690" type="line"/>
      <point x="398" y="0" type="line"/>
      <point x="615" y="0" type="line"/>
    </contour>
  </outline>
</glyph>
<glyph name="Pe-cy" format="2">
  <advance width="714"/>
  <unicode hex="041F"/>
  <outline>
    <contour>
      <point x="713" y="690" type="line"/>
      <point x="495" y="690" type="line"/>
      <point x="398" y="0" type="line"/>
      <point x="616" y="0" type="line"/>
    </contour>
    <contour>
      <point x="331" y="690" type="line"/>
      <point x="113" y="690" type="line"/>
      <point x="16" y="0" type="line"/>
      <point x="234" y="0" type="line"/>
    </contour>
    <contour>
      <point x="507" y="690" type="line"/>
      <point x="322" y="690" type="line"/>
      <point x="303" y="548" type="line"/>
      <point x="488" y="548" type="line"/>
    </contour>
  </outline>
</glyph>
<glyph name="Er-cy" format="2">
  <advance width="642"/>
  <unicode hex="0420"/>
  <outline>
    <contour>
      <point x="390" y="700" type="curve" smooth="yes"/>
      <point x="262" y="700"/>
      <point x="202" y="699"/>
      <point x="112" y="690" type="curve"/>
      <point x="114" y="541" type="line"/>
      <point x="147" y="545"/>
      <point x="248" y="547"/>
      <point x="385" y="547" type="curve" smooth="yes"/>
      <point x="434" y="547"/>
      <point x="443" y="529"/>
      <point x="435" y="473" type="curve" smooth="yes"/>
      <point x="424" y="392"/>
      <point x="408" y="385"/>
      <point x="357" y="385" type="curve" smooth="yes"/>
      <point x="268" y="385"/>
      <point x="166" y="385"/>
      <point x="76" y="385" type="curve"/>
      <point x="70" y="289" type="line"/>
      <point x="99" y="267"/>
      <point x="241" y="232"/>
      <point x="376" y="232" type="curve" smooth="yes"/>
      <point x="557" y="232"/>
      <point x="625" y="279"/>
      <point x="649" y="457" type="curve" smooth="yes"/>
      <point x="674" y="645"/>
      <point x="601" y="700"/>
    </contour>
    <contour>
      <point x="328" y="690" type="line"/>
      <point x="112" y="690" type="line"/>
      <point x="15" y="0" type="line"/>
      <point x="231" y="0" type="line"/>
    </contour>
  </outline>
</glyph>
<glyph name="Te-cy" format="2">
  <advance width="618"/>
  <unicode hex="0422"/>
  <outline>
    <contour>
      <point x="473" y="690" type="line"/>
      <point x="256" y="690" type="line"/>
      <point x="159" y="0" type="line"/>
      <point x="376" y="0" type="line"/>
    </contour>
    <contour>
      <point x="664" y="690" type="line"/>
      <point x="66" y="690" type="line"/>
      <point x="43" y="528" type="line"/>
      <point x="641" y="528" type="line"/>
    </contour>
  </outline>
</glyph>
<glyph name="U-cy" format="2">
  <advance width="622"/>
  <unicode hex="0423"/>
  <anchor x="369" y="735" name="top"/>
  <outline>
    <contour>
      <point x="682" y="690" type="line"/>
      <point x="455" y="690" type="line"/>
      <point x="317" y="343" type="line"/>
      <point x="279" y="264" type="line"/>
      <point x="240" y="180" type="line" smooth="yes"/>
      <point x="220" y="144"/>
      <point x="175" y="146"/>
      <point x="69" y="148" type="curve"/>
      <point x="37" y="1" type="line"/>
      <point x="88" y="-7"/>
      <point x="190" y="-21"/>
      <point x="256" y="-14" type="curve" smooth="yes"/>
      <point x="361" y="-4"/>
      <point x="406" y="52"/>
      <point x="463" y="183" type="curve" smooth="yes"/>
    </contour>
    <contour>
      <point x="264" y="690" type="line"/>
      <point x="47" y="690" type="line"/>
      <point x="115" y="290" type="line" smooth="yes"/>
      <point x="122" y="234"/>
      <point x="148" y="192"/>
      <point x="212" y="192" type="curve" smooth="yes"/>
      <point x="386" y="192" type="line"/>
      <point x="344" y="344" type="line"/>
      <point x="310" y="344" type="line" smooth="yes"/>
      <point x="301" y="344"/>
      <point x="296" y="348"/>
      <point x="295" y="361" type="curve" smooth="yes"/>
    </contour>
  </outline>
</glyph>
<glyph name="Ef-cy" format="2">
  <advance width="876"/>
  <unicode hex="0424"/>
  <outline>
    <contour>
      <point x="474" y="634" type="curve" smooth="yes"/>
      <point x="166" y="634"/>
      <point x="55" y="574"/>
      <point x="25" y="353" type="curve" smooth="yes"/>
      <point x="-6" y="124"/>
      <point x="99" y="56"/>
      <point x="418" y="56" type="curve" smooth="yes"/>
      <point x="727" y="56"/>
      <point x="836" y="116"/>
      <point x="866" y="337" type="curve" smooth="yes"/>
      <point x="897" y="566"/>
      <point x="789" y="634"/>
    </contour>
    <contour>
      <point x="476" y="483" type="curve" smooth="yes"/>
      <point x="633" y="483"/>
      <point x="660" y="469"/>
      <point x="645" y="353" type="curve" smooth="yes"/>
      <point x="629" y="222"/>
      <point x="607" y="207"/>
      <point x="415" y="207" type="curve" smooth="yes"/>
      <point x="249" y="207"/>
      <point x="231" y="221"/>
      <point x="246" y="337" type="curve" smooth="yes"/>
      <point x="262" y="467"/>
      <point x="283" y="483"/>
    </contour>
    <contour>
      <point x="606" y="704" type="line"/>
      <point x="388" y="704" type="line"/>
      <point x="370" y="570" type="line"/>
      <point x="375" y="532" type="line"/>
      <point x="323" y="186" type="line"/>
      <point x="306" y="138" type="line"/>
      <point x="286" y="-14" type="line"/>
      <point x="504" y="-14" type="line"/>
      <point x="524" y="138" type="line"/>
      <point x="521" y="186" type="line"/>
      <point x="573" y="532" type="line"/>
      <point x="588" y="570" type="line"/>
    </contour>
  </outline>
</glyph>
<glyph name="Tse-cy" format="2">
  <advance width="753"/>
  <unicode hex="0426"/>
  <outline>
    <contour>
      <point x="331" y="690" type="line"/>
      <point x="113" y="690" type="line"/>
      <point x="16" y="0" type="line"/>
      <point x="234" y="0" type="line"/>
    </contour>
    <contour>
      <point x="720" y="142" type="line"/>
      <point x="245" y="142" type="line"/>
      <point x="226" y="0" type="line"/>
      <point x="700" y="0" type="line"/>
    </contour>
    <contour>
      <point x="702" y="690" type="line"/>
      <point x="485" y="690" type="line"/>
      <point x="388" y="0" type="line"/>
      <point x="605" y="0" type="line"/>
    </contour>
    <contour>
      <point x="528" y="7" type="line"/>
      <point x="522" y="-151" type="line"/>
      <point x="679" y="-151" type="line"/>
      <point x="700" y="0" type="line"/>
    </contour>
  </outline>
</glyph>
<glyph name="Che-cy" format="2">
  <advance width="690"/>
  <unicode hex="0427"/>
  <anchor x="635" y="0" name="bottomright"/>
  <anchor x="407" y="735" name="top"/>
  <outline>
    <contour>
      <point x="308" y="690" type="line"/>
      <point x="90" y="690" type="line"/>
      <point x="49" y="400" type="line" smooth="yes"/>
      <point x="33" y="276"/>
      <point x="90" y="216"/>
      <point x="231" y="216" type="curve" smooth="yes"/>
      <point x="286" y="216"/>
      <point x="389" y="242"/>
      <point x="456" y="279" type="curve"/>
      <point x="440" y="412" type="line"/>
      <point x="387" y="392"/>
      <point x="354" y="392"/>
      <point x="320" y="392" type="curve" smooth="yes"/>
      <point x="286" y="392"/>
      <point x="266" y="398"/>
      <point x="272" y="439" type="curve" smooth="yes"/>
    </contour>
    <contour>
      <point x="689" y="690" type="line"/>
      <point x="472" y="690" type="line"/>
      <point x="375" y="0" type="line"/>
      <point x="592" y="0" type="line"/>
    </contour>
  </outline>
</glyph>
<glyph name="Sha-cy" format="2">
  <advance width="1015"/>
  <unicode hex="0428"/>
  <outline>
    <contour>
      <point x="324" y="690" type="line"/>
      <point x="113" y="690" type="line"/>
      <point x="16" y="0" type="line"/>
      <point x="227" y="0" type="line"/>
    </contour>
    <contour>
      <point x="772" y="142" type="line"/>
      <point x="238" y="142" type="line"/>
      <point x="219" y="0" type="line"/>
      <point x="753" y="0" type="line"/>
    </contour>
    <contour>
      <point x="669" y="690" type="line"/>
      <point x="458" y="690" type="line"/>
      <point x="361" y="0" type="line"/>
      <point x="572" y="0" type="line"/>
    </contour>
    <contour>
      <point x="1014" y="690" type="line"/>
      <point x="803" y="690" type="line"/>
      <point x="706" y="0" type="line"/>
      <point x="917" y="0" type="line"/>
    </contour>
  </outline>
</glyph>
<glyph name="Hardsign-cy" format="2">
  <advance width="786"/>
  <unicode hex="042A"/>
  <outline>
    <contour>
      <point x="507" y="453" type="curve" smooth="yes"/>
      <point x="258" y="453" type="line"/>
      <point x="240" y="322" type="line"/>
      <point x="491" y="322" type="line" smooth="yes"/>
      <point x="551" y="322"/>
      <point x="549" y="303"/>
      <point x="540" y="229" type="curve" smooth="yes"/>
      <point x="529" y="140"/>
      <point x="511" y="142"/>
      <point x="457" y="142" type="curve" smooth="yes"/>
      <point x="340" y="142"/>
      <point x="241" y="143"/>
      <point x="209" y="145" type="curve"/>
      <point x="176" y="0" type="line"/>
      <point x="269" y="-7"/>
      <point x="349" y="-8"/>
      <point x="499" y="-8" type="curve" smooth="yes"/>
      <point x="676" y="-8"/>
      <point x="730" y="39"/>
      <point x="755" y="215" type="curve" smooth="yes"/>
      <point x="781" y="397"/>
      <point x="714" y="453"/>
    </contour>
    <contour>
      <point x="490" y="690" type="line"/>
      <point x="273" y="690" type="line"/>
      <point x="176" y="0" type="line"/>
      <point x="393" y="0" type="line"/>
    </contour>
    <contour>
      <point x="390" y="690" type="line"/>
      <point x="63" y="690" type="line"/>
      <point x="41" y="528" type="line"/>
      <point x="368" y="528" type="line"/>
    </contour>
  </outline>
</glyph>
<glyph name="Ereversed-cy" format="2">
  <advance width="602"/>
  <unicode hex="042D"/>
  <anchor x="341" y="732" name="top"/>
  <outline>
    <contour>
      <point x="301" y="702" type="curve" smooth="yes"/>
      <point x="221" y="702"/>
      <point x="146" y="695"/>
      <point x="76" y="676" type="curve"/>
      <point x="84" y="517" type="line"/>
      <point x="153" y="518"/>
      <point x="203" y="519"/>
      <point x="299" y="519" type="curve" smooth="yes"/>
      <point x="367" y="519"/>
      <point x="377" y="489"/>
      <point x="356" y="353" type="curve" smooth="yes"/>
      <point x="334" y="209"/>
      <point x="316" y="171"/>
      <point x="226" y="171" type="curve" smooth="yes"/>
      <point x="138" y="171"/>
      <point x="78" y="172"/>
      <point x="16" y="179" type="curve"/>
      <point x="-9" y="22" type="line"/>
      <point x="57" y="-2"/>
      <point x="121" y="-12"/>
      <point x="236" y="-12" type="curve" smooth="yes"/>
      <point x="454" y="-12"/>
      <point x="542" y="78"/>
      <point x="577" y="337" type="curve" smooth="yes"/>
      <point x="614" y="604"/>
      <point x="528" y="702"/>
    </contour>
    <contour>
      <point x="548" y="425" type="line"/>
      <point x="95" y="425" type="line"/>
      <point x="79" y="281" type="line"/>
      <point x="528" y="281" type="line"/>
    </contour>
  </outline>
</glyph>
<glyph name="Iu-cy" format="2">
  <advance width="1017"/>
  <unicode hex="042E"/>
  <outline>
    <contour>
      <point x="715" y="704" type="curve" smooth="yes"/>
      <point x="503" y="704"/>
      <point x="420" y="633"/>
      <point x="381" y="353" type="curve" smooth="yes"/>
      <point x="341" y="65"/>
      <point x="420" y="-14"/>
      <point x="638" y="-14" type="curve" smooth="yes"/>
      <point x="865" y="-14"/>
      <point x="953" y="57"/>
      <point x="992" y="337" type="curve" smooth="yes"/>
      <point x="1029" y="606"/>
      <point x="930" y="704"/>
    </contour>
    <contour>
      <point x="331" y="690" type="line"/>
      <point x="113" y="690" type="line"/>
      <point x="16" y="0" type="line"/>
      <point x="234" y="0" type="line"/>
    </contour>
    <contour>
      <point x="469" y="427" type="line"/>
      <point x="286" y="427" type="line"/>
      <point x="266" y="285" type="line"/>
      <point x="450" y="285" type="line"/>
    </contour>
    <contour>
      <point x="708" y="543" type="curve" smooth="yes"/>
      <point x="778" y="543"/>
      <point x="786" y="510"/>
      <point x="765" y="353" type="curve" smooth="yes"/>
      <point x="742" y="182"/>
      <point x="723" y="147"/>
      <point x="648" y="147" type="curve" smooth="yes"/>
      <point x="582" y="147"/>
      <point x="569" y="180"/>
      <point x="591" y="337" type="curve" smooth="yes"/>
      <point x="615" y="508"/>
      <point x="630" y="543"/>
    </contour>
  </outline>
</glyph>
<glyph name="Ia-cy" format="2">
  <advance width="675"/>
  <unicode hex="042F"/>
  <outline>
    <contour>
      <point x="375" y="700" type="curve" smooth="yes"/>
      <point x="192" y="700"/>
      <point x="96" y="669"/>
      <point x="75" y="518" type="curve" smooth="yes"/>
      <point x="61" y="422"/>
      <point x="91" y="339"/>
      <point x="193" y="325" type="curve"/>
      <point x="192" y="320" type="line"/>
      <point x="153" y="315"/>
      <point x="87" y="301"/>
      <point x="56" y="216" type="curve" smooth="yes"/>
      <point x="-28" y="0" type="line"/>
      <point x="208" y="0" type="line"/>
      <point x="279" y="201" type="line" smooth="yes"/>
      <point x="292" y="238"/>
      <point x="310" y="252"/>
      <point x="351" y="252" type="curve" smooth="yes"/>
      <point x="492" y="252"/>
      <point x="525" y="252"/>
      <point x="590" y="254" type="curve"/>
      <point x="601" y="405" type="line"/>
      <point x="348" y="405" type="line" smooth="yes"/>
      <point x="295" y="405"/>
      <point x="280" y="418"/>
      <point x="290" y="483" type="curve" smooth="yes"/>
      <point x="298" y="536"/>
      <point x="315" y="547"/>
      <point x="366" y="547" type="curve" smooth="yes"/>
      <point x="505" y="547"/>
      <point x="610" y="546"/>
      <point x="645" y="542" type="curve"/>
      <point x="674" y="690" type="line"/>
      <point x="584" y="699"/>
      <point x="518" y="700"/>
    </contour>
    <contour>
      <point x="674" y="690" type="line"/>
      <point x="456" y="690" type="line"/>
      <point x="359" y="0" type="line"/>
      <point x="577" y="0" type="line"/>
    </contour>
  </outline>
</glyph>
<glyph name="a-cy" format="2">
  <advance width="616"/>
  <unicode hex="0430"/>
  <anchor x="343" y="547" name="top"/>
  <outline>
    <contour>
      <point x="354" y="514" type="curve" smooth="yes"/>
      <point x="174" y="514"/>
      <point x="62" y="500"/>
      <point x="25" y="264" type="curve" smooth="yes"/>
      <point x="-2" y="90"/>
      <point x="26" y="-22"/>
      <point x="170" y="-12" type="curve" smooth="yes"/>
      <point x="298" y="-3"/>
      <point x="383" y="75"/>
      <point x="414" y="221" type="curve"/>
      <point x="380" y="277" type="line"/>
      <point x="354" y="213"/>
      <point x="297" y="152"/>
      <point x="260" y="149" type="curve" smooth="yes"/>
      <point x="222" y="146"/>
      <point x="224" y="168"/>
      <point x="239" y="270" type="curve" smooth="yes"/>
      <point x="253" y="366"/>
      <point x="286" y="377"/>
      <point x="328" y="377" type="curve" smooth="yes"/>
      <point x="375" y="377"/>
      <point x="400" y="377"/>
      <point x="434" y="376" type="curve"/>
      <point x="597" y="482" type="line"/>
      <point x="559" y="496"/>
      <point x="424" y="514"/>
    </contour>
    <contour>
      <point x="392" y="500" type="line"/>
      <point x="338" y="125" type="line"/>
      <point x="365" y="109" type="line"/>
      <point x="367" y="0" type="line"/>
      <point x="529" y="0" type="line"/>
      <point x="597" y="482" type="line"/>
    </contour>
  </outline>
</glyph>
<glyph name="be-cy" format="2">
  <advance width="612"/>
  <unicode hex="0431"/>
  <outline>
    <contour>
      <point x="584" y="732" type="line"/>
      <point x="460" y="714"/>
      <point x="370" y="725"/>
      <point x="262" y="692" type="curve" smooth="yes"/>
      <point x="107" y="646"/>
      <point x="67" y="516"/>
      <point x="40" y="326" type="curve" smooth="yes"/>
      <point x="13" y="136"/>
      <point x="6" y="-12"/>
      <point x="291" y="-12" type="curve" smooth="yes"/>
      <point x="476" y="-12"/>
      <point x="553" y="66"/>
      <point x="577" y="239" type="curve" smooth="yes"/>
      <point x="600" y="410"/>
      <point x="551" y="482"/>
      <point x="375" y="482" type="curve" smooth="yes"/>
      <point x="308" y="482"/>
      <point x="257" y="469"/>
      <point x="206" y="427" type="curve"/>
      <point x="206" y="420" type="line"/>
      <point x="216" y="453"/>
      <point x="227" y="473"/>
      <point x="247" y="494" type="curve" smooth="yes"/>
      <point x="264" y="512"/>
      <point x="291" y="528"/>
      <point x="338" y="540" type="curve" smooth="yes"/>
      <point x="417" y="561"/>
      <point x="480" y="542"/>
      <point x="602" y="568" type="curve"/>
    </contour>
    <contour>
      <point x="331" y="362" type="curve" smooth="yes"/>
      <point x="371" y="362"/>
      <point x="372" y="348"/>
      <point x="359" y="257" type="curve" smooth="yes"/>
      <point x="344" y="153"/>
      <point x="324" y="130"/>
      <point x="273" y="130" type="curve" smooth="yes"/>
      <point x="231" y="130"/>
      <point x="229" y="145"/>
      <point x="243" y="241" type="curve" smooth="yes"/>
      <point x="257" y="340"/>
      <point x="276" y="362"/>
    </contour>
  </outline>
</glyph>
<glyph name="ve-cy" format="2">
  <advance width="599"/>
  <unicode hex="0432"/>
  <outline>
    <contour>
      <point x="348" y="514" type="curve" smooth="yes"/>
      <point x="137" y="522"/>
      <point x="47" y="453"/>
      <point x="22" y="273" type="curve" smooth="yes"/>
      <point x="-5" y="79"/>
      <point x="55" y="-14"/>
      <point x="297" y="-14" type="curve" smooth="yes"/>
      <point x="458" y="-14"/>
      <point x="542" y="10"/>
      <point x="559" y="116" type="curve" smooth="yes"/>
      <point x="573" y="199"/>
      <point x="532" y="249"/>
      <point x="422" y="255" type="curve"/>
      <point x="423" y="260" type="line"/>
      <point x="525" y="266"/>
      <point x="563" y="316"/>
      <point x="569" y="365" type="curve" smooth="yes"/>
      <point x="580" y="456"/>
      <point x="514" y="507"/>
    </contour>
    <contour>
      <point x="323" y="378" type="curve" smooth="yes"/>
      <point x="369" y="378"/>
      <point x="380" y="368"/>
      <point x="374" y="341" type="curve" smooth="yes"/>
      <point x="368" y="317"/>
      <point x="346" y="311"/>
      <point x="305" y="309" type="curve" smooth="yes"/>
      <point x="223" y="304" type="line"/>
      <point x="210" y="201" type="line"/>
      <point x="299" y="206" type="line" smooth="yes"/>
      <point x="346" y="208"/>
      <point x="361" y="199"/>
      <point x="356" y="165" type="curve" smooth="yes"/>
      <point x="350" y="128"/>
      <point x="334" y="122"/>
      <point x="282" y="122" type="curve" smooth="yes"/>
      <point x="213" y="122"/>
      <point x="218" y="150"/>
      <point x="235" y="264" type="curve" smooth="yes"/>
      <point x="244" y="322"/>
      <point x="241" y="378"/>
    </contour>
  </outline>
</glyph>
<glyph name="pe-cy" format="2">
  <advance width="625"/>
  <unicode hex="043F"/>
  <outline>
    <contour>
      <point x="463" y="514" type="curve" smooth="yes"/>
      <point x="375" y="514"/>
      <point x="276" y="459"/>
      <point x="210" y="374" type="curve"/>
      <point x="245" y="287" type="line"/>
      <point x="291" y="325"/>
      <point x="322" y="335"/>
      <point x="346" y="337" type="curve" smooth="yes"/>
      <point x="372" y="340"/>
      <point x="377" y="329"/>
      <point x="373" y="302" type="curve" smooth="yes"/>
      <point x="330" y="0" type="line"/>
      <point x="541" y="0" type="line"/>
      <point x="593" y="370" type="line" smooth="yes"/>
      <point x="607" y="466"/>
      <point x="545" y="514"/>
    </contour>
    <contour>
      <point x="239" y="500" type="line"/>
      <point x="75" y="500" type="line"/>
      <point x="6" y="0" type="line"/>
      <point x="216" y="0" type="line"/>
      <point x="266" y="354" type="line"/>
      <point x="246" y="366" type="line"/>
    </contour>
  </outline>
</glyph>
<glyph name="er-cy" format="2">
  <advance width="618"/>
  <unicode hex="0440"/>
  <outline>
    <contour>
      <point x="443" y="512" type="curve" smooth="yes"/>
      <point x="325" y="512"/>
      <point x="231" y="407"/>
      <point x="205" y="367" type="curve"/>
      <point x="243" y="287" type="line"/>
      <point x="267" y="321"/>
      <point x="314" y="351"/>
      <point x="346" y="351" type="curve" smooth="yes"/>
      <point x="377" y="351"/>
      <point x="382" y="327"/>
      <point x="368" y="230" type="curve" smooth="yes"/>
      <point x="354" y="134"/>
      <point x="346" y="113"/>
      <point x="280" y="113" type="curve" smooth="yes"/>
      <point x="214" y="113"/>
      <point x="181" y="113"/>
      <point x="135" y="113" type="curve"/>
      <point x="115" y="35" type="line"/>
      <point x="162" y="-2"/>
      <point x="287" y="-14"/>
      <point x="350" y="-14" type="curve" smooth="yes"/>
      <point x="469" y="-14"/>
      <point x="556" y="29"/>
      <point x="583" y="236" type="curve" smooth="yes"/>
      <point x="606" y="417"/>
      <point x="557" y="512"/>
    </contour>
    <contour>
      <point x="242" y="500" type="line"/>
      <point x="75" y="500" type="line"/>
      <point x="-19" y="-180" type="line"/>
      <point x="191" y="-180" type="line"/>
      <point x="205" y="-94" type="line" smooth="yes"/>
      <point x="211" y="-56"/>
      <point x="213" y="-22"/>
      <point x="212" y="11" type="curve"/>
      <point x="223" y="27" type="line"/>
      <point x="264" y="358" type="line"/>
      <point x="242" y="374" type="line"/>
    </contour>
  </outline>
</glyph>
<glyph name="te-cy" format="2">
  <advance width="890"/>
  <unicode hex="0442"/>
  <outline>
    <contour>
      <point x="239" y="500" type="line"/>
      <point x="76" y="500" type="line"/>
      <point x="6" y="0" type="line"/>
      <point x="215" y="0" type="line"/>
      <point x="268" y="386" type="line"/>
      <point x="248" y="398" type="line"/>
    </contour>
    <contour>
      <point x="427" y="514" type="curve" smooth="yes"/>
      <point x="341" y="514"/>
      <point x="278" y="472"/>
      <point x="194" y="374" type="curve"/>
      <point x="230" y="289" type="line"/>
      <point x="279" y="327"/>
      <point x="309" y="337"/>
      <point x="330" y="337" type="curve" smooth="yes"/>
      <point x="344" y="337"/>
      <point x="353" y="333"/>
      <point x="349" y="311" type="curve" smooth="yes"/>
      <point x="306" y="0" type="line"/>
      <point x="507" y="0" type="line"/>
      <point x="559" y="370" type="line" smooth="yes"/>
      <point x="572" y="462"/>
      <point x="524" y="514"/>
    </contour>
    <contour>
      <point x="724" y="514" type="curve" smooth="yes"/>
      <point x="638" y="514"/>
      <point x="574" y="473"/>
      <point x="490" y="374" type="curve"/>
      <point x="527" y="289" type="line"/>
      <point x="573" y="327"/>
      <point x="603" y="337"/>
      <point x="622" y="337" type="curve" smooth="yes"/>
      <point x="634" y="337"/>
      <point x="644" y="333"/>
      <point x="641" y="311" type="curve" smooth="yes"/>
      <point x="598" y="0" type="line"/>
      <point x="806" y="0" type="line"/>
      <point x="858" y="370" type="line" smooth="yes"/>
      <point x="871" y="460"/>
      <point x="824" y="514"/>
    </contour>
  </outline>
</glyph>
<glyph name="u-cy" format="2">
  <advance width="621"/>
  <unicode hex="0443"/>
  <anchor x="339" y="547" name="top"/>
  <outline>
    <contour>
      <point x="628" y="500" type="curve"/>
      <point x="403" y="500" type="line"/>
      <point x="376" y="315"/>
      <point x="352" y="207"/>
      <point x="286" y="89" type="curve" smooth="yes"/>
      <point x="216" y="-36"/>
      <point x="140" y="-94"/>
      <point x="2" y="-73" type="curve"/>
      <point x="-13" y="-206" type="line"/>
      <point x="261" y="-266"/>
      <point x="381" y="-101"/>
      <point x="451" y="11" type="curve" smooth="yes"/>
      <point x="563" y="193"/>
      <point x="591" y="308"/>
    </contour>
    <contour>
      <point x="260" y="500" type="line"/>
      <point x="30" y="500" type="line"/>
      <point x="91" y="53" type="line" smooth="yes"/>
      <point x="95" y="23"/>
      <point x="120" y="0"/>
      <point x="153" y="0" type="curve" smooth="yes"/>
      <point x="298" y="0" type="line"/>
      <point x="339" y="126" type="line"/>
      <point x="283" y="126" type="line" smooth="yes"/>
      <point x="274" y="126"/>
      <point x="267" y="133"/>
      <point x="267" y="142" type="curve" smooth="yes"/>
    </contour>
  </outline>
</glyph>
<glyph name="ef-cy" format="2">
  <advance width="779"/>
  <unicode hex="0444"/>
  <outline>
    <contour>
      <point x="409" y="514" type="curve" smooth="yes"/>
      <point x="149" y="514"/>
      <point x="48" y="448"/>
      <point x="21" y="257" type="curve" smooth="yes"/>
      <point x="-7" y="61"/>
      <point x="94" y="-12"/>
      <point x="359" y="-12" type="curve" smooth="yes"/>
      <point x="618" y="-12"/>
      <point x="719" y="53"/>
      <point x="746" y="241" type="curve" smooth="yes"/>
      <point x="774" y="440"/>
      <point x="667" y="514"/>
    </contour>
    <contour>
      <point x="397" y="382" type="curve" smooth="yes"/>
      <point x="536" y="382"/>
      <point x="562" y="359"/>
      <point x="548" y="249" type="curve" smooth="yes"/>
      <point x="534" y="142"/>
      <point x="501" y="120"/>
      <point x="364" y="120" type="curve" smooth="yes"/>
      <point x="230" y="120"/>
      <point x="205" y="143"/>
      <point x="219" y="251" type="curve" smooth="yes"/>
      <point x="233" y="359"/>
      <point x="265" y="382"/>
    </contour>
    <contour>
      <point x="539" y="700" type="line"/>
      <point x="354" y="700" type="line"/>
      <point x="325" y="483" type="line"/>
      <point x="329" y="444" type="line"/>
      <point x="277" y="83" type="line"/>
      <point x="259" y="32" type="line"/>
      <point x="231" y="-180" type="line"/>
      <point x="416" y="-180" type="line"/>
      <point x="444" y="32" type="line"/>
      <point x="442" y="84" type="line"/>
      <point x="494" y="445" type="line"/>
      <point x="510" y="483" type="line"/>
    </contour>
  </outline>
</glyph>
<glyph name="che-cy" format="2">
  <advance width="605"/>
  <unicode hex="0447"/>
  <anchor x="550" y="0" name="bottomright"/>
  <anchor x="338" y="547" name="top"/>
  <outline>
    <contour>
      <point x="269" y="500" type="line"/>
      <point x="61" y="500" type="line"/>
      <point x="28" y="291" type="line" smooth="yes"/>
      <point x="12" y="179"/>
      <point x="71" y="141"/>
      <point x="196" y="141" type="curve" smooth="yes"/>
      <point x="259" y="141"/>
      <point x="340" y="157"/>
      <point x="383" y="190" type="curve"/>
      <point x="365" y="310" type="line"/>
      <point x="328" y="296"/>
      <point x="299" y="291"/>
      <point x="275" y="291" type="curve" smooth="yes"/>
      <point x="249" y="291"/>
      <point x="241" y="301"/>
      <point x="245" y="323" type="curve" smooth="yes"/>
    </contour>
    <contour>
      <point x="587" y="500" type="line"/>
      <point x="378" y="500" type="line"/>
      <point x="308" y="0" type="line"/>
      <point x="517" y="0" type="line"/>
    </contour>
  </outline>
</glyph>
<glyph name="sha-cy" format="2">
  <advance width="887"/>
  <unicode hex="0448"/>
  <outline>
    <contour>
      <point x="278" y="500" type="line"/>
      <point x="69" y="500" type="line"/>
      <point x="17" y="130" type="line" smooth="yes"/>
      <point x="4" y="40"/>
      <point x="51" y="-14"/>
      <point x="151" y="-14" type="curve" smooth="yes"/>
      <point x="237" y="-14"/>
      <point x="301" y="27"/>
      <point x="385" y="126" type="curve"/>
      <point x="348" y="211" type="line"/>
      <point x="302" y="173"/>
      <point x="272" y="163"/>
      <point x="253" y="163" type="curve" smooth="yes"/>
      <point x="241" y="163"/>
      <point x="231" y="167"/>
      <point x="234" y="189" type="curve" smooth="yes"/>
    </contour>
    <contour>
      <point x="567" y="500" type="line"/>
      <point x="370" y="500" type="line"/>
      <point x="318" y="130" type="line" smooth="yes"/>
      <point x="305" y="38"/>
      <point x="353" y="-14"/>
      <point x="446" y="-14" type="curve" smooth="yes"/>
      <point x="532" y="-14"/>
      <point x="596" y="28"/>
      <point x="679" y="126" type="curve"/>
      <point x="643" y="211" type="line"/>
      <point x="594" y="173"/>
      <point x="565" y="163"/>
      <point x="543" y="163" type="curve" smooth="yes"/>
      <point x="529" y="163"/>
      <point x="520" y="167"/>
      <point x="524" y="189" type="curve" smooth="yes"/>
    </contour>
    <contour>
      <point x="869" y="500" type="line"/>
      <point x="660" y="500" type="line"/>
      <point x="607" y="114" type="line"/>
      <point x="627" y="102" type="line"/>
      <point x="636" y="0" type="line"/>
      <point x="799" y="0" type="line"/>
    </contour>
  </outline>
</glyph>
<glyph name="shcha-cy" format="2">
  <advance width="929"/>
  <unicode hex="0449"/>
  <outline>
    <contour>
      <point x="278" y="500" type="line"/>
      <point x="69" y="500" type="line"/>
      <point x="17" y="130" type="line" smooth="yes"/>
      <point x="4" y="40"/>
      <point x="51" y="-14"/>
      <point x="151" y="-14" type="curve" smooth="yes"/>
      <point x="238" y="-14"/>
      <point x="301" y="27"/>
      <point x="385" y="126" type="curve"/>
      <point x="348" y="211" type="line"/>
      <point x="302" y="173"/>
      <point x="272" y="163"/>
      <point x="253" y="163" type="curve" smooth="yes"/>
      <point x="241" y="163"/>
      <point x="231" y="167"/>
      <point x="235" y="189" type="curve" smooth="yes"/>
    </contour>
    <contour>
      <point x="567" y="500" type="line"/>
      <point x="370" y="500" type="line"/>
      <point x="318" y="130" type="line" smooth="yes"/>
      <point x="305" y="38"/>
      <point x="353" y="-14"/>
      <point x="447" y="-14" type="curve" smooth="yes"/>
      <point x="532" y="-14"/>
      <point x="595" y="28"/>
      <point x="679" y="126" type="curve"/>
      <point x="643" y="211" type="line"/>
      <point x="594" y="173"/>
      <point x="565" y="163"/>
      <point x="543" y="163" type="curve" smooth="yes"/>
      <point x="529" y="163"/>
      <point x="521" y="167"/>
      <point x="524" y="189" type="curve" smooth="yes"/>
    </contour>
    <contour>
      <point x="868" y="500" type="line"/>
      <point x="659" y="500" type="line"/>
      <point x="610" y="146" type="line"/>
      <point x="628" y="134" type="line"/>
      <point x="630" y="91" type="line" smooth="yes"/>
      <point x="632" y="38"/>
      <point x="670" y="0"/>
      <point x="718" y="0" type="curve" smooth="yes"/>
      <point x="877" y="0" type="line"/>
      <point x="894" y="118" type="line"/>
      <point x="838" y="118" type="line" smooth="yes"/>
      <point x="825" y="118"/>
      <point x="816" y="128"/>
      <point x="818" y="141" type="curve" smooth="yes"/>
    </contour>
    <contour>
      <point x="734" y="5" type="line"/>
      <point x="684" y="-149" type="line"/>
      <point x="856" y="-149" type="line"/>
      <point x="877" y="0" type="line"/>
    </contour>
  </outline>
</glyph>
<glyph name="yeru-cy" format="2">
  <advance width="829"/>
  <unicode hex="044B"/>
  <anchor x="450" y="547" name="top"/>
  <outline>
    <contour>
      <point x="273" y="500" type="line"/>
      <point x="71" y="500" type="line"/>
      <point x="24" y="162" type="line" smooth="yes"/>
      <point x="7" y="11"/>
      <point x="115" y="-11"/>
      <point x="256" y="-11" type="curve" smooth="yes"/>
      <point x="413" y="-11"/>
      <point x="489" y="23"/>
      <point x="507" y="161" type="curve" smooth="yes"/>
      <point x="527" y="310"/>
      <point x="478" y="339"/>
      <point x="336" y="343" type="curve" smooth="yes"/>
      <point x="284" y="344"/>
      <point x="213" y="329"/>
      <point x="142" y="283" type="curve"/>
      <point x="125" y="167" type="line"/>
      <point x="202" y="224"/>
      <point x="247" y="227"/>
      <point x="275" y="227" type="curve" smooth="yes"/>
      <point x="305" y="227"/>
      <point x="308" y="222"/>
      <point x="301" y="176" type="curve" smooth="yes"/>
      <point x="296" y="140"/>
      <point x="287" y="128"/>
      <point x="258" y="128" type="curve" smooth="yes"/>
      <point x="235" y="128"/>
      <point x="221" y="137"/>
      <point x="225" y="160" type="curve" smooth="yes"/>
    </contour>
    <contour>
      <point x="811" y="500" type="line"/>
      <point x="600" y="500" type="line"/>
      <point x="530" y="0" type="line"/>
      <point x="741" y="0" type="line"/>
    </contour>
  </outline>
</glyph>
<glyph name="softsign-cy" format="2">
  <advance width="547"/>
  <unicode hex="044C"/>
  <outline>
    <contour>
      <point x="273" y="500" type="line"/>
      <point x="71" y="500" type="line"/>
      <point x="24" y="162" type="line" smooth="yes"/>
      <point x="7" y="10"/>
      <point x="118" y="-12"/>
      <point x="259" y="-12" type="curve" smooth="yes"/>
      <point x="418" y="-12"/>
      <point x="494" y="22"/>
      <point x="512" y="161" type="curve" smooth="yes"/>
      <point x="531" y="310"/>
      <point x="482" y="343"/>
      <point x="337" y="343" type="curve" smooth="yes"/>
      <point x="284" y="343"/>
      <point x="212" y="329"/>
      <point x="141" y="283" type="curve"/>
      <point x="123" y="167" type="line"/>
      <point x="202" y="224"/>
      <point x="248" y="227"/>
      <point x="278" y="227" type="curve" smooth="yes"/>
      <point x="309" y="227"/>
      <point x="313" y="222"/>
      <point x="306" y="176" type="curve" smooth="yes"/>
      <point x="300" y="140"/>
      <point x="291" y="128"/>
      <point x="260" y="128" type="curve" smooth="yes"/>
      <point x="235" y="128"/>
      <point x="221" y="137"/>
      <point x="224" y="160" type="curve" smooth="yes"/>
    </contour>
  </outline>
</glyph>
<glyph name="ereversed-cy" format="2">
  <advance width="561"/>
  <unicode hex="044D"/>
  <anchor x="300" y="547" name="top"/>
  <outline>
    <contour>
      <point x="281" y="514" type="curve" smooth="yes"/>
      <point x="202" y="514"/>
      <point x="101" y="501"/>
      <point x="46" y="484" type="curve"/>
      <point x="56" y="357" type="line"/>
      <point x="123" y="357"/>
      <point x="149" y="357"/>
      <point x="258" y="358" type="curve" smooth="yes"/>
      <point x="324" y="358"/>
      <point x="328" y="348"/>
      <point x="318" y="256" type="curve" smooth="yes"/>
      <point x="306" y="149"/>
      <point x="299" y="144"/>
      <point x="193" y="144" type="curve" smooth="yes"/>
      <point x="145" y="144"/>
      <point x="73" y="145"/>
      <point x="9" y="148" type="curve"/>
      <point x="-12" y="21" type="line"/>
      <point x="44" y="-1"/>
      <point x="118" y="-14"/>
      <point x="218" y="-14" type="curve" smooth="yes"/>
      <point x="413" y="-14"/>
      <point x="505" y="35"/>
      <point x="527" y="240" type="curve" smooth="yes"/>
      <point x="548" y="436"/>
      <point x="474" y="514"/>
    </contour>
    <contour>
      <point x="498" y="313" type="line"/>
      <point x="74" y="313" type="line"/>
      <point x="60" y="193" type="line"/>
      <point x="480" y="193" type="line"/>
    </contour>
  </outline>
</glyph>
<glyph name="ia-cy" format="2">
  <advance width="593"/>
  <unicode hex="044F"/>
  <outline>
    <contour>
      <point x="352" y="514" type="curve" smooth="yes"/>
      <point x="139" y="514"/>
      <point x="64" y="499"/>
      <point x="42" y="367" type="curve" smooth="yes"/>
      <point x="33" y="312"/>
      <point x="45" y="251"/>
      <point x="135" y="226" type="curve"/>
      <point x="134" y="220" type="line"/>
      <point x="93" y="220"/>
      <point x="41" y="207"/>
      <point x="25" y="155" type="curve" smooth="yes"/>
      <point x="-24" y="0" type="line"/>
      <point x="192" y="0" type="line"/>
      <point x="230" y="124" type="line" smooth="yes"/>
      <point x="236" y="145"/>
      <point x="253" y="157"/>
      <point x="283" y="157" type="curve" smooth="yes"/>
      <point x="442" y="157"/>
      <point x="484" y="157"/>
      <point x="525" y="160" type="curve"/>
      <point x="533" y="280" type="line"/>
      <point x="286" y="280" type="line" smooth="yes"/>
      <point x="242" y="280"/>
      <point x="237" y="296"/>
      <point x="243" y="331" type="curve" smooth="yes"/>
      <point x="248" y="363"/>
      <point x="257" y="370"/>
      <point x="292" y="370" type="curve" smooth="yes"/>
      <point x="450" y="370"/>
      <point x="542" y="372"/>
      <point x="551" y="368" type="curve"/>
      <point x="577" y="506" type="line"/>
      <point x="520" y="513"/>
      <point x="423" y="514"/>
    </contour>
    <contour>
      <point x="577" y="506" type="line"/>
      <point x="373" y="506" type="line"/>
      <point x="302" y="0" type="line"/>
      <point x="506" y="0" type="line"/>
    </contour>
  </outline>
</glyph>
<glyph name="dje-cy" format="2">
  <advance width="650"/>
  <unicode hex="0452"/>
  <outline>
    <contour>
      <point x="463" y="424" type="curve" smooth="yes"/>
      <point x="397" y="424"/>
      <point x="314" y="387"/>
      <point x="234" y="302" type="curve"/>
      <point x="256" y="206" type="line"/>
      <point x="301" y="239"/>
      <point x="326" y="247"/>
      <point x="354" y="247" type="curve" smooth="yes"/>
      <point x="376" y="247"/>
      <point x="387" y="243"/>
      <point x="384" y="221" type="curve" smooth="yes"/>
      <point x="361" y="62" type="line" smooth="yes"/>
      <point x="353" y="5"/>
      <point x="330" y="-42"/>
      <point x="275" y="-95" type="curve"/>
      <point x="389" y="-192" type="line"/>
      <point x="490" y="-151"/>
      <point x="555" y="-50"/>
      <point x="569" y="54" type="curve" smooth="yes"/>
      <point x="602" y="280" type="line" smooth="yes"/>
      <point x="615" y="372"/>
      <point x="566" y="424"/>
    </contour>
    <contour>
      <point x="336" y="700" type="line"/>
      <point x="125" y="700" type="line"/>
      <point x="27" y="0" type="line"/>
      <point x="238" y="0" type="line"/>
      <point x="276" y="289" type="line"/>
      <point x="260" y="297" type="line"/>
      <point x="276" y="330"/>
      <point x="292" y="390"/>
      <point x="300" y="450" type="curve" smooth="yes"/>
    </contour>
    <contour>
      <point x="484" y="557" type="line"/>
      <point x="43" y="557" type="line"/>
      <point x="31" y="457" type="line"/>
      <point x="471" y="457" type="line"/>
    </contour>
  </outline>
</glyph>
<glyph name="e-cy" format="2">
  <advance width="561"/>
  <unicode hex="0454"/>
  <outline>
    <contour>
      <point x="317" y="514" type="curve" smooth="yes"/>
      <point x="169" y="514"/>
      <point x="43" y="483"/>
      <point x="21" y="256" type="curve" smooth="yes"/>
      <point x="5" y="87"/>
      <point x="62" y="-14"/>
      <point x="300" y="-14" type="curve" smooth="yes"/>
      <point x="358" y="-14"/>
      <point x="442" y="-8"/>
      <point x="507" y="17" type="curve"/>
      <point x="497" y="148" type="line"/>
      <point x="437" y="145"/>
      <point x="387" y="144"/>
      <point x="296" y="144" type="curve" smooth="yes"/>
      <point x="231" y="144"/>
      <point x="219" y="166"/>
      <point x="230" y="254" type="curve" smooth="yes"/>
      <point x="242" y="347"/>
      <point x="256" y="356"/>
      <point x="325" y="356" type="curve" smooth="yes"/>
      <point x="406" y="356"/>
      <point x="464" y="356"/>
      <point x="535" y="356" type="curve"/>
      <point x="557" y="482" type="line"/>
      <point x="486" y="507"/>
      <point x="387" y="514"/>
    </contour>
    <contour>
      <point x="69" y="313" type="line"/>
      <point x="51" y="193" type="line"/>
      <point x="476" y="193" type="line"/>
      <point x="490" y="313" type="line"/>
    </contour>
  </outline>
</glyph>
<glyph name="dze-cy" format="2">
  <advance width="548"/>
  <unicode hex="0455"/>
  <outline>
    <contour>
      <point x="278" y="514" type="curve" smooth="yes"/>
      <point x="102" y="514"/>
      <point x="49" y="463"/>
      <point x="36" y="376" type="curve" smooth="yes"/>
      <point x="24" y="295"/>
      <point x="52" y="232"/>
      <point x="147" y="205" type="curve" smooth="yes"/>
      <point x="252" y="175" type="line" smooth="yes"/>
      <point x="298" y="162"/>
      <point x="307" y="158"/>
      <point x="306" y="148" type="curve" smooth="yes"/>
      <point x="304" y="135"/>
      <point x="285" y="132"/>
      <point x="182" y="132" type="curve" smooth="yes"/>
      <point x="120" y="132"/>
      <point x="39" y="132"/>
      <point x="14" y="132" type="curve"/>
      <point x="-3" y="11" type="line"/>
      <point x="103" y="-8"/>
      <point x="191" y="-11"/>
      <point x="253" y="-11" type="curve" smooth="yes"/>
      <point x="402" y="-11"/>
      <point x="491" y="14"/>
      <point x="507" y="146" type="curve" smooth="yes"/>
      <point x="517" y="230"/>
      <point x="475" y="282"/>
      <point x="393" y="304" type="curve" smooth="yes"/>
      <point x="284" y="333" type="line" smooth="yes"/>
      <point x="243" y="344"/>
      <point x="233" y="350"/>
      <point x="235" y="360" type="curve" smooth="yes"/>
      <point x="237" y="370"/>
      <point x="252" y="370"/>
      <point x="322" y="370" type="curve" smooth="yes"/>
      <point x="380" y="370"/>
      <point x="447" y="370"/>
      <point x="513" y="370" type="curve"/>
      <point x="530" y="491" type="line"/>
      <point x="471" y="504"/>
      <point x="357" y="514"/>
    </contour>
  </outline>
</glyph>
<glyph name="i-cy" format="2">
  <advance width="310"/>
  <unicode hex="0456"/>
  <outline>
    <contour>
      <point x="288" y="500" type="line"/>
      <point x="79" y="500" type="line"/>
      <point x="10" y="0" type="line"/>
      <point x="219" y="0" type="line"/>
    </contour>
    <contour>
      <point x="253" y="729" type="curve" smooth="yes"/>
      <point x="172" y="729" type="line" smooth="yes"/>
      <point x="129" y="729"/>
      <point x="107" y="711"/>
      <point x="103" y="671" type="curve" smooth="yes"/>
      <point x="96" y="620" type="line" smooth="yes"/>
      <point x="91" y="575"/>
      <point x="110" y="554"/>
      <point x="155" y="554" type="curve" smooth="yes"/>
      <point x="237" y="554" type="line" smooth="yes"/>
      <point x="280" y="554"/>
      <point x="301" y="572"/>
      <point x="306" y="612" type="curve" smooth="yes"/>
      <point x="313" y="663" type="line" smooth="yes"/>
      <point x="318" y="708"/>
      <point x="298" y="729"/>
    </contour>
  </outline>
</glyph>
<glyph name="lje-cy" format="2">
  <advance width="842"/>
  <unicode hex="0459"/>
  <outline>
    <contour>
      <point x="559" y="500" type="line"/>
      <point x="272" y="500" type="line" smooth="yes"/>
      <point x="185" y="500"/>
      <point x="141" y="463"/>
      <point x="124" y="389" type="curve" smooth="yes"/>
      <point x="107" y="313"/>
      <point x="83" y="219"/>
      <point x="64" y="186" type="curve" smooth="yes"/>
      <point x="45" y="153"/>
      <point x="13" y="143"/>
      <point x="-22" y="140" type="curve"/>
      <point x="-13" y="-3" type="line"/>
      <point x="89" y="-17"/>
      <point x="183" y="-9"/>
      <point x="239" y="119" type="curve" smooth="yes"/>
      <point x="264" y="176"/>
      <point x="290" y="291"/>
      <point x="303" y="342" type="curve" smooth="yes"/>
      <point x="310" y="368"/>
      <point x="320" y="376"/>
      <point x="348" y="376" type="curve" smooth="yes"/>
      <point x="543" y="376" type="line"/>
    </contour>
    <contour>
      <point x="575" y="500" type="line"/>
      <point x="378" y="500" type="line"/>
      <point x="331" y="162" type="line" smooth="yes"/>
      <point x="314" y="16"/>
      <point x="417" y="-6"/>
      <point x="556" y="-6" type="curve" smooth="yes"/>
      <point x="712" y="-6"/>
      <point x="788" y="28"/>
      <point x="806" y="161" type="curve" smooth="yes"/>
      <point x="826" y="310"/>
      <point x="778" y="339"/>
      <point x="639" y="343" type="curve" smooth="yes"/>
      <point x="587" y="344"/>
      <point x="517" y="329"/>
      <point x="446" y="283" type="curve"/>
      <point x="428" y="167" type="line"/>
      <point x="506" y="224"/>
      <point x="549" y="227"/>
      <point x="576" y="227" type="curve" smooth="yes"/>
      <point x="603" y="227"/>
      <point x="606" y="222"/>
      <point x="599" y="176" type="curve" smooth="yes"/>
      <point x="594" y="140"/>
      <point x="587" y="128"/>
      <point x="559" y="128" type="curve" smooth="yes"/>
      <point x="537" y="128"/>
      <point x="524" y="137"/>
      <point x="527" y="160" type="curve" smooth="yes"/>
    </contour>
  </outline>
</glyph>
<glyph name="tshe-cy" format="2">
  <advance width="632"/>
  <unicode hex="045B"/>
  <outline>
    <contour>
      <point x="336" y="700" type="line"/>
      <point x="125" y="700" type="line"/>
      <point x="27" y="0" type="line"/>
      <point x="238" y="0" type="line"/>
      <point x="276" y="289" type="line"/>
      <point x="258" y="297" type="line"/>
      <point x="274" y="330"/>
      <point x="292" y="390"/>
      <point x="300" y="450" type="curve" smooth="yes"/>
    </contour>
    <contour>
      <point x="484" y="557" type="line"/>
      <point x="43" y="557" type="line"/>
      <point x="31" y="457" type="line"/>
      <point x="471" y="457" type="line"/>
    </contour>
    <contour>
      <point x="462" y="424" type="curve" smooth="yes"/>
      <point x="397" y="424"/>
      <point x="314" y="387"/>
      <point x="234" y="302" type="curve"/>
      <point x="256" y="206" type="line"/>
      <point x="301" y="239"/>
      <point x="326" y="247"/>
      <point x="354" y="247" type="curve" smooth="yes"/>
      <point x="380" y="247"/>
      <point x="387" y="239"/>
      <point x="384" y="215" type="curve" smooth="yes"/>
      <point x="352" y="0" type="line"/>
      <point x="563" y="0" type="line"/>
      <point x="602" y="280" type="line" smooth="yes"/>
      <point x="615" y="372"/>
      <point x="566" y="424"/>
    </contour>
  </outline>
</glyph>
<glyph name="dzhe-cy" format="2">
  <advance width="618"/>
  <unicode hex="045F"/>
  <outline>
    <contour>
      <point x="344" y="-39" type="line"/>
      <point x="213" y="-39" type="line"/>
      <point x="169" y="-251" type="line"/>
      <point x="327" y="-251" type="line"/>
    </contour>
    <component base="u" xOffset="2"/>
  </outline>
</glyph>
<glyph name="Yat-cy" format="2">
  <advance width="678"/>
  <unicode hex="0462"/>
  <outline>
    <contour>
      <point x="397" y="453" type="curve" smooth="yes"/>
      <point x="146" y="453" type="line"/>
      <point x="127" y="322" type="line"/>
      <point x="381" y="322" type="line" smooth="yes"/>
      <point x="443" y="322"/>
      <point x="441" y="303"/>
      <point x="432" y="229" type="curve" smooth="yes"/>
      <point x="421" y="140"/>
      <point x="403" y="142"/>
      <point x="346" y="142" type="curve" smooth="yes"/>
      <point x="228" y="142"/>
      <point x="129" y="143"/>
      <point x="96" y="145" type="curve"/>
      <point x="63" y="0" type="line"/>
      <point x="156" y="-7"/>
      <point x="237" y="-8"/>
      <point x="389" y="-8" type="curve" smooth="yes"/>
      <point x="567" y="-8"/>
      <point x="622" y="39"/>
      <point x="647" y="215" type="curve" smooth="yes"/>
      <point x="673" y="397"/>
      <point x="605" y="453"/>
    </contour>
    <contour>
      <point x="383" y="734" type="line"/>
      <point x="166" y="734" type="line"/>
      <point x="63" y="0" type="line"/>
      <point x="280" y="0" type="line"/>
    </contour>
    <contour>
      <point x="19" y="522" type="line"/>
      <point x="560" y="522" type="line"/>
      <point x="576" y="642" type="line"/>
      <point x="35" y="642" type="line"/>
    </contour>
  </outline>
</glyph>
<glyph name="yat-cy" format="2">
  <advance width="566"/>
  <unicode hex="0463"/>
  <outline>
    <contour>
      <point x="278" y="-12" type="curve" smooth="yes"/>
      <point x="437" y="-12"/>
      <point x="513" y="22"/>
      <point x="531" y="161" type="curve" smooth="yes"/>
      <point x="550" y="310"/>
      <point x="501" y="343"/>
      <point x="356" y="343" type="curve" smooth="yes"/>
      <point x="303" y="343"/>
      <point x="231" y="329"/>
      <point x="160" y="283" type="curve"/>
      <point x="142" y="167" type="line"/>
      <point x="221" y="224"/>
      <point x="267" y="227"/>
      <point x="297" y="227" type="curve" smooth="yes"/>
      <point x="328" y="227"/>
      <point x="332" y="222"/>
      <point x="325" y="176" type="curve" smooth="yes"/>
      <point x="319" y="140"/>
      <point x="310" y="128"/>
      <point x="279" y="128" type="curve" smooth="yes"/>
      <point x="254" y="128"/>
      <point x="240" y="137"/>
      <point x="243" y="160" type="curve" smooth="yes"/>
      <point x="320" y="690" type="line"/>
      <point x="118" y="690" type="line"/>
      <point x="43" y="162" type="line" smooth="yes"/>
      <point x="22" y="11"/>
      <point x="137" y="-12"/>
    </contour>
    <contour>
      <point x="-2" y="400" type="line"/>
      <point x="439" y="400" type="line"/>
      <point x="455" y="500" type="line"/>
      <point x="14" y="500" type="line"/>
    </contour>
  </outline>
</glyph>
<glyph name="Yusbig-cy" format="2">
  <advance width="924"/>
  <unicode hex="046A"/>
  <outline>
    <contour>
      <point x="-63" y="0" type="curve"/>
      <point x="164" y="0" type="line"/>
      <point x="283" y="275"/>
      <point x="275" y="288"/>
      <point x="355" y="288" type="curve"/>
      <point x="348" y="262"/>
      <point x="343" y="239"/>
      <point x="341" y="225" type="curve" smooth="yes"/>
      <point x="310" y="0" type="line"/>
      <point x="517" y="0" type="line"/>
      <point x="548" y="225" type="line" smooth="yes"/>
      <point x="550" y="239"/>
      <point x="551" y="262"/>
      <point x="553" y="288" type="curve"/>
      <point x="634" y="288"/>
      <point x="622" y="278"/>
      <point x="664" y="0" type="curve"/>
      <point x="891" y="0" type="line"/>
      <point x="836" y="301"/>
      <point x="815" y="350"/>
      <point x="661" y="367" type="curve"/>
      <point x="662" y="373" type="line"/>
      <point x="947" y="690" type="line"/>
      <point x="73" y="690" type="line"/>
      <point x="270" y="373" type="line"/>
      <point x="269" y="367" type="line"/>
      <point x="90" y="356"/>
      <point x="83" y="310"/>
    </contour>
    <contour>
      <point x="465" y="385" type="line"/>
      <point x="363" y="552" type="line"/>
      <point x="616" y="552" type="line"/>
    </contour>
  </outline>
</glyph>
<glyph name="Fita-cy" format="2">
  <advance width="700"/>
  <unicode hex="0472"/>
  <outline>
    <contour>
      <point x="202" y="287" type="line"/>
      <point x="492" y="287" type="line"/>
      <point x="492" y="411" type="line"/>
      <point x="202" y="411" type="line"/>
    </contour>
    <component base="O-cy"/>
  </outline>
</glyph>
<glyph name="Izhitsa-cy" format="2">
  <advance width="717"/>
  <unicode hex="0474"/>
  <outline>
    <contour>
      <point x="199" y="0" type="curve" smooth="yes"/>
      <point x="389" y="0" type="line" smooth="yes"/>
      <point x="426" y="0"/>
      <point x="459" y="23"/>
      <point x="471" y="58" type="curve" smooth="yes"/>
      <point x="615" y="469" type="line" smooth="yes"/>
      <point x="633" y="519"/>
      <point x="660" y="534"/>
      <point x="702" y="534" type="curve" smooth="yes"/>
      <point x="712" y="534"/>
      <point x="730" y="533"/>
      <point x="742" y="531" type="curve"/>
      <point x="765" y="694" type="line"/>
      <point x="721" y="703"/>
      <point x="672" y="704"/>
      <point x="642" y="704" type="curve" smooth="yes"/>
      <point x="508" y="704"/>
      <point x="461" y="612"/>
      <point x="437" y="531" type="curve" smooth="yes"/>
      <point x="352" y="241" type="line" smooth="yes"/>
      <point x="345" y="216"/>
      <point x="335" y="187"/>
      <point x="328" y="162" type="curve"/>
      <point x="304" y="162" type="line"/>
      <point x="304" y="187"/>
      <point x="304" y="216"/>
      <point x="302" y="241" type="curve" smooth="yes"/>
      <point x="277" y="690" type="line"/>
      <point x="54" y="690" type="line"/>
      <point x="133" y="58" type="line" smooth="yes"/>
      <point x="136" y="23"/>
      <point x="162" y="0"/>
    </contour>
  </outline>
</glyph>
<glyph name="izhitsa-cy" format="2">
  <advance width="582"/>
  <unicode hex="0475"/>
  <outline>
    <contour>
      <point x="158" y="0" type="curve" smooth="yes"/>
      <point x="322" y="0" type="line" smooth="yes"/>
      <point x="354" y="0"/>
      <point x="383" y="20"/>
      <point x="394" y="50" type="curve" smooth="yes"/>
      <point x="493" y="307" type="line" smooth="yes"/>
      <point x="507" y="346"/>
      <point x="529" y="358"/>
      <point x="563" y="358" type="curve" smooth="yes"/>
      <point x="571" y="358"/>
      <point x="587" y="357"/>
      <point x="596" y="355" type="curve"/>
      <point x="616" y="498" type="line"/>
      <point x="577" y="506"/>
      <point x="535" y="507"/>
      <point x="509" y="507" type="curve" smooth="yes"/>
      <point x="393" y="507"/>
      <point x="355" y="419"/>
      <point x="338" y="363" type="curve" smooth="yes"/>
      <point x="287" y="198" type="line" smooth="yes"/>
      <point x="282" y="181"/>
      <point x="275" y="159"/>
      <point x="269" y="141" type="curve"/>
      <point x="250" y="141" type="line"/>
      <point x="250" y="159"/>
      <point x="250" y="181"/>
      <point x="248" y="199" type="curve" smooth="yes"/>
      <point x="226" y="497" type="line"/>
      <point x="32" y="497" type="line"/>
      <point x="100" y="50" type="line" smooth="yes"/>
      <point x="104" y="20"/>
      <point x="125" y="0"/>
    </contour>
  </outline>
</glyph>
<glyph name="Iishorttail-cy" format="2">
  <advance width="774"/>
  <unicode hex="048A"/>
  <outline>
    <contour>
      <point x="454" y="142" type="line"/>
      <point x="434" y="0" type="line"/>
      <point x="554" y="0" type="line"/>
      <point x="518" y="-151" type="line"/>
      <point x="675" y="-151" type="line"/>
      <point x="727" y="0" type="line"/>
      <point x="747" y="142" type="line"/>
    </contour>
    <component base="Ii-cy"/>
    <component base="brevecomb-cy" xOffset="84" yOffset="235"/>
  </outline>
</glyph>
<glyph name="iishorttail-cy" format="2">
  <advance width="639"/>
  <unicode hex="048B"/>
  <outline>
    <contour>
      <point x="392" y="142" type="line"/>
      <point x="372" y="0" type="line"/>
      <point x="439" y="0" type="line"/>
      <point x="405" y="-141" type="line"/>
      <point x="552" y="-141" type="line"/>
      <point x="602" y="0" type="line"/>
      <point x="622" y="142" type="line"/>
    </contour>
    <component base="ii-cy"/>
    <component base="brevecomb-cy" xOffset="9" yOffset="47"/>
  </outline>
</glyph>
<glyph name="Semisoftsign-cy" format="2">
  <advance width="677"/>
  <unicode hex="048C"/>
  <outline>
    <contour>
      <point x="17" y="507" type="line"/>
      <point x="558" y="507" type="line"/>
      <point x="574" y="627" type="line"/>
      <point x="33" y="627" type="line"/>
    </contour>
    <component base="Softsign-cy" xOffset="46"/>
  </outline>
</glyph>
